G04 #@! TF.GenerationSoftware,KiCad,Pcbnew,10.0.1*
G04 #@! TF.CreationDate,2026-06-09T21:48:43-04:00*
G04 #@! TF.ProjectId,posture_tracker_v2,706f7374-7572-4655-9f74-7261636b6572,rev?*
G04 #@! TF.SameCoordinates,Original*
G04 #@! TF.FileFunction,Copper,L1,Top*
G04 #@! TF.FilePolarity,Positive*
%FSLAX46Y46*%
G04 Gerber Fmt 4.6, Leading zero omitted, Abs format (unit mm)*
G04 Created by KiCad (PCBNEW 10.0.1) date 2026-06-09 21:48:43*
%MOMM*%
%LPD*%
G01*
G04 APERTURE LIST*
G04 Aperture macros list*
%AMRoundRect*
0 Rectangle with rounded corners*
0 $1 Rounding radius*
0 $2 $3 $4 $5 $6 $7 $8 $9 X,Y pos of 4 corners*
0 Add a 4 corners polygon primitive as box body*
4,1,4,$2,$3,$4,$5,$6,$7,$8,$9,$2,$3,0*
0 Add four circle primitives for the rounded corners*
1,1,$1+$1,$2,$3*
1,1,$1+$1,$4,$5*
1,1,$1+$1,$6,$7*
1,1,$1+$1,$8,$9*
0 Add four rect primitives between the rounded corners*
20,1,$1+$1,$2,$3,$4,$5,0*
20,1,$1+$1,$4,$5,$6,$7,0*
20,1,$1+$1,$6,$7,$8,$9,0*
20,1,$1+$1,$8,$9,$2,$3,0*%
%AMOutline5P*
0 Free polygon, 5 corners , with rotation*
0 The origin of the aperture is its center*
0 number of corners: always 5*
0 $1 to $10 corner X, Y*
0 $11 Rotation angle, in degrees counterclockwise*
0 create outline with 5 corners*
4,1,5,$1,$2,$3,$4,$5,$6,$7,$8,$9,$10,$1,$2,$11*%
%AMOutline6P*
0 Free polygon, 6 corners , with rotation*
0 The origin of the aperture is its center*
0 number of corners: always 6*
0 $1 to $12 corner X, Y*
0 $13 Rotation angle, in degrees counterclockwise*
0 create outline with 6 corners*
4,1,6,$1,$2,$3,$4,$5,$6,$7,$8,$9,$10,$11,$12,$1,$2,$13*%
%AMOutline7P*
0 Free polygon, 7 corners , with rotation*
0 The origin of the aperture is its center*
0 number of corners: always 7*
0 $1 to $14 corner X, Y*
0 $15 Rotation angle, in degrees counterclockwise*
0 create outline with 7 corners*
4,1,7,$1,$2,$3,$4,$5,$6,$7,$8,$9,$10,$11,$12,$13,$14,$1,$2,$15*%
%AMOutline8P*
0 Free polygon, 8 corners , with rotation*
0 The origin of the aperture is its center*
0 number of corners: always 8*
0 $1 to $16 corner X, Y*
0 $17 Rotation angle, in degrees counterclockwise*
0 create outline with 8 corners*
4,1,8,$1,$2,$3,$4,$5,$6,$7,$8,$9,$10,$11,$12,$13,$14,$15,$16,$1,$2,$17*%
G04 Aperture macros list end*
G04 #@! TA.AperFunction,SMDPad,CuDef*
%ADD10RoundRect,0.250000X0.250000X0.475000X-0.250000X0.475000X-0.250000X-0.475000X0.250000X-0.475000X0*%
G04 #@! TD*
G04 #@! TA.AperFunction,SMDPad,CuDef*
%ADD11RoundRect,0.075000X0.350000X0.075000X-0.350000X0.075000X-0.350000X-0.075000X0.350000X-0.075000X0*%
G04 #@! TD*
G04 #@! TA.AperFunction,SMDPad,CuDef*
%ADD12RoundRect,0.075000X-0.075000X0.350000X-0.075000X-0.350000X0.075000X-0.350000X0.075000X0.350000X0*%
G04 #@! TD*
G04 #@! TA.AperFunction,SMDPad,CuDef*
%ADD13RoundRect,0.135000X0.135000X0.185000X-0.135000X0.185000X-0.135000X-0.185000X0.135000X-0.185000X0*%
G04 #@! TD*
G04 #@! TA.AperFunction,SMDPad,CuDef*
%ADD14RoundRect,0.135000X-0.185000X0.135000X-0.185000X-0.135000X0.185000X-0.135000X0.185000X0.135000X0*%
G04 #@! TD*
G04 #@! TA.AperFunction,SMDPad,CuDef*
%ADD15RoundRect,0.140000X-0.140000X-0.170000X0.140000X-0.170000X0.140000X0.170000X-0.140000X0.170000X0*%
G04 #@! TD*
G04 #@! TA.AperFunction,SMDPad,CuDef*
%ADD16RoundRect,0.140000X-0.170000X0.140000X-0.170000X-0.140000X0.170000X-0.140000X0.170000X0.140000X0*%
G04 #@! TD*
G04 #@! TA.AperFunction,SMDPad,CuDef*
%ADD17RoundRect,0.140000X0.140000X0.170000X-0.140000X0.170000X-0.140000X-0.170000X0.140000X-0.170000X0*%
G04 #@! TD*
G04 #@! TA.AperFunction,SMDPad,CuDef*
%ADD18RoundRect,0.250000X-0.250000X-0.475000X0.250000X-0.475000X0.250000X0.475000X-0.250000X0.475000X0*%
G04 #@! TD*
G04 #@! TA.AperFunction,SMDPad,CuDef*
%ADD19RoundRect,0.243750X-0.243750X-0.456250X0.243750X-0.456250X0.243750X0.456250X-0.243750X0.456250X0*%
G04 #@! TD*
G04 #@! TA.AperFunction,ComponentPad*
%ADD20RoundRect,0.200000X-0.200000X-0.450000X0.200000X-0.450000X0.200000X0.450000X-0.200000X0.450000X0*%
G04 #@! TD*
G04 #@! TA.AperFunction,ComponentPad*
%ADD21O,0.800000X1.300000*%
G04 #@! TD*
G04 #@! TA.AperFunction,SMDPad,CuDef*
%ADD22R,0.800000X0.400000*%
G04 #@! TD*
G04 #@! TA.AperFunction,SMDPad,CuDef*
%ADD23R,0.400000X0.800000*%
G04 #@! TD*
G04 #@! TA.AperFunction,HeatsinkPad*
%ADD24Outline5P,-0.600000X0.204000X-0.204000X0.600000X0.600000X0.600000X0.600000X-0.600000X-0.600000X-0.600000X0.000000*%
G04 #@! TD*
G04 #@! TA.AperFunction,HeatsinkPad*
%ADD25R,1.200000X1.200000*%
G04 #@! TD*
G04 #@! TA.AperFunction,SMDPad,CuDef*
%ADD26R,0.800000X0.800000*%
G04 #@! TD*
G04 #@! TA.AperFunction,SMDPad,CuDef*
%ADD27RoundRect,0.135000X-0.135000X-0.185000X0.135000X-0.185000X0.135000X0.185000X-0.135000X0.185000X0*%
G04 #@! TD*
G04 #@! TA.AperFunction,SMDPad,CuDef*
%ADD28RoundRect,0.250000X-0.475000X0.250000X-0.475000X-0.250000X0.475000X-0.250000X0.475000X0.250000X0*%
G04 #@! TD*
G04 #@! TA.AperFunction,SMDPad,CuDef*
%ADD29RoundRect,0.140000X0.170000X-0.140000X0.170000X0.140000X-0.170000X0.140000X-0.170000X-0.140000X0*%
G04 #@! TD*
G04 #@! TA.AperFunction,SMDPad,CuDef*
%ADD30RoundRect,0.062500X-0.062500X0.350000X-0.062500X-0.350000X0.062500X-0.350000X0.062500X0.350000X0*%
G04 #@! TD*
G04 #@! TA.AperFunction,SMDPad,CuDef*
%ADD31RoundRect,0.062500X-0.350000X0.062500X-0.350000X-0.062500X0.350000X-0.062500X0.350000X0.062500X0*%
G04 #@! TD*
G04 #@! TA.AperFunction,HeatsinkPad*
%ADD32R,1.230000X1.230000*%
G04 #@! TD*
G04 #@! TA.AperFunction,SMDPad,CuDef*
%ADD33RoundRect,0.243750X-0.456250X0.243750X-0.456250X-0.243750X0.456250X-0.243750X0.456250X0.243750X0*%
G04 #@! TD*
G04 #@! TA.AperFunction,SMDPad,CuDef*
%ADD34RoundRect,0.147500X-0.172500X0.147500X-0.172500X-0.147500X0.172500X-0.147500X0.172500X0.147500X0*%
G04 #@! TD*
G04 #@! TA.AperFunction,SMDPad,CuDef*
%ADD35RoundRect,0.135000X0.185000X-0.135000X0.185000X0.135000X-0.185000X0.135000X-0.185000X-0.135000X0*%
G04 #@! TD*
G04 #@! TA.AperFunction,SMDPad,CuDef*
%ADD36R,0.650000X1.050000*%
G04 #@! TD*
G04 #@! TA.AperFunction,SMDPad,CuDef*
%ADD37RoundRect,0.250000X0.475000X-0.250000X0.475000X0.250000X-0.475000X0.250000X-0.475000X-0.250000X0*%
G04 #@! TD*
G04 #@! TA.AperFunction,SMDPad,CuDef*
%ADD38RoundRect,0.150000X-0.512500X-0.150000X0.512500X-0.150000X0.512500X0.150000X-0.512500X0.150000X0*%
G04 #@! TD*
G04 #@! TA.AperFunction,ComponentPad*
%ADD39RoundRect,0.250000X-0.625000X0.350000X-0.625000X-0.350000X0.625000X-0.350000X0.625000X0.350000X0*%
G04 #@! TD*
G04 #@! TA.AperFunction,ComponentPad*
%ADD40O,1.750000X1.200000*%
G04 #@! TD*
G04 #@! TA.AperFunction,SMDPad,CuDef*
%ADD41RoundRect,0.075000X-0.650000X-0.075000X0.650000X-0.075000X0.650000X0.075000X-0.650000X0.075000X0*%
G04 #@! TD*
G04 #@! TA.AperFunction,SMDPad,CuDef*
%ADD42RoundRect,0.150000X-0.575000X0.150000X-0.575000X-0.150000X0.575000X-0.150000X0.575000X0.150000X0*%
G04 #@! TD*
G04 #@! TA.AperFunction,SMDPad,CuDef*
%ADD43RoundRect,0.075000X-0.650000X0.075000X-0.650000X-0.075000X0.650000X-0.075000X0.650000X0.075000X0*%
G04 #@! TD*
G04 #@! TA.AperFunction,ComponentPad*
%ADD44O,2.100000X1.000000*%
G04 #@! TD*
G04 #@! TA.AperFunction,ComponentPad*
%ADD45O,1.600000X1.000000*%
G04 #@! TD*
G04 #@! TA.AperFunction,SMDPad,CuDef*
%ADD46R,1.050000X0.650000*%
G04 #@! TD*
G04 #@! TA.AperFunction,ViaPad*
%ADD47C,0.800000*%
G04 #@! TD*
G04 #@! TA.AperFunction,ViaPad*
%ADD48C,0.600000*%
G04 #@! TD*
G04 #@! TA.AperFunction,Conductor*
%ADD49C,0.400000*%
G04 #@! TD*
G04 #@! TA.AperFunction,Conductor*
%ADD50C,0.200000*%
G04 #@! TD*
G04 #@! TA.AperFunction,Conductor*
%ADD51C,0.300000*%
G04 #@! TD*
G04 APERTURE END LIST*
D10*
X168545000Y-118320000D03*
X166645000Y-118320000D03*
D11*
X185200000Y-113700000D03*
X185200000Y-113200000D03*
X185200000Y-112700000D03*
X185200000Y-112200000D03*
X185200000Y-111700000D03*
X185200000Y-111200000D03*
D12*
X184500000Y-110500000D03*
X184000000Y-110500000D03*
X183500000Y-110500000D03*
X183000000Y-110500000D03*
X182500000Y-110500000D03*
X182000000Y-110500000D03*
D11*
X181300000Y-111200000D03*
X181300000Y-111700000D03*
X181300000Y-112200000D03*
X181300000Y-112700000D03*
X181300000Y-113200000D03*
X181300000Y-113700000D03*
D12*
X182000000Y-114400000D03*
X182500000Y-114400000D03*
X183000000Y-114400000D03*
X183500000Y-114400000D03*
X184000000Y-114400000D03*
X184500000Y-114400000D03*
D13*
X185500000Y-117000000D03*
X184480000Y-117000000D03*
D14*
X175000000Y-114000000D03*
X175000000Y-115020000D03*
D15*
X204040000Y-125500000D03*
X205000000Y-125500000D03*
D16*
X185500000Y-122020000D03*
X185500000Y-122980000D03*
D17*
X166000000Y-128000000D03*
X165040000Y-128000000D03*
D15*
X180040000Y-123000000D03*
X181000000Y-123000000D03*
D18*
X189600000Y-129000000D03*
X191500000Y-129000000D03*
D19*
X162170000Y-118320000D03*
X164045000Y-118320000D03*
D20*
X182250000Y-131000000D03*
D21*
X183500000Y-131000000D03*
D14*
X206500000Y-113500000D03*
X206500000Y-114520000D03*
D22*
X188000000Y-107700000D03*
X188000000Y-108550000D03*
X188000000Y-109400000D03*
X188000000Y-110250000D03*
X188000000Y-111100000D03*
X188000000Y-111950000D03*
X188000000Y-112800000D03*
X188000000Y-113650000D03*
X188000000Y-114500000D03*
X188000000Y-115350000D03*
X188000000Y-116200000D03*
X188000000Y-117050000D03*
X188000000Y-117900000D03*
X188000000Y-118750000D03*
X188000000Y-119600000D03*
D23*
X189050000Y-120650000D03*
X189900000Y-120650000D03*
X190750000Y-120650000D03*
X191600000Y-120650000D03*
X192450000Y-120650000D03*
X193300000Y-120650000D03*
X194150000Y-120650000D03*
X195000000Y-120650000D03*
X195850000Y-120650000D03*
X196700000Y-120650000D03*
X197550000Y-120650000D03*
X198400000Y-120650000D03*
X199250000Y-120650000D03*
X200100000Y-120650000D03*
X200950000Y-120650000D03*
D22*
X202000000Y-119600000D03*
X202000000Y-118750000D03*
X202000000Y-117900000D03*
X202000000Y-117050000D03*
X202000000Y-116200000D03*
X202000000Y-115350000D03*
X202000000Y-114500000D03*
X202000000Y-113650000D03*
X202000000Y-112800000D03*
X202000000Y-111950000D03*
X202000000Y-111100000D03*
X202000000Y-110250000D03*
X202000000Y-109400000D03*
X202000000Y-108550000D03*
X202000000Y-107700000D03*
D23*
X200950000Y-106650000D03*
X200100000Y-106650000D03*
X199250000Y-106650000D03*
X198400000Y-106650000D03*
X197550000Y-106650000D03*
X196700000Y-106650000D03*
X195850000Y-106650000D03*
X195000000Y-106650000D03*
X194150000Y-106650000D03*
X193300000Y-106650000D03*
X192450000Y-106650000D03*
X191600000Y-106650000D03*
X190750000Y-106650000D03*
X189900000Y-106650000D03*
X189050000Y-106650000D03*
D24*
X193350000Y-112000000D03*
D25*
X193350000Y-113650000D03*
X193350000Y-115300000D03*
X195000000Y-112000000D03*
X195000000Y-113650000D03*
X195000000Y-115300000D03*
X196650000Y-112000000D03*
X196650000Y-113650000D03*
X196650000Y-115300000D03*
D26*
X188000000Y-106650000D03*
X188000000Y-120650000D03*
X202000000Y-120650000D03*
X202000000Y-106650000D03*
D14*
X172000000Y-114000000D03*
X172000000Y-115020000D03*
D20*
X194750000Y-131000000D03*
D21*
X196000000Y-131000000D03*
D27*
X206480000Y-125500000D03*
X207500000Y-125500000D03*
X181180000Y-117000000D03*
X182200000Y-117000000D03*
D16*
X182500000Y-119500000D03*
X182500000Y-120460000D03*
D10*
X202000000Y-129000000D03*
X200100000Y-129000000D03*
D27*
X194480000Y-122500000D03*
X195500000Y-122500000D03*
D28*
X174637500Y-127000000D03*
X174637500Y-128900000D03*
D27*
X171480000Y-132000000D03*
X172500000Y-132000000D03*
D29*
X204500000Y-114460000D03*
X204500000Y-113500000D03*
D30*
X199940000Y-123872500D03*
X199440000Y-123872500D03*
X198940000Y-123872500D03*
X198440000Y-123872500D03*
D31*
X197752500Y-124560000D03*
X197752500Y-125060000D03*
X197752500Y-125560000D03*
X197752500Y-126060000D03*
D30*
X198440000Y-126747500D03*
X198940000Y-126747500D03*
X199440000Y-126747500D03*
X199940000Y-126747500D03*
D31*
X200627500Y-126060000D03*
X200627500Y-125560000D03*
X200627500Y-125060000D03*
X200627500Y-124560000D03*
D32*
X199190000Y-125310000D03*
D13*
X206000000Y-121000000D03*
X204980000Y-121000000D03*
D17*
X177500000Y-123000000D03*
X176540000Y-123000000D03*
D33*
X168500000Y-130062500D03*
X168500000Y-131937500D03*
D34*
X199000000Y-131000000D03*
X199000000Y-131970000D03*
D35*
X178500000Y-126000000D03*
X178500000Y-124980000D03*
D36*
X206575000Y-107425000D03*
X206575000Y-111575000D03*
X204425000Y-107425000D03*
X204425000Y-111575000D03*
D15*
X186500000Y-124000000D03*
X187460000Y-124000000D03*
D37*
X181000000Y-120450000D03*
X181000000Y-118550000D03*
D14*
X176500000Y-116980000D03*
X176500000Y-118000000D03*
D19*
X204562500Y-123000000D03*
X206437500Y-123000000D03*
D13*
X162510000Y-128000000D03*
X161490000Y-128000000D03*
D27*
X171980000Y-112500000D03*
X173000000Y-112500000D03*
D15*
X181040000Y-108500000D03*
X182000000Y-108500000D03*
X173862500Y-120500000D03*
X174822500Y-120500000D03*
D34*
X191500000Y-131015000D03*
X191500000Y-131985000D03*
D38*
X172225000Y-117050000D03*
X172225000Y-118000000D03*
X172225000Y-118950000D03*
X174500000Y-118950000D03*
X174500000Y-117050000D03*
D39*
X167545000Y-122320000D03*
D40*
X167545000Y-124320000D03*
D17*
X196000000Y-127000000D03*
X195040000Y-127000000D03*
D41*
X180850000Y-125000000D03*
X180850000Y-125500000D03*
X180850000Y-126000000D03*
X180850000Y-126500000D03*
X180850000Y-127000000D03*
X185150000Y-127000000D03*
X185150000Y-126500000D03*
X185150000Y-126000000D03*
X185150000Y-125500000D03*
X185150000Y-125000000D03*
D29*
X177500000Y-115000000D03*
X177500000Y-114040000D03*
D10*
X192500000Y-124500000D03*
X190600000Y-124500000D03*
D27*
X171980000Y-107000000D03*
X173000000Y-107000000D03*
D42*
X169045000Y-108570000D03*
X169045000Y-109370000D03*
D43*
X169045000Y-110570000D03*
X169045000Y-111570000D03*
X169045000Y-112070000D03*
X169045000Y-113070000D03*
D42*
X169045000Y-114270000D03*
X169045000Y-115070000D03*
X169045000Y-115070000D03*
X169045000Y-114270000D03*
D43*
X169045000Y-113570000D03*
X169045000Y-112570000D03*
X169045000Y-111070000D03*
X169045000Y-110070000D03*
D42*
X169045000Y-109370000D03*
X169045000Y-108570000D03*
D44*
X168130000Y-107500000D03*
D45*
X163950000Y-107500000D03*
D44*
X168130000Y-116140000D03*
D45*
X163950000Y-116140000D03*
D36*
X206575000Y-127425000D03*
X206575000Y-131575000D03*
X204425000Y-127425000D03*
X204425000Y-131575000D03*
D46*
X166075000Y-132075000D03*
X161925000Y-132075000D03*
X166075000Y-129925000D03*
X161925000Y-129925000D03*
D38*
X172362500Y-109000000D03*
X172362500Y-109950000D03*
X172362500Y-110900000D03*
X174637500Y-110900000D03*
X174637500Y-109950000D03*
X174637500Y-109000000D03*
D28*
X172137500Y-127000000D03*
X172137500Y-128900000D03*
D38*
X172362500Y-123050000D03*
X172362500Y-124000000D03*
X172362500Y-124950000D03*
X174637500Y-124950000D03*
X174637500Y-123050000D03*
D47*
X173500000Y-114000000D03*
D48*
X179500000Y-114000000D03*
X172000000Y-130500000D03*
X205000000Y-116000000D03*
X171000000Y-110970000D03*
X202500000Y-127000000D03*
X185500000Y-121000000D03*
X174000000Y-112500000D03*
X163500000Y-110000000D03*
X182000000Y-122000000D03*
X176900000Y-119000000D03*
X206000000Y-133000000D03*
X162500000Y-133000000D03*
X175000000Y-130500000D03*
X167000000Y-128500000D03*
X177000000Y-111500000D03*
X183000000Y-108000000D03*
X177500000Y-124500000D03*
X185000000Y-116100000D03*
X182500000Y-118500000D03*
D47*
X179500000Y-110950000D03*
X186500000Y-113000000D03*
X186200000Y-119008132D03*
X186434314Y-114434314D03*
X200100000Y-118500000D03*
X176000000Y-116000000D03*
X189500000Y-110250000D03*
X166000000Y-133270000D03*
X178500000Y-122500000D03*
X189500000Y-114500000D03*
X176000000Y-107000000D03*
X194500000Y-118500000D03*
X196500000Y-118500000D03*
X176000000Y-113000000D03*
X202000000Y-122500000D03*
X195000000Y-123500000D03*
X172000000Y-116000000D03*
X169000000Y-127500000D03*
D49*
X171000000Y-123050000D02*
X171000000Y-125862500D01*
X171000000Y-123050000D02*
X169050000Y-123050000D01*
X171000000Y-117500000D02*
X171000000Y-118500000D01*
X171000000Y-125862500D02*
X172137500Y-127000000D01*
X171000000Y-117500000D02*
X171000000Y-114500000D01*
X168865000Y-118000000D02*
X170500000Y-118000000D01*
X167545000Y-122320000D02*
X168320000Y-122320000D01*
X171000000Y-118500000D02*
X171450000Y-118950000D01*
X171000000Y-114500000D02*
X171500000Y-114000000D01*
X171450000Y-118950000D02*
X172225000Y-118950000D01*
X170500000Y-118000000D02*
X171000000Y-117500000D01*
X172362500Y-123050000D02*
X171000000Y-123050000D01*
X172362500Y-124950000D02*
X171450000Y-125862500D01*
X168320000Y-122320000D02*
X169050000Y-123050000D01*
X172000000Y-114000000D02*
X173500000Y-114000000D01*
X171450000Y-125862500D02*
X171000000Y-125862500D01*
X168545000Y-118320000D02*
X168865000Y-118000000D01*
X171500000Y-114000000D02*
X172000000Y-114000000D01*
D50*
X171700001Y-109950000D02*
X171000000Y-110650001D01*
X172137500Y-130362500D02*
X172000000Y-130500000D01*
X206575000Y-132425000D02*
X206000000Y-133000000D01*
X171000000Y-110650001D02*
X171000000Y-110970000D01*
X204500000Y-115500000D02*
X205000000Y-116000000D01*
X182000000Y-121450000D02*
X182000000Y-122000000D01*
X166000000Y-128000000D02*
X166500000Y-128000000D01*
X177500000Y-112000000D02*
X177000000Y-111500000D01*
X174637500Y-128900000D02*
X174637500Y-130137500D01*
X172137500Y-128900000D02*
X172137500Y-130362500D01*
X176500000Y-118500000D02*
X177000000Y-119000000D01*
X181300000Y-113700000D02*
X179800000Y-113700000D01*
X185500000Y-122020000D02*
X185500000Y-121000000D01*
X206575000Y-131575000D02*
X206575000Y-132425000D01*
X163950000Y-109550000D02*
X163500000Y-110000000D01*
X182500000Y-108500000D02*
X183000000Y-108000000D01*
X174637500Y-130137500D02*
X175000000Y-130500000D01*
X163950000Y-107500000D02*
X163950000Y-109550000D01*
X172362500Y-109950000D02*
X171700001Y-109950000D01*
X202000000Y-127500000D02*
X202500000Y-127000000D01*
X181000000Y-120450000D02*
X182000000Y-121450000D01*
X162500000Y-132650000D02*
X162500000Y-133000000D01*
X176500000Y-118000000D02*
X176500000Y-118500000D01*
X177500000Y-114040000D02*
X177500000Y-112000000D01*
X177500000Y-123000000D02*
X177500000Y-124500000D01*
X177000000Y-119000000D02*
X176900000Y-119000000D01*
X179800000Y-113700000D02*
X179500000Y-114000000D01*
X202000000Y-129000000D02*
X202000000Y-127500000D01*
X182000000Y-108500000D02*
X182500000Y-108500000D01*
X161925000Y-132075000D02*
X162500000Y-132650000D01*
X166500000Y-128000000D02*
X167000000Y-128500000D01*
X204500000Y-114460000D02*
X204500000Y-115500000D01*
X173000000Y-112500000D02*
X174000000Y-112500000D01*
D51*
X178000000Y-127000000D02*
X178500000Y-126500000D01*
X186400000Y-109400000D02*
X188000000Y-109400000D01*
X184000000Y-110500000D02*
X184000000Y-108500000D01*
X178500000Y-108000000D02*
X180000000Y-106500000D01*
X179500000Y-108500000D02*
X178500000Y-109500000D01*
X185500000Y-124650000D02*
X185150000Y-125000000D01*
X174637500Y-123050000D02*
X175550000Y-123050000D01*
X206500000Y-119500000D02*
X207500000Y-120500000D01*
X190500000Y-133500000D02*
X189580000Y-132580000D01*
X185769999Y-117000000D02*
X187000000Y-118230001D01*
X177500000Y-132500000D02*
X178500000Y-131500000D01*
X172500000Y-132000000D02*
X173000000Y-132500000D01*
X178500000Y-117500000D02*
X178500000Y-119000000D01*
X181180000Y-117000000D02*
X179000000Y-117000000D01*
X196812500Y-127000000D02*
X197752500Y-126060000D01*
X174637500Y-127000000D02*
X173637500Y-128000000D01*
X173637500Y-128000000D02*
X170631371Y-128000000D01*
X176500000Y-126500000D02*
X176000000Y-127000000D01*
X179000000Y-117000000D02*
X178500000Y-117500000D01*
X186150000Y-124000000D02*
X185150000Y-125000000D01*
X181300000Y-111200000D02*
X180771880Y-111200000D01*
X186500000Y-124000000D02*
X186500000Y-123500000D01*
X178500000Y-121000000D02*
X178000000Y-121500000D01*
X196560000Y-125560000D02*
X197752500Y-125560000D01*
X178500000Y-126500000D02*
X178500000Y-126000000D01*
D50*
X185000000Y-116500000D02*
X185500000Y-117000000D01*
D51*
X183500000Y-106500000D02*
X184000000Y-107000000D01*
X174637500Y-109950000D02*
X178050000Y-109950000D01*
X169231371Y-126600000D02*
X162890000Y-126600000D01*
X187000000Y-118230001D02*
X187000000Y-121500000D01*
X181500000Y-118550000D02*
X181450000Y-118500000D01*
X162890000Y-126600000D02*
X161490000Y-128000000D01*
X184000000Y-107000000D02*
X184000000Y-110500000D01*
X196000000Y-127000000D02*
X196812500Y-127000000D01*
X181000000Y-118550000D02*
X178950000Y-118550000D01*
X175550000Y-123050000D02*
X176500000Y-124000000D01*
X187500000Y-122500000D02*
X193000000Y-122500000D01*
X195500000Y-124500000D02*
X196560000Y-125560000D01*
X207500000Y-127950000D02*
X205425000Y-130025000D01*
X187000000Y-121500000D02*
X187000000Y-122000000D01*
X187000000Y-122000000D02*
X186020000Y-122980000D01*
X192500000Y-124500000D02*
X192500000Y-123000000D01*
X186500000Y-123500000D02*
X187500000Y-122500000D01*
X188000000Y-131000000D02*
X188000000Y-128045128D01*
X174637500Y-127000000D02*
X176000000Y-127000000D01*
X181550000Y-118550000D02*
X182500000Y-119500000D01*
X176500000Y-124000000D02*
X176500000Y-126500000D01*
X200500000Y-133500000D02*
X190500000Y-133500000D01*
X180525000Y-111446880D02*
X180525000Y-111946880D01*
X178000000Y-121500000D02*
X177000000Y-121500000D01*
X207500000Y-120500000D02*
X207500000Y-125500000D01*
X180525000Y-111953120D02*
X180525000Y-112453120D01*
X180000000Y-106500000D02*
X183500000Y-106500000D01*
D50*
X185000000Y-116100000D02*
X185000000Y-116500000D01*
D51*
X179500000Y-108500000D02*
X181040000Y-108500000D01*
X170631371Y-128000000D02*
X169231371Y-126600000D01*
X178500000Y-131500000D02*
X178500000Y-126500000D01*
X203975000Y-130025000D02*
X200500000Y-133500000D01*
X178500000Y-113000000D02*
X178500000Y-117500000D01*
X176540000Y-123000000D02*
X176540000Y-123960000D01*
X176540000Y-121960000D02*
X176540000Y-123000000D01*
X206500000Y-114520000D02*
X206500000Y-119500000D01*
X178500000Y-119000000D02*
X178500000Y-121000000D01*
X178500000Y-109500000D02*
X178500000Y-108000000D01*
X177000000Y-121500000D02*
X176540000Y-121960000D01*
X178950000Y-118550000D02*
X178500000Y-119000000D01*
X189580000Y-132580000D02*
X188000000Y-131000000D01*
X180000000Y-113000000D02*
X178500000Y-113000000D01*
X189985128Y-126060000D02*
X197752500Y-126060000D01*
X180535940Y-112464060D02*
X180000000Y-113000000D01*
X205425000Y-130025000D02*
X203975000Y-130025000D01*
X181000000Y-118550000D02*
X181550000Y-118550000D01*
X186500000Y-124000000D02*
X186150000Y-124000000D01*
X184000000Y-108500000D02*
X185500000Y-108500000D01*
X180525000Y-112453120D02*
X180535940Y-112464060D01*
X188000000Y-128045128D02*
X189985128Y-126060000D01*
X180525000Y-111946880D02*
X180525000Y-111953120D01*
X178050000Y-109950000D02*
X178500000Y-109500000D01*
X186020000Y-122980000D02*
X185500000Y-122980000D01*
X207500000Y-125500000D02*
X207500000Y-127950000D01*
X185500000Y-108500000D02*
X186400000Y-109400000D01*
X178500000Y-109500000D02*
X178500000Y-113000000D01*
X173000000Y-132500000D02*
X177500000Y-132500000D01*
X185500000Y-117000000D02*
X185769999Y-117000000D01*
X180771880Y-111200000D02*
X180525000Y-111446880D01*
X181040000Y-108500000D02*
X181000000Y-108460000D01*
X176540000Y-123960000D02*
X176500000Y-124000000D01*
X193000000Y-122500000D02*
X194480000Y-122500000D01*
X185500000Y-122980000D02*
X185500000Y-124650000D01*
X192500000Y-124500000D02*
X195500000Y-124500000D01*
X192500000Y-123000000D02*
X193000000Y-122500000D01*
X176000000Y-127000000D02*
X178000000Y-127000000D01*
D50*
X182500000Y-119500000D02*
X182500000Y-118500000D01*
D51*
X197752500Y-125560000D02*
X197752500Y-126060000D01*
D50*
X188000000Y-113650000D02*
X187150000Y-113650000D01*
X179550000Y-110950000D02*
X180000000Y-110500000D01*
X187150000Y-113650000D02*
X186500000Y-113000000D01*
X180000000Y-110500000D02*
X182000000Y-110500000D01*
X179500000Y-110950000D02*
X179550000Y-110950000D01*
X185400000Y-115500000D02*
X187800000Y-117900000D01*
X184434314Y-115500000D02*
X183000000Y-115500000D01*
X184000000Y-115065686D02*
X184434314Y-115500000D01*
X181607409Y-125500000D02*
X183500000Y-123607409D01*
X183000000Y-115500000D02*
X182200000Y-116300000D01*
X180850000Y-125500000D02*
X181607409Y-125500000D01*
X184434314Y-115500000D02*
X185400000Y-115500000D01*
X187800000Y-117900000D02*
X188000000Y-117900000D01*
X184000000Y-114400000D02*
X184000000Y-115065686D01*
X183500000Y-116000000D02*
X183000000Y-115500000D01*
X183500000Y-123607409D02*
X183500000Y-116000000D01*
X182200000Y-116300000D02*
X182200000Y-117000000D01*
X185181076Y-117620000D02*
X184930000Y-117368924D01*
X181673095Y-126000000D02*
X184000000Y-123673095D01*
X186434314Y-114434314D02*
X186400000Y-114400000D01*
X184000000Y-117480000D02*
X184480000Y-117000000D01*
X186200000Y-118100000D02*
X185720000Y-117620000D01*
X184000000Y-123673095D02*
X184000000Y-117480000D01*
X186400000Y-114400000D02*
X184500000Y-114400000D01*
X180850000Y-126000000D02*
X181673095Y-126000000D01*
X185150000Y-114400000D02*
X184500000Y-114400000D01*
X187800000Y-117050000D02*
X188000000Y-117050000D01*
X185720000Y-117620000D02*
X185181076Y-117620000D01*
X184930000Y-117000000D02*
X184480000Y-117000000D01*
X186200000Y-119008132D02*
X186200000Y-118100000D01*
X185150000Y-114400000D02*
X187800000Y-117050000D01*
X184930000Y-117368924D02*
X184930000Y-117000000D01*
X200100000Y-118500000D02*
X200100000Y-120650000D01*
X172000000Y-115020000D02*
X175000000Y-115020000D01*
X177480000Y-115020000D02*
X177500000Y-115000000D01*
X176500000Y-116000000D02*
X177500000Y-115000000D01*
X200100000Y-120650000D02*
X200100000Y-120600000D01*
X175000000Y-115020000D02*
X177480000Y-115020000D01*
X200100000Y-120600000D02*
X200000000Y-120500000D01*
X176000000Y-116000000D02*
X176500000Y-116000000D01*
X206425000Y-127425000D02*
X206000000Y-127000000D01*
X203500000Y-120900000D02*
X203500000Y-124000000D01*
X205000000Y-125500000D02*
X206480000Y-125500000D01*
X204500000Y-124500000D02*
X205000000Y-125000000D01*
X203500000Y-124000000D02*
X204000000Y-124500000D01*
X206575000Y-127425000D02*
X206425000Y-127425000D01*
X204000000Y-124500000D02*
X204500000Y-124500000D01*
X206000000Y-125980000D02*
X206480000Y-125500000D01*
X202000000Y-119600000D02*
X202200000Y-119600000D01*
X205000000Y-125000000D02*
X205000000Y-125500000D01*
X206000000Y-127000000D02*
X206000000Y-125980000D01*
X202200000Y-119600000D02*
X203500000Y-120900000D01*
X165150000Y-132500000D02*
X163500000Y-132500000D01*
X163000000Y-132000000D02*
X163000000Y-128490000D01*
X166075000Y-132075000D02*
X165575000Y-132075000D01*
X166000000Y-133270000D02*
X164270000Y-133270000D01*
X164270000Y-133270000D02*
X163500000Y-132500000D01*
X162510000Y-128000000D02*
X165040000Y-128000000D01*
X165575000Y-132075000D02*
X165150000Y-132500000D01*
X163000000Y-128490000D02*
X162510000Y-128000000D01*
X163500000Y-132500000D02*
X163000000Y-132000000D01*
X189500000Y-110250000D02*
X188000000Y-110250000D01*
X180850000Y-125000000D02*
X180040000Y-124190000D01*
X180040000Y-124190000D02*
X180040000Y-123000000D01*
D51*
X190500000Y-130000000D02*
X191500000Y-129000000D01*
X193765000Y-131985000D02*
X194750000Y-131000000D01*
X191500000Y-131985000D02*
X190985000Y-131985000D01*
X191500000Y-131985000D02*
X193765000Y-131985000D01*
X190985000Y-131985000D02*
X190500000Y-131500000D01*
X190500000Y-131500000D02*
X190500000Y-130000000D01*
D49*
X167500000Y-111150484D02*
X167500000Y-112207106D01*
X162170000Y-115330000D02*
X162170000Y-118320000D01*
X168256016Y-109370000D02*
X167921016Y-109705000D01*
X166349516Y-111150484D02*
X162170000Y-115330000D01*
X167500000Y-111150484D02*
X166349516Y-111150484D01*
X167920000Y-110730483D02*
X167500000Y-111150484D01*
X167920000Y-113843830D02*
X168196170Y-114120000D01*
X168895000Y-114120000D02*
X169045000Y-114270000D01*
X167921016Y-109705000D02*
X167921016Y-109795154D01*
X168196170Y-114120000D02*
X168895000Y-114120000D01*
X167862893Y-112570000D02*
X167920000Y-112570000D01*
X167920000Y-109796170D02*
X167920000Y-110730483D01*
X169045000Y-109370000D02*
X168256016Y-109370000D01*
X167921016Y-109795154D02*
X167920000Y-109796170D01*
X167500000Y-112207106D02*
X167862893Y-112570000D01*
X167920000Y-112570000D02*
X167920000Y-113843830D01*
X165500000Y-121000000D02*
X171500000Y-121000000D01*
X176000000Y-119500000D02*
X176000000Y-120000000D01*
X175500000Y-121500000D02*
X176000000Y-121000000D01*
X174500000Y-118950000D02*
X175450000Y-118950000D01*
X175450000Y-118950000D02*
X176000000Y-119500000D01*
X164045000Y-118320000D02*
X164045000Y-119545000D01*
X171500000Y-121000000D02*
X172000000Y-121500000D01*
X176000000Y-121000000D02*
X176000000Y-120000000D01*
X172000000Y-121500000D02*
X175500000Y-121500000D01*
X176000000Y-120000000D02*
X175500000Y-120500000D01*
X175500000Y-120500000D02*
X174822500Y-120500000D01*
X164045000Y-119545000D02*
X165500000Y-121000000D01*
D51*
X183000000Y-126500000D02*
X185150000Y-126500000D01*
X182250000Y-127250000D02*
X183000000Y-126500000D01*
X182250000Y-131000000D02*
X182250000Y-127250000D01*
X183500000Y-131000000D02*
X186500000Y-131000000D01*
X187000000Y-126000000D02*
X186500000Y-125500000D01*
X186500000Y-131000000D02*
X187000000Y-130500000D01*
X186500000Y-125500000D02*
X185150000Y-125500000D01*
X187000000Y-130500000D02*
X187000000Y-126000000D01*
D50*
X203500000Y-113000000D02*
X203500000Y-108000000D01*
X204500000Y-113500000D02*
X206500000Y-113500000D01*
X203500000Y-108000000D02*
X203200000Y-107700000D01*
X203750000Y-108250000D02*
X203500000Y-108000000D01*
X204000000Y-113500000D02*
X203500000Y-113000000D01*
X204500000Y-113500000D02*
X204000000Y-113500000D01*
X203200000Y-107700000D02*
X202000000Y-107700000D01*
X205750000Y-108250000D02*
X203750000Y-108250000D01*
X206575000Y-107425000D02*
X205750000Y-108250000D01*
X178500000Y-124980000D02*
X178500000Y-122500000D01*
X189500000Y-114500000D02*
X188000000Y-114500000D01*
X178980000Y-124980000D02*
X179500000Y-125500000D01*
X180000000Y-127000000D02*
X180850000Y-127000000D01*
X179500000Y-126500000D02*
X180000000Y-127000000D01*
X179500000Y-125500000D02*
X179500000Y-126500000D01*
X178500000Y-124980000D02*
X178980000Y-124980000D01*
X172000000Y-109000000D02*
X172362500Y-109000000D01*
X175000000Y-107000000D02*
X174637500Y-107362500D01*
X168287590Y-111070000D02*
X168000000Y-111357590D01*
X168000000Y-112000000D02*
X168070000Y-112070000D01*
X174637500Y-107362500D02*
X174637500Y-109000000D01*
X172362500Y-109000000D02*
X174637500Y-109000000D01*
X194500000Y-119000000D02*
X195000000Y-119500000D01*
X195000000Y-119500000D02*
X195000000Y-120650000D01*
X168070000Y-112070000D02*
X169045000Y-112070000D01*
X194500000Y-118500000D02*
X194500000Y-119000000D01*
X169045000Y-111070000D02*
X168287590Y-111070000D01*
X169930000Y-111070000D02*
X172000000Y-109000000D01*
X176000000Y-107000000D02*
X175000000Y-107000000D01*
X168000000Y-111357590D02*
X168000000Y-112000000D01*
X169045000Y-111070000D02*
X169930000Y-111070000D01*
X169045000Y-111570000D02*
X169802410Y-111570000D01*
X196500000Y-119000000D02*
X195850000Y-119650000D01*
X171692500Y-111570000D02*
X172362500Y-110900000D01*
X196500000Y-118500000D02*
X196500000Y-119000000D01*
X175000000Y-111262500D02*
X174637500Y-110900000D01*
X169045000Y-111570000D02*
X171692500Y-111570000D01*
X175000000Y-112500000D02*
X175000000Y-111262500D01*
X169802410Y-112570000D02*
X169045000Y-112570000D01*
X172362500Y-110900000D02*
X174637500Y-110900000D01*
X195850000Y-119650000D02*
X195850000Y-120650000D01*
X170070000Y-111837590D02*
X170070000Y-112302410D01*
X169802410Y-111570000D02*
X170070000Y-111837590D01*
X175500000Y-113000000D02*
X175000000Y-112500000D01*
X176000000Y-113000000D02*
X175500000Y-113000000D01*
X170070000Y-112302410D02*
X169802410Y-112570000D01*
X199940000Y-123440000D02*
X199500000Y-123000000D01*
X199940000Y-123872500D02*
X199940000Y-123440000D01*
X197500000Y-123000000D02*
X196700000Y-122200000D01*
X199500000Y-123000000D02*
X197500000Y-123000000D01*
X196700000Y-122200000D02*
X196700000Y-120650000D01*
X197550000Y-122050000D02*
X198000000Y-122500000D01*
X198000000Y-122500000D02*
X200000000Y-122500000D01*
X197550000Y-120650000D02*
X197550000Y-122050000D01*
X200627500Y-123127500D02*
X200627500Y-124560000D01*
X200000000Y-122500000D02*
X200627500Y-123127500D01*
X201054386Y-125560000D02*
X201340000Y-125274386D01*
X199500000Y-122000000D02*
X199250000Y-121750000D01*
X200250000Y-122000000D02*
X199500000Y-122000000D01*
X201340000Y-125274386D02*
X201340000Y-123090000D01*
X199250000Y-121750000D02*
X199250000Y-120650000D01*
X201340000Y-123090000D02*
X200250000Y-122000000D01*
X200627500Y-125560000D02*
X201054386Y-125560000D01*
X202000000Y-122500000D02*
X201500000Y-122500000D01*
X201500000Y-122500000D02*
X200950000Y-121950000D01*
X195500000Y-122500000D02*
X196500000Y-123500000D01*
X196500000Y-123500000D02*
X198067500Y-123500000D01*
X200950000Y-121950000D02*
X200950000Y-120650000D01*
X198067500Y-123500000D02*
X198440000Y-123872500D01*
X195000000Y-123500000D02*
X196500000Y-123500000D01*
X204980000Y-121000000D02*
X204980000Y-120480000D01*
X203500000Y-119000000D02*
X203500000Y-113565686D01*
X203100000Y-113165685D02*
X203100000Y-109100000D01*
X202550000Y-108550000D02*
X202000000Y-108550000D01*
X204980000Y-120480000D02*
X203500000Y-119000000D01*
X203500000Y-113565686D02*
X203100000Y-113165685D01*
X203100000Y-109100000D02*
X202550000Y-108550000D01*
D51*
X196530000Y-131970000D02*
X196500000Y-132000000D01*
X199000000Y-131970000D02*
X199530000Y-131970000D01*
X196500000Y-132000000D02*
X196000000Y-131500000D01*
X200100000Y-131400000D02*
X200100000Y-129000000D01*
X199000000Y-131970000D02*
X196530000Y-131970000D01*
X199530000Y-131970000D02*
X200100000Y-131400000D01*
X196000000Y-131500000D02*
X196000000Y-131000000D01*
D50*
X168500000Y-131937500D02*
X169000000Y-132437500D01*
X171000000Y-132480000D02*
X171480000Y-132000000D01*
X169000000Y-132500000D02*
X171000000Y-132500000D01*
X169000000Y-132437500D02*
X169000000Y-132500000D01*
X171000000Y-132500000D02*
X171000000Y-132480000D01*
D51*
X191500000Y-131015000D02*
X191500000Y-131000000D01*
X198440000Y-126747500D02*
X197187500Y-128000000D01*
X194515000Y-128000000D02*
X191500000Y-131015000D01*
X197187500Y-128000000D02*
X194515000Y-128000000D01*
X198940000Y-126954606D02*
X198915000Y-126979606D01*
X198940000Y-126747500D02*
X198940000Y-126954606D01*
X198915000Y-127270096D02*
X198000000Y-128185096D01*
X198915000Y-126979606D02*
X198915000Y-127270096D01*
X198000000Y-128185096D02*
X198000000Y-130000000D01*
X198000000Y-130000000D02*
X199000000Y-131000000D01*
D50*
X206437500Y-123000000D02*
X206437500Y-121437500D01*
X206437500Y-121437500D02*
X206000000Y-121000000D01*
X172000000Y-116825000D02*
X172225000Y-117050000D01*
X169000000Y-129562500D02*
X168500000Y-130062500D01*
X172000000Y-116000000D02*
X172000000Y-116825000D01*
X169000000Y-127500000D02*
X169000000Y-129562500D01*
X174500000Y-117050000D02*
X176430000Y-117050000D01*
X176430000Y-117050000D02*
X176500000Y-116980000D01*
X170910000Y-113570000D02*
X171980000Y-112500000D01*
X169045000Y-113570000D02*
X170910000Y-113570000D01*
X170070000Y-108910000D02*
X170070000Y-110302410D01*
X170070000Y-110302410D02*
X169802410Y-110570000D01*
X171980000Y-107000000D02*
X170070000Y-108910000D01*
X169802410Y-110570000D02*
X169045000Y-110570000D01*
G04 #@! TA.AperFunction,Conductor*
G36*
X161224593Y-130348511D02*
G01*
X161226808Y-130351690D01*
X161255448Y-130394552D01*
X161321769Y-130438867D01*
X161366231Y-130447711D01*
X161380241Y-130450498D01*
X161380246Y-130450498D01*
X161380252Y-130450500D01*
X161380253Y-130450500D01*
X162469747Y-130450500D01*
X162469748Y-130450500D01*
X162528231Y-130438867D01*
X162545499Y-130427328D01*
X162604385Y-130410720D01*
X162661789Y-130431897D01*
X162695783Y-130482770D01*
X162699500Y-130509644D01*
X162699500Y-132039564D01*
X162719978Y-132115987D01*
X162738622Y-132148281D01*
X162739920Y-132150528D01*
X162759540Y-132184511D01*
X163030673Y-132455644D01*
X163259540Y-132684511D01*
X164029540Y-133454511D01*
X164029539Y-133454511D01*
X164075525Y-133500496D01*
X164103303Y-133555012D01*
X164093732Y-133615444D01*
X164050468Y-133658709D01*
X164005522Y-133669500D01*
X161144500Y-133669500D01*
X161086309Y-133650593D01*
X161050345Y-133601093D01*
X161045500Y-133570500D01*
X161045500Y-130406702D01*
X161064407Y-130348511D01*
X161113907Y-130312547D01*
X161175093Y-130312547D01*
X161224593Y-130348511D01*
G37*
G04 #@! TD.AperFunction*
G04 #@! TA.AperFunction,Conductor*
G36*
X192108691Y-122869407D02*
G01*
X192144655Y-122918907D01*
X192149500Y-122949500D01*
X192149500Y-123512638D01*
X192130593Y-123570829D01*
X192083198Y-123606082D01*
X192037120Y-123622205D01*
X192037114Y-123622208D01*
X191927855Y-123702845D01*
X191927845Y-123702855D01*
X191847207Y-123812116D01*
X191802355Y-123940296D01*
X191802353Y-123940305D01*
X191799500Y-123970725D01*
X191799500Y-125029274D01*
X191802353Y-125059694D01*
X191802355Y-125059703D01*
X191847207Y-125187883D01*
X191927845Y-125297144D01*
X191927847Y-125297146D01*
X191927850Y-125297150D01*
X191927853Y-125297152D01*
X191927855Y-125297154D01*
X192037116Y-125377792D01*
X192037117Y-125377792D01*
X192037118Y-125377793D01*
X192165301Y-125422646D01*
X192195725Y-125425499D01*
X192195727Y-125425500D01*
X192195734Y-125425500D01*
X192804273Y-125425500D01*
X192804273Y-125425499D01*
X192834699Y-125422646D01*
X192962882Y-125377793D01*
X193072150Y-125297150D01*
X193152793Y-125187882D01*
X193197646Y-125059699D01*
X193200499Y-125029273D01*
X193200500Y-125029273D01*
X193200500Y-124949500D01*
X193219407Y-124891309D01*
X193268907Y-124855345D01*
X193299500Y-124850500D01*
X195313810Y-124850500D01*
X195372001Y-124869407D01*
X195383814Y-124879496D01*
X195780002Y-125275684D01*
X196044815Y-125540496D01*
X196072592Y-125595013D01*
X196063021Y-125655445D01*
X196019756Y-125698710D01*
X195974811Y-125709500D01*
X189938984Y-125709500D01*
X189849840Y-125733386D01*
X189769916Y-125779530D01*
X187719529Y-127829917D01*
X187688297Y-127884013D01*
X187688296Y-127884012D01*
X187673387Y-127909835D01*
X187673386Y-127909840D01*
X187649500Y-127998984D01*
X187649500Y-131046144D01*
X187669164Y-131119530D01*
X187673386Y-131135288D01*
X187719530Y-131215212D01*
X189299528Y-132795209D01*
X189299530Y-132795212D01*
X189652599Y-133148281D01*
X190004814Y-133500496D01*
X190032591Y-133555013D01*
X190023020Y-133615445D01*
X189979755Y-133658710D01*
X189934810Y-133669500D01*
X166634219Y-133669500D01*
X166576028Y-133650593D01*
X166540064Y-133601093D01*
X166540064Y-133539907D01*
X166548479Y-133521005D01*
X166559577Y-133501784D01*
X166600500Y-133349057D01*
X166600500Y-133190943D01*
X166559577Y-133038216D01*
X166480520Y-132901284D01*
X166368716Y-132789480D01*
X166361365Y-132785235D01*
X166320425Y-132739768D01*
X166314028Y-132678918D01*
X166344620Y-132625930D01*
X166400515Y-132601042D01*
X166410865Y-132600500D01*
X166619747Y-132600500D01*
X166619748Y-132600500D01*
X166678231Y-132588867D01*
X166744552Y-132544552D01*
X166788867Y-132478231D01*
X166800500Y-132419748D01*
X166800500Y-131730252D01*
X166788867Y-131671769D01*
X166744552Y-131605448D01*
X166744548Y-131605445D01*
X166678233Y-131561134D01*
X166678231Y-131561133D01*
X166678228Y-131561132D01*
X166678227Y-131561132D01*
X166619758Y-131549501D01*
X166619748Y-131549500D01*
X165530252Y-131549500D01*
X165530251Y-131549500D01*
X165530241Y-131549501D01*
X165471772Y-131561132D01*
X165471766Y-131561134D01*
X165405451Y-131605445D01*
X165405445Y-131605451D01*
X165361134Y-131671766D01*
X165361132Y-131671772D01*
X165349501Y-131730241D01*
X165349500Y-131730253D01*
X165349500Y-131834521D01*
X165330593Y-131892712D01*
X165320504Y-131904525D01*
X165054525Y-132170504D01*
X165000008Y-132198281D01*
X164984521Y-132199500D01*
X163665479Y-132199500D01*
X163607288Y-132180593D01*
X163595475Y-132170504D01*
X163329496Y-131904525D01*
X163301719Y-131850008D01*
X163300500Y-131834521D01*
X163300500Y-129580253D01*
X165349500Y-129580253D01*
X165349500Y-130269746D01*
X165349501Y-130269758D01*
X165361132Y-130328227D01*
X165361134Y-130328233D01*
X165393532Y-130376719D01*
X165405448Y-130394552D01*
X165471769Y-130438867D01*
X165516231Y-130447711D01*
X165530241Y-130450498D01*
X165530246Y-130450498D01*
X165530252Y-130450500D01*
X165530253Y-130450500D01*
X166619747Y-130450500D01*
X166619748Y-130450500D01*
X166678231Y-130438867D01*
X166744552Y-130394552D01*
X166788867Y-130328231D01*
X166800500Y-130269748D01*
X166800500Y-129580252D01*
X166788867Y-129521769D01*
X166777385Y-129504586D01*
X166744554Y-129455451D01*
X166744552Y-129455448D01*
X166744548Y-129455445D01*
X166678233Y-129411134D01*
X166678231Y-129411133D01*
X166678228Y-129411132D01*
X166678227Y-129411132D01*
X166619758Y-129399501D01*
X166619748Y-129399500D01*
X165530252Y-129399500D01*
X165530251Y-129399500D01*
X165530241Y-129399501D01*
X165471772Y-129411132D01*
X165471766Y-129411134D01*
X165405451Y-129455445D01*
X165405445Y-129455451D01*
X165361134Y-129521766D01*
X165361132Y-129521772D01*
X165349501Y-129580241D01*
X165349500Y-129580253D01*
X163300500Y-129580253D01*
X163300500Y-128450440D01*
X163300500Y-128450438D01*
X163297784Y-128440301D01*
X163293717Y-128425122D01*
X163296920Y-128364020D01*
X163335426Y-128316471D01*
X163389344Y-128300500D01*
X164522083Y-128300500D01*
X164580274Y-128319407D01*
X164611806Y-128357659D01*
X164616776Y-128368316D01*
X164701684Y-128453224D01*
X164810513Y-128503972D01*
X164860099Y-128510500D01*
X165219900Y-128510499D01*
X165269487Y-128503972D01*
X165269488Y-128503972D01*
X165355067Y-128464065D01*
X165378316Y-128453224D01*
X165463224Y-128368316D01*
X165513972Y-128259487D01*
X165520500Y-128209901D01*
X165520499Y-127790100D01*
X165513972Y-127740513D01*
X165513972Y-127740511D01*
X165463225Y-127631686D01*
X165463224Y-127631685D01*
X165463224Y-127631684D01*
X165378316Y-127546776D01*
X165378314Y-127546775D01*
X165378313Y-127546774D01*
X165269489Y-127496029D01*
X165269488Y-127496028D01*
X165252958Y-127493852D01*
X165219901Y-127489500D01*
X165219899Y-127489500D01*
X164860104Y-127489500D01*
X164860092Y-127489501D01*
X164810513Y-127496027D01*
X164810511Y-127496027D01*
X164701686Y-127546774D01*
X164616776Y-127631684D01*
X164611808Y-127642339D01*
X164570079Y-127687087D01*
X164522083Y-127699500D01*
X163024395Y-127699500D01*
X162966204Y-127680593D01*
X162934671Y-127642340D01*
X162924066Y-127619598D01*
X162924065Y-127619597D01*
X162924065Y-127619596D01*
X162840404Y-127535935D01*
X162840402Y-127535934D01*
X162840401Y-127535933D01*
X162733175Y-127485932D01*
X162730081Y-127485524D01*
X162725937Y-127484979D01*
X162670714Y-127458638D01*
X162641520Y-127404867D01*
X162649507Y-127344205D01*
X162668859Y-127316823D01*
X163006187Y-126979496D01*
X163060703Y-126951719D01*
X163076190Y-126950500D01*
X168461257Y-126950500D01*
X168519448Y-126969407D01*
X168555412Y-127018907D01*
X168555412Y-127080093D01*
X168531262Y-127119501D01*
X168519480Y-127131284D01*
X168440423Y-127268216D01*
X168399500Y-127420943D01*
X168399500Y-127579057D01*
X168440423Y-127731784D01*
X168519480Y-127868716D01*
X168631284Y-127980520D01*
X168650000Y-127991325D01*
X168690940Y-128036792D01*
X168699500Y-128077061D01*
X168699500Y-129275500D01*
X168680593Y-129333691D01*
X168631093Y-129369655D01*
X168600500Y-129374500D01*
X167990226Y-129374500D01*
X167960231Y-129377313D01*
X167960222Y-129377315D01*
X167833824Y-129421543D01*
X167833821Y-129421544D01*
X167833821Y-129421545D01*
X167816254Y-129434510D01*
X167726071Y-129501069D01*
X167726069Y-129501071D01*
X167723475Y-129504586D01*
X167667630Y-129580253D01*
X167646543Y-129608824D01*
X167602315Y-129735222D01*
X167602313Y-129735231D01*
X167599500Y-129765226D01*
X167599500Y-130359773D01*
X167602313Y-130389768D01*
X167602315Y-130389777D01*
X167646543Y-130516175D01*
X167646544Y-130516176D01*
X167646545Y-130516179D01*
X167726070Y-130623930D01*
X167833821Y-130703455D01*
X167960226Y-130747686D01*
X167990226Y-130750499D01*
X167990230Y-130750500D01*
X167990236Y-130750500D01*
X169009770Y-130750500D01*
X169009772Y-130750499D01*
X169039774Y-130747686D01*
X169166179Y-130703455D01*
X169273930Y-130623930D01*
X169353455Y-130516179D01*
X169397686Y-130389774D01*
X169400499Y-130359772D01*
X169400500Y-130359770D01*
X169400500Y-129765230D01*
X169400499Y-129765226D01*
X169397686Y-129735231D01*
X169397686Y-129735226D01*
X169353455Y-129608821D01*
X169319844Y-129563280D01*
X169300503Y-129505234D01*
X169300500Y-129504493D01*
X169300500Y-128077061D01*
X169319407Y-128018870D01*
X169349997Y-127991326D01*
X169368716Y-127980520D01*
X169480520Y-127868716D01*
X169559577Y-127731784D01*
X169580263Y-127654581D01*
X169613584Y-127603270D01*
X169670705Y-127581343D01*
X169729806Y-127597178D01*
X169745892Y-127610203D01*
X170416159Y-128280470D01*
X170494323Y-128325598D01*
X170496083Y-128326614D01*
X170585227Y-128350500D01*
X170585229Y-128350500D01*
X173683642Y-128350500D01*
X173683644Y-128350500D01*
X173772788Y-128326614D01*
X173774548Y-128325598D01*
X173852712Y-128280470D01*
X174403686Y-127729496D01*
X174458203Y-127701719D01*
X174473690Y-127700500D01*
X175166773Y-127700500D01*
X175166773Y-127700499D01*
X175197199Y-127697646D01*
X175325382Y-127652793D01*
X175434650Y-127572150D01*
X175495648Y-127489500D01*
X175515291Y-127462885D01*
X175515292Y-127462883D01*
X175515293Y-127462882D01*
X175531417Y-127416801D01*
X175568482Y-127368122D01*
X175624861Y-127350500D01*
X178050500Y-127350500D01*
X178108691Y-127369407D01*
X178144655Y-127418907D01*
X178149500Y-127449500D01*
X178149500Y-131313810D01*
X178130593Y-131372001D01*
X178120504Y-131383814D01*
X177383814Y-132120504D01*
X177329297Y-132148281D01*
X177313810Y-132149500D01*
X173186190Y-132149500D01*
X173178592Y-132147031D01*
X173170703Y-132148281D01*
X173150047Y-132137756D01*
X173127999Y-132130593D01*
X173116186Y-132120504D01*
X172999496Y-132003814D01*
X172971719Y-131949297D01*
X172970500Y-131933810D01*
X172970500Y-131775685D01*
X172970500Y-131775684D01*
X172964068Y-131726827D01*
X172958651Y-131715211D01*
X172914066Y-131619598D01*
X172914065Y-131619597D01*
X172914065Y-131619596D01*
X172830404Y-131535935D01*
X172830402Y-131535934D01*
X172830401Y-131535933D01*
X172723175Y-131485932D01*
X172689645Y-131481518D01*
X172674316Y-131479500D01*
X172325684Y-131479500D01*
X172310355Y-131481518D01*
X172276825Y-131485932D01*
X172276824Y-131485932D01*
X172169598Y-131535933D01*
X172085933Y-131619598D01*
X172079724Y-131632915D01*
X172037995Y-131677663D01*
X171977934Y-131689337D01*
X171922482Y-131663478D01*
X171900276Y-131632915D01*
X171894066Y-131619598D01*
X171894065Y-131619597D01*
X171894065Y-131619596D01*
X171810404Y-131535935D01*
X171810402Y-131535934D01*
X171810401Y-131535933D01*
X171703175Y-131485932D01*
X171669645Y-131481518D01*
X171654316Y-131479500D01*
X171305684Y-131479500D01*
X171290355Y-131481518D01*
X171256825Y-131485932D01*
X171256824Y-131485932D01*
X171149598Y-131535933D01*
X171065933Y-131619598D01*
X171015932Y-131726824D01*
X171015932Y-131726825D01*
X171009500Y-131775685D01*
X171009500Y-132004521D01*
X171007031Y-132012118D01*
X171008281Y-132020008D01*
X170997756Y-132040663D01*
X170990593Y-132062712D01*
X170980504Y-132074525D01*
X170884525Y-132170504D01*
X170830008Y-132198281D01*
X170814521Y-132199500D01*
X169499500Y-132199500D01*
X169441309Y-132180593D01*
X169405345Y-132131093D01*
X169400500Y-132100500D01*
X169400500Y-131640230D01*
X169400499Y-131640226D01*
X169399848Y-131633281D01*
X169397686Y-131610226D01*
X169353455Y-131483821D01*
X169273930Y-131376070D01*
X169166179Y-131296545D01*
X169166176Y-131296544D01*
X169166175Y-131296543D01*
X169039777Y-131252315D01*
X169039776Y-131252314D01*
X169039774Y-131252314D01*
X169039771Y-131252313D01*
X169039768Y-131252313D01*
X169009773Y-131249500D01*
X169009764Y-131249500D01*
X167990236Y-131249500D01*
X167990226Y-131249500D01*
X167960231Y-131252313D01*
X167960222Y-131252315D01*
X167833824Y-131296543D01*
X167726071Y-131376069D01*
X167726069Y-131376071D01*
X167697341Y-131414996D01*
X167648049Y-131481784D01*
X167646543Y-131483824D01*
X167602315Y-131610222D01*
X167602313Y-131610231D01*
X167599500Y-131640226D01*
X167599500Y-132234773D01*
X167602313Y-132264768D01*
X167602315Y-132264777D01*
X167646543Y-132391175D01*
X167646544Y-132391176D01*
X167646545Y-132391179D01*
X167726070Y-132498930D01*
X167833821Y-132578455D01*
X167960226Y-132622686D01*
X167990226Y-132625499D01*
X167990230Y-132625500D01*
X167990236Y-132625500D01*
X168668312Y-132625500D01*
X168726503Y-132644407D01*
X168754047Y-132674997D01*
X168759540Y-132684511D01*
X168815489Y-132740460D01*
X168815491Y-132740461D01*
X168884007Y-132780019D01*
X168884011Y-132780021D01*
X168960435Y-132800499D01*
X168960437Y-132800500D01*
X168960438Y-132800500D01*
X171039563Y-132800500D01*
X171039563Y-132800499D01*
X171115989Y-132780021D01*
X171184511Y-132740460D01*
X171240460Y-132684511D01*
X171261263Y-132648476D01*
X171276993Y-132627976D01*
X171355475Y-132549496D01*
X171409992Y-132521719D01*
X171425478Y-132520500D01*
X171654314Y-132520500D01*
X171654316Y-132520500D01*
X171703173Y-132514068D01*
X171810404Y-132464065D01*
X171894065Y-132380404D01*
X171900275Y-132367085D01*
X171942003Y-132322337D01*
X172002064Y-132310662D01*
X172057517Y-132336519D01*
X172079724Y-132367084D01*
X172085935Y-132380404D01*
X172169596Y-132464065D01*
X172169597Y-132464065D01*
X172169598Y-132464066D01*
X172276824Y-132514067D01*
X172276825Y-132514067D01*
X172276827Y-132514068D01*
X172325684Y-132520500D01*
X172483810Y-132520500D01*
X172542001Y-132539407D01*
X172553813Y-132549496D01*
X172673225Y-132668907D01*
X172784788Y-132780470D01*
X172810317Y-132795209D01*
X172852391Y-132819501D01*
X172852390Y-132819501D01*
X172862105Y-132825109D01*
X172864712Y-132826614D01*
X172953856Y-132850500D01*
X172953858Y-132850500D01*
X177546142Y-132850500D01*
X177546144Y-132850500D01*
X177635288Y-132826614D01*
X177643502Y-132821871D01*
X177647609Y-132819501D01*
X177665722Y-132809042D01*
X177715212Y-132780470D01*
X178780470Y-131715212D01*
X178826614Y-131635288D01*
X178826616Y-131635282D01*
X178833329Y-131610228D01*
X178833329Y-131610226D01*
X178838297Y-131591686D01*
X178850500Y-131546144D01*
X178850500Y-126484976D01*
X178869407Y-126426785D01*
X178879496Y-126414972D01*
X178880402Y-126414065D01*
X178880404Y-126414065D01*
X178964065Y-126330404D01*
X178997645Y-126258391D01*
X179010776Y-126230233D01*
X179052504Y-126185485D01*
X179112565Y-126173810D01*
X179168018Y-126199668D01*
X179197681Y-126253182D01*
X179199500Y-126272072D01*
X179199500Y-126539564D01*
X179219977Y-126615985D01*
X179219979Y-126615989D01*
X179249546Y-126667202D01*
X179253117Y-126673386D01*
X179259540Y-126684511D01*
X179815489Y-127240460D01*
X179815491Y-127240461D01*
X179815493Y-127240463D01*
X179884008Y-127280020D01*
X179884006Y-127280020D01*
X179884010Y-127280021D01*
X179884012Y-127280022D01*
X179960438Y-127300500D01*
X180011567Y-127300500D01*
X180066568Y-127317184D01*
X180092505Y-127334515D01*
X180172867Y-127350500D01*
X181527132Y-127350499D01*
X181607495Y-127334515D01*
X181698624Y-127273624D01*
X181718185Y-127244348D01*
X181766235Y-127206470D01*
X181827373Y-127204068D01*
X181878247Y-127238061D01*
X181899424Y-127295465D01*
X181899500Y-127299351D01*
X181899500Y-130116525D01*
X181880593Y-130174716D01*
X181845446Y-130204734D01*
X181811659Y-130221949D01*
X181721949Y-130311659D01*
X181664354Y-130424695D01*
X181649500Y-130518478D01*
X181649500Y-131481521D01*
X181649501Y-131481523D01*
X181664352Y-131575299D01*
X181664354Y-131575304D01*
X181721950Y-131688342D01*
X181811658Y-131778050D01*
X181924696Y-131835646D01*
X182018481Y-131850500D01*
X182481518Y-131850499D01*
X182481520Y-131850499D01*
X182481521Y-131850498D01*
X182538138Y-131841532D01*
X182575299Y-131835647D01*
X182575299Y-131835646D01*
X182575304Y-131835646D01*
X182688342Y-131778050D01*
X182778050Y-131688342D01*
X182827299Y-131591684D01*
X182870563Y-131548421D01*
X182930995Y-131538850D01*
X182985512Y-131566628D01*
X183001244Y-131587131D01*
X183019229Y-131618281D01*
X183019480Y-131618716D01*
X183131284Y-131730520D01*
X183268216Y-131809577D01*
X183420943Y-131850500D01*
X183420945Y-131850500D01*
X183579055Y-131850500D01*
X183579057Y-131850500D01*
X183731784Y-131809577D01*
X183868716Y-131730520D01*
X183980520Y-131618716D01*
X184059577Y-131481784D01*
X184070758Y-131440055D01*
X184075094Y-131423876D01*
X184108418Y-131372562D01*
X184165540Y-131350636D01*
X184170720Y-131350500D01*
X186546142Y-131350500D01*
X186546144Y-131350500D01*
X186635288Y-131326614D01*
X186715212Y-131280470D01*
X187280470Y-130715212D01*
X187326614Y-130635288D01*
X187350500Y-130546144D01*
X187350500Y-130453856D01*
X187350500Y-125953856D01*
X187326614Y-125864712D01*
X187312617Y-125840469D01*
X187280470Y-125784788D01*
X186715212Y-125219530D01*
X186635288Y-125173386D01*
X186546144Y-125149500D01*
X186546142Y-125149500D01*
X186174500Y-125149500D01*
X186116309Y-125130593D01*
X186080345Y-125081093D01*
X186075500Y-125050501D01*
X186075499Y-124897870D01*
X186075498Y-124897862D01*
X186059515Y-124817505D01*
X186059514Y-124817503D01*
X186034468Y-124780020D01*
X186011991Y-124746382D01*
X186010356Y-124740585D01*
X186006097Y-124736326D01*
X186002180Y-124711594D01*
X185995383Y-124687495D01*
X185997468Y-124681842D01*
X185996526Y-124675894D01*
X186007893Y-124653582D01*
X186016560Y-124630092D01*
X186024295Y-124621385D01*
X186133656Y-124512024D01*
X186188171Y-124484249D01*
X186245496Y-124492306D01*
X186270513Y-124503972D01*
X186320099Y-124510500D01*
X186679900Y-124510499D01*
X186729487Y-124503972D01*
X186729488Y-124503972D01*
X186798932Y-124471589D01*
X186838316Y-124453224D01*
X186923224Y-124368316D01*
X186973972Y-124259487D01*
X186980500Y-124209901D01*
X186980499Y-123790100D01*
X186973972Y-123740513D01*
X186973972Y-123740511D01*
X186933686Y-123654118D01*
X186926229Y-123593389D01*
X186953404Y-123542277D01*
X187616186Y-122879496D01*
X187670703Y-122851719D01*
X187686190Y-122850500D01*
X192050500Y-122850500D01*
X192108691Y-122869407D01*
G37*
G04 #@! TD.AperFunction*
G04 #@! TA.AperFunction,Conductor*
G36*
X207850445Y-128191979D02*
G01*
X207893710Y-128235244D01*
X207904500Y-128280189D01*
X207904500Y-133570500D01*
X207885593Y-133628691D01*
X207836093Y-133664655D01*
X207805500Y-133669500D01*
X201065190Y-133669500D01*
X201006999Y-133650593D01*
X200971035Y-133601093D01*
X200971035Y-133539907D01*
X200995186Y-133500496D01*
X203465429Y-131030253D01*
X203899500Y-131030253D01*
X203899500Y-132119746D01*
X203899501Y-132119758D01*
X203911132Y-132178227D01*
X203911134Y-132178233D01*
X203955445Y-132244548D01*
X203955448Y-132244552D01*
X204021769Y-132288867D01*
X204060711Y-132296613D01*
X204080241Y-132300498D01*
X204080246Y-132300498D01*
X204080252Y-132300500D01*
X204080253Y-132300500D01*
X204769747Y-132300500D01*
X204769748Y-132300500D01*
X204828231Y-132288867D01*
X204894552Y-132244552D01*
X204938867Y-132178231D01*
X204950500Y-132119748D01*
X204950500Y-131030252D01*
X204938867Y-130971769D01*
X204894552Y-130905448D01*
X204862175Y-130883814D01*
X204828233Y-130861134D01*
X204828231Y-130861133D01*
X204828228Y-130861132D01*
X204828227Y-130861132D01*
X204769758Y-130849501D01*
X204769748Y-130849500D01*
X204080252Y-130849500D01*
X204080251Y-130849500D01*
X204080241Y-130849501D01*
X204021772Y-130861132D01*
X204021766Y-130861134D01*
X203955451Y-130905445D01*
X203955445Y-130905451D01*
X203911134Y-130971766D01*
X203911132Y-130971772D01*
X203899501Y-131030241D01*
X203899500Y-131030253D01*
X203465429Y-131030253D01*
X204091186Y-130404496D01*
X204145703Y-130376719D01*
X204161190Y-130375500D01*
X205471142Y-130375500D01*
X205471144Y-130375500D01*
X205560288Y-130351614D01*
X205640212Y-130305470D01*
X207735498Y-128210183D01*
X207790013Y-128182408D01*
X207850445Y-128191979D01*
G37*
G04 #@! TD.AperFunction*
G04 #@! TA.AperFunction,Conductor*
G36*
X207863691Y-106189407D02*
G01*
X207899655Y-106238907D01*
X207904500Y-106269500D01*
X207904500Y-120169810D01*
X207885593Y-120228001D01*
X207836093Y-120263965D01*
X207774907Y-120263965D01*
X207735496Y-120239814D01*
X206879496Y-119383814D01*
X206851719Y-119329297D01*
X206850500Y-119313810D01*
X206850500Y-115004976D01*
X206869407Y-114946785D01*
X206879496Y-114934972D01*
X206880402Y-114934065D01*
X206880404Y-114934065D01*
X206964065Y-114850404D01*
X207014068Y-114743173D01*
X207020500Y-114694316D01*
X207020500Y-114345684D01*
X207014068Y-114296827D01*
X207006339Y-114280253D01*
X206964066Y-114189598D01*
X206964065Y-114189597D01*
X206964065Y-114189596D01*
X206880404Y-114105935D01*
X206867085Y-114099724D01*
X206822337Y-114057997D01*
X206810662Y-113997936D01*
X206836519Y-113942483D01*
X206867084Y-113920275D01*
X206880404Y-113914065D01*
X206964065Y-113830404D01*
X207014068Y-113723173D01*
X207020500Y-113674316D01*
X207020500Y-113325684D01*
X207014068Y-113276827D01*
X207010651Y-113269500D01*
X206964066Y-113169598D01*
X206964065Y-113169597D01*
X206964065Y-113169596D01*
X206880404Y-113085935D01*
X206880402Y-113085934D01*
X206880401Y-113085933D01*
X206773175Y-113035932D01*
X206740601Y-113031644D01*
X206724316Y-113029500D01*
X206275684Y-113029500D01*
X206259398Y-113031644D01*
X206226825Y-113035932D01*
X206226824Y-113035932D01*
X206119598Y-113085933D01*
X206119596Y-113085934D01*
X206119596Y-113085935D01*
X206035935Y-113169596D01*
X206035934Y-113169597D01*
X206035028Y-113170504D01*
X205980511Y-113198281D01*
X205965024Y-113199500D01*
X205031239Y-113199500D01*
X204973048Y-113180593D01*
X204959921Y-113167235D01*
X204959348Y-113167809D01*
X204953224Y-113161685D01*
X204953224Y-113161684D01*
X204868316Y-113076776D01*
X204868314Y-113076775D01*
X204868313Y-113076774D01*
X204759489Y-113026029D01*
X204759488Y-113026028D01*
X204742958Y-113023852D01*
X204709901Y-113019500D01*
X204709899Y-113019500D01*
X204290103Y-113019500D01*
X204290092Y-113019501D01*
X204240513Y-113026027D01*
X204240511Y-113026027D01*
X204131686Y-113076774D01*
X204124589Y-113081744D01*
X204122623Y-113078936D01*
X204082112Y-113099531D01*
X204021689Y-113089904D01*
X203996711Y-113071740D01*
X203829496Y-112904525D01*
X203801719Y-112850008D01*
X203800500Y-112834521D01*
X203800500Y-112326234D01*
X203819407Y-112268043D01*
X203868907Y-112232079D01*
X203930093Y-112232079D01*
X203954503Y-112243919D01*
X203955446Y-112244549D01*
X203955448Y-112244552D01*
X204021769Y-112288867D01*
X204063933Y-112297254D01*
X204080241Y-112300498D01*
X204080246Y-112300498D01*
X204080252Y-112300500D01*
X204080253Y-112300500D01*
X204769747Y-112300500D01*
X204769748Y-112300500D01*
X204828231Y-112288867D01*
X204894552Y-112244552D01*
X204938867Y-112178231D01*
X204950500Y-112119748D01*
X204950500Y-111030252D01*
X204950427Y-111029887D01*
X204941351Y-110984259D01*
X204938867Y-110971769D01*
X204894552Y-110905448D01*
X204894548Y-110905445D01*
X204828233Y-110861134D01*
X204828231Y-110861133D01*
X204828228Y-110861132D01*
X204828227Y-110861132D01*
X204769758Y-110849501D01*
X204769748Y-110849500D01*
X204080252Y-110849500D01*
X204080251Y-110849500D01*
X204080241Y-110849501D01*
X204021772Y-110861132D01*
X204021766Y-110861134D01*
X203954502Y-110906080D01*
X203895614Y-110922689D01*
X203838210Y-110901512D01*
X203804217Y-110850638D01*
X203800500Y-110823765D01*
X203800500Y-108649500D01*
X203819407Y-108591309D01*
X203868907Y-108555345D01*
X203899500Y-108550500D01*
X205789563Y-108550500D01*
X205789563Y-108550499D01*
X205865989Y-108530021D01*
X205934511Y-108490460D01*
X205990460Y-108434511D01*
X206245475Y-108179496D01*
X206299992Y-108151719D01*
X206315479Y-108150500D01*
X206919747Y-108150500D01*
X206919748Y-108150500D01*
X206978231Y-108138867D01*
X207044552Y-108094552D01*
X207088867Y-108028231D01*
X207100500Y-107969748D01*
X207100500Y-106880252D01*
X207088867Y-106821769D01*
X207044552Y-106755448D01*
X207044548Y-106755445D01*
X206978233Y-106711134D01*
X206978231Y-106711133D01*
X206978228Y-106711132D01*
X206978227Y-106711132D01*
X206919758Y-106699501D01*
X206919748Y-106699500D01*
X206230252Y-106699500D01*
X206230251Y-106699500D01*
X206230241Y-106699501D01*
X206171772Y-106711132D01*
X206171766Y-106711134D01*
X206105451Y-106755445D01*
X206105445Y-106755451D01*
X206061134Y-106821766D01*
X206061132Y-106821772D01*
X206049501Y-106880241D01*
X206049500Y-106880253D01*
X206049500Y-107484521D01*
X206030593Y-107542712D01*
X206020504Y-107554525D01*
X205654525Y-107920504D01*
X205600008Y-107948281D01*
X205584521Y-107949500D01*
X205049500Y-107949500D01*
X204991309Y-107930593D01*
X204955345Y-107881093D01*
X204950500Y-107850500D01*
X204950500Y-106880253D01*
X204950498Y-106880241D01*
X204944582Y-106850500D01*
X204938867Y-106821769D01*
X204894552Y-106755448D01*
X204894548Y-106755445D01*
X204828233Y-106711134D01*
X204828231Y-106711133D01*
X204828228Y-106711132D01*
X204828227Y-106711132D01*
X204769758Y-106699501D01*
X204769748Y-106699500D01*
X204080252Y-106699500D01*
X204080251Y-106699500D01*
X204080241Y-106699501D01*
X204021772Y-106711132D01*
X204021766Y-106711134D01*
X203955451Y-106755445D01*
X203955445Y-106755451D01*
X203911134Y-106821766D01*
X203911132Y-106821772D01*
X203899501Y-106880241D01*
X203899500Y-106880253D01*
X203899500Y-107735521D01*
X203880593Y-107793712D01*
X203831093Y-107829676D01*
X203769907Y-107829676D01*
X203730496Y-107805525D01*
X203684511Y-107759540D01*
X203684511Y-107759539D01*
X203384510Y-107459539D01*
X203368853Y-107450499D01*
X203368853Y-107450500D01*
X203315989Y-107419979D01*
X203315988Y-107419978D01*
X203315987Y-107419978D01*
X203239564Y-107399500D01*
X203239562Y-107399500D01*
X202626903Y-107399500D01*
X202568712Y-107380593D01*
X202544587Y-107355501D01*
X202544552Y-107355448D01*
X202505713Y-107329496D01*
X202478233Y-107311134D01*
X202478231Y-107311133D01*
X202478228Y-107311132D01*
X202478227Y-107311132D01*
X202419758Y-107299501D01*
X202419748Y-107299500D01*
X201580252Y-107299500D01*
X201580251Y-107299500D01*
X201580241Y-107299501D01*
X201521772Y-107311132D01*
X201521766Y-107311134D01*
X201455451Y-107355445D01*
X201455445Y-107355451D01*
X201411134Y-107421766D01*
X201411132Y-107421772D01*
X201399501Y-107480241D01*
X201399500Y-107480253D01*
X201399500Y-107919746D01*
X201399501Y-107919758D01*
X201411132Y-107978227D01*
X201411134Y-107978233D01*
X201446279Y-108030830D01*
X201455448Y-108044552D01*
X201455451Y-108044554D01*
X201462343Y-108051446D01*
X201460787Y-108053001D01*
X201490535Y-108090742D01*
X201492932Y-108151880D01*
X201461981Y-108198192D01*
X201462343Y-108198554D01*
X201460524Y-108200372D01*
X201458935Y-108202751D01*
X201456049Y-108204847D01*
X201455445Y-108205451D01*
X201411134Y-108271766D01*
X201411132Y-108271772D01*
X201399501Y-108330241D01*
X201399500Y-108330253D01*
X201399500Y-108769746D01*
X201399501Y-108769758D01*
X201411132Y-108828227D01*
X201411134Y-108828233D01*
X201450453Y-108887077D01*
X201455448Y-108894552D01*
X201521769Y-108938867D01*
X201566231Y-108947711D01*
X201580241Y-108950498D01*
X201580246Y-108950498D01*
X201580252Y-108950500D01*
X201580253Y-108950500D01*
X202419747Y-108950500D01*
X202419748Y-108950500D01*
X202419749Y-108950499D01*
X202419756Y-108950499D01*
X202456076Y-108943274D01*
X202516838Y-108950464D01*
X202545396Y-108970367D01*
X202770504Y-109195475D01*
X202798281Y-109249992D01*
X202799500Y-109265479D01*
X202799500Y-113126123D01*
X202799500Y-113205247D01*
X202811650Y-113250593D01*
X202819979Y-113281677D01*
X202859536Y-113350191D01*
X202859538Y-113350193D01*
X202859540Y-113350196D01*
X203170505Y-113661161D01*
X203198281Y-113715676D01*
X203199500Y-113731163D01*
X203199500Y-119039564D01*
X203219978Y-119115988D01*
X203223536Y-119122150D01*
X203258101Y-119182018D01*
X203258106Y-119182026D01*
X203259540Y-119184511D01*
X204560276Y-120485247D01*
X204588053Y-120539764D01*
X204578482Y-120600196D01*
X204570007Y-120611873D01*
X204570903Y-120612501D01*
X204565933Y-120619598D01*
X204515932Y-120726824D01*
X204515932Y-120726825D01*
X204515932Y-120726827D01*
X204509500Y-120775684D01*
X204509500Y-121224316D01*
X204511416Y-121238867D01*
X204515932Y-121273174D01*
X204515932Y-121273175D01*
X204565933Y-121380401D01*
X204565934Y-121380402D01*
X204565935Y-121380404D01*
X204649596Y-121464065D01*
X204649597Y-121464065D01*
X204649598Y-121464066D01*
X204756824Y-121514067D01*
X204756825Y-121514067D01*
X204756827Y-121514068D01*
X204805684Y-121520500D01*
X204805685Y-121520500D01*
X205154314Y-121520500D01*
X205154316Y-121520500D01*
X205203173Y-121514068D01*
X205310404Y-121464065D01*
X205394065Y-121380404D01*
X205400275Y-121367085D01*
X205442003Y-121322337D01*
X205502064Y-121310662D01*
X205557517Y-121336519D01*
X205579724Y-121367084D01*
X205585935Y-121380404D01*
X205669596Y-121464065D01*
X205669597Y-121464065D01*
X205669598Y-121464066D01*
X205776824Y-121514067D01*
X205776825Y-121514067D01*
X205776827Y-121514068D01*
X205825684Y-121520500D01*
X206038000Y-121520500D01*
X206096191Y-121539407D01*
X206132155Y-121588907D01*
X206137000Y-121619500D01*
X206137000Y-122022701D01*
X206118093Y-122080892D01*
X206070698Y-122116145D01*
X205983824Y-122146543D01*
X205876071Y-122226069D01*
X205876069Y-122226071D01*
X205796543Y-122333824D01*
X205752315Y-122460222D01*
X205752313Y-122460231D01*
X205749500Y-122490226D01*
X205749500Y-123509773D01*
X205752313Y-123539768D01*
X205752315Y-123539777D01*
X205796543Y-123666175D01*
X205796544Y-123666176D01*
X205796545Y-123666179D01*
X205876070Y-123773930D01*
X205983821Y-123853455D01*
X206110226Y-123897686D01*
X206140226Y-123900499D01*
X206140230Y-123900500D01*
X206140236Y-123900500D01*
X206734770Y-123900500D01*
X206734772Y-123900499D01*
X206764774Y-123897686D01*
X206891179Y-123853455D01*
X206991713Y-123779256D01*
X207049759Y-123759915D01*
X207108090Y-123778386D01*
X207144423Y-123827615D01*
X207149500Y-123858912D01*
X207149500Y-125015023D01*
X207148802Y-125017169D01*
X207149406Y-125019346D01*
X207144396Y-125030729D01*
X207130593Y-125073214D01*
X207127975Y-125076655D01*
X207124469Y-125081061D01*
X207085935Y-125119596D01*
X207074772Y-125143533D01*
X207067475Y-125152707D01*
X207051259Y-125163439D01*
X207037995Y-125177663D01*
X207026347Y-125179926D01*
X207016452Y-125186476D01*
X206997022Y-125185626D01*
X206977934Y-125189337D01*
X206967180Y-125184322D01*
X206955325Y-125183804D01*
X206940104Y-125171696D01*
X206922482Y-125163478D01*
X206912494Y-125149731D01*
X206907443Y-125145713D01*
X206906127Y-125140968D01*
X206900276Y-125132915D01*
X206894066Y-125119598D01*
X206894065Y-125119597D01*
X206894065Y-125119596D01*
X206810404Y-125035935D01*
X206810402Y-125035934D01*
X206810401Y-125035933D01*
X206703175Y-124985932D01*
X206670601Y-124981644D01*
X206654316Y-124979500D01*
X206305684Y-124979500D01*
X206289398Y-124981644D01*
X206256825Y-124985932D01*
X206256824Y-124985932D01*
X206149598Y-125035933D01*
X206065933Y-125119598D01*
X206055329Y-125142340D01*
X206013601Y-125187088D01*
X205965605Y-125199500D01*
X205517917Y-125199500D01*
X205459726Y-125180593D01*
X205444289Y-125166681D01*
X205434427Y-125155709D01*
X205423224Y-125131684D01*
X205338316Y-125046776D01*
X205335206Y-125045326D01*
X205325872Y-125034941D01*
X205317819Y-125016813D01*
X205305886Y-125000969D01*
X205302930Y-124983294D01*
X205301034Y-124979025D01*
X205301697Y-124975918D01*
X205300500Y-124968760D01*
X205300500Y-124960439D01*
X205300499Y-124960435D01*
X205292470Y-124930467D01*
X205292470Y-124930466D01*
X205280022Y-124884012D01*
X205280020Y-124884008D01*
X205240463Y-124815493D01*
X205240461Y-124815491D01*
X205240460Y-124815489D01*
X204684511Y-124259540D01*
X204684508Y-124259538D01*
X204684507Y-124259537D01*
X204667573Y-124249761D01*
X204667573Y-124249760D01*
X204667569Y-124249759D01*
X204632587Y-124229562D01*
X204615988Y-124219978D01*
X204539564Y-124199500D01*
X204539562Y-124199500D01*
X204165479Y-124199500D01*
X204107288Y-124180593D01*
X204095475Y-124170504D01*
X203829496Y-123904525D01*
X203801719Y-123850008D01*
X203800500Y-123834521D01*
X203800500Y-120860439D01*
X203800500Y-120860438D01*
X203788456Y-120815489D01*
X203788456Y-120815488D01*
X203788456Y-120815487D01*
X203780021Y-120784010D01*
X203780020Y-120784008D01*
X203740463Y-120715493D01*
X203740462Y-120715492D01*
X203740461Y-120715491D01*
X203740460Y-120715489D01*
X202629496Y-119604525D01*
X202601719Y-119550008D01*
X202600500Y-119534521D01*
X202600500Y-119380253D01*
X202600498Y-119380241D01*
X202593569Y-119345409D01*
X202588867Y-119321769D01*
X202544552Y-119255448D01*
X202544548Y-119255445D01*
X202537657Y-119248554D01*
X202539212Y-119246998D01*
X202509467Y-119209266D01*
X202507065Y-119148128D01*
X202538016Y-119101805D01*
X202537657Y-119101446D01*
X202539462Y-119099640D01*
X202541057Y-119097254D01*
X202543953Y-119095149D01*
X202544545Y-119094556D01*
X202544552Y-119094552D01*
X202588867Y-119028231D01*
X202600500Y-118969748D01*
X202600500Y-118530252D01*
X202588867Y-118471769D01*
X202544552Y-118405448D01*
X202544548Y-118405445D01*
X202537657Y-118398554D01*
X202539212Y-118396998D01*
X202509467Y-118359266D01*
X202507065Y-118298128D01*
X202538016Y-118251805D01*
X202537657Y-118251446D01*
X202539462Y-118249640D01*
X202541057Y-118247254D01*
X202543953Y-118245149D01*
X202544545Y-118244556D01*
X202544552Y-118244552D01*
X202588867Y-118178231D01*
X202600500Y-118119748D01*
X202600500Y-117680252D01*
X202588867Y-117621769D01*
X202585136Y-117616186D01*
X202544554Y-117555451D01*
X202544552Y-117555448D01*
X202544548Y-117555445D01*
X202537657Y-117548554D01*
X202539212Y-117546998D01*
X202509467Y-117509266D01*
X202507065Y-117448128D01*
X202538016Y-117401805D01*
X202537657Y-117401446D01*
X202539462Y-117399640D01*
X202541057Y-117397254D01*
X202543953Y-117395149D01*
X202544545Y-117394556D01*
X202544552Y-117394552D01*
X202588867Y-117328231D01*
X202600500Y-117269748D01*
X202600500Y-116830252D01*
X202588867Y-116771769D01*
X202544552Y-116705448D01*
X202544548Y-116705445D01*
X202537657Y-116698554D01*
X202539212Y-116696998D01*
X202509467Y-116659266D01*
X202507065Y-116598128D01*
X202538016Y-116551805D01*
X202537657Y-116551446D01*
X202539462Y-116549640D01*
X202541057Y-116547254D01*
X202543953Y-116545149D01*
X202544545Y-116544556D01*
X202544552Y-116544552D01*
X202588867Y-116478231D01*
X202600500Y-116419748D01*
X202600500Y-115980252D01*
X202588867Y-115921769D01*
X202544552Y-115855448D01*
X202544548Y-115855445D01*
X202537657Y-115848554D01*
X202539212Y-115846998D01*
X202509467Y-115809266D01*
X202507065Y-115748128D01*
X202538016Y-115701805D01*
X202537657Y-115701446D01*
X202539462Y-115699640D01*
X202541057Y-115697254D01*
X202543953Y-115695149D01*
X202544545Y-115694556D01*
X202544552Y-115694552D01*
X202588867Y-115628231D01*
X202600500Y-115569748D01*
X202600500Y-115130252D01*
X202588867Y-115071769D01*
X202544552Y-115005448D01*
X202544548Y-115005445D01*
X202537657Y-114998554D01*
X202539212Y-114996998D01*
X202509467Y-114959266D01*
X202507065Y-114898128D01*
X202538016Y-114851805D01*
X202537657Y-114851446D01*
X202539462Y-114849640D01*
X202541057Y-114847254D01*
X202543953Y-114845149D01*
X202544545Y-114844556D01*
X202544552Y-114844552D01*
X202588867Y-114778231D01*
X202600500Y-114719748D01*
X202600500Y-114280252D01*
X202588867Y-114221769D01*
X202544552Y-114155448D01*
X202544548Y-114155445D01*
X202537657Y-114148554D01*
X202539212Y-114146998D01*
X202509467Y-114109266D01*
X202507065Y-114048128D01*
X202538016Y-114001805D01*
X202537657Y-114001446D01*
X202539462Y-113999640D01*
X202541057Y-113997254D01*
X202543953Y-113995149D01*
X202544545Y-113994556D01*
X202544552Y-113994552D01*
X202588867Y-113928231D01*
X202600500Y-113869748D01*
X202600500Y-113430252D01*
X202588867Y-113371769D01*
X202544552Y-113305448D01*
X202544548Y-113305445D01*
X202537657Y-113298554D01*
X202539212Y-113296998D01*
X202509467Y-113259266D01*
X202507065Y-113198128D01*
X202538016Y-113151805D01*
X202537657Y-113151446D01*
X202539462Y-113149640D01*
X202541057Y-113147254D01*
X202543953Y-113145149D01*
X202544545Y-113144556D01*
X202544552Y-113144552D01*
X202588867Y-113078231D01*
X202600500Y-113019748D01*
X202600500Y-112580252D01*
X202588867Y-112521769D01*
X202544552Y-112455448D01*
X202544548Y-112455445D01*
X202537657Y-112448554D01*
X202539212Y-112446998D01*
X202509467Y-112409266D01*
X202507065Y-112348128D01*
X202538016Y-112301805D01*
X202537657Y-112301446D01*
X202539462Y-112299640D01*
X202541057Y-112297254D01*
X202543953Y-112295149D01*
X202544545Y-112294556D01*
X202544552Y-112294552D01*
X202588867Y-112228231D01*
X202600500Y-112169748D01*
X202600500Y-111730252D01*
X202588867Y-111671769D01*
X202544552Y-111605448D01*
X202544548Y-111605445D01*
X202537657Y-111598554D01*
X202539212Y-111596998D01*
X202509467Y-111559266D01*
X202507065Y-111498128D01*
X202538016Y-111451805D01*
X202537657Y-111451446D01*
X202539462Y-111449640D01*
X202541057Y-111447254D01*
X202543953Y-111445149D01*
X202544545Y-111444556D01*
X202544552Y-111444552D01*
X202588867Y-111378231D01*
X202600500Y-111319748D01*
X202600500Y-110880252D01*
X202599879Y-110877132D01*
X202594383Y-110849500D01*
X202588867Y-110821769D01*
X202544552Y-110755448D01*
X202537147Y-110750500D01*
X202478233Y-110711134D01*
X202478231Y-110711133D01*
X202478228Y-110711132D01*
X202478227Y-110711132D01*
X202419758Y-110699501D01*
X202419748Y-110699500D01*
X201580252Y-110699500D01*
X201580251Y-110699500D01*
X201580241Y-110699501D01*
X201521772Y-110711132D01*
X201521766Y-110711134D01*
X201455451Y-110755445D01*
X201455445Y-110755451D01*
X201411134Y-110821766D01*
X201411132Y-110821772D01*
X201399501Y-110880241D01*
X201399500Y-110880253D01*
X201399500Y-111319746D01*
X201399501Y-111319758D01*
X201411132Y-111378227D01*
X201411134Y-111378233D01*
X201448497Y-111434150D01*
X201455448Y-111444552D01*
X201455451Y-111444554D01*
X201462343Y-111451446D01*
X201460787Y-111453001D01*
X201490535Y-111490742D01*
X201492932Y-111551880D01*
X201461981Y-111598192D01*
X201462343Y-111598554D01*
X201460524Y-111600372D01*
X201458935Y-111602751D01*
X201456049Y-111604847D01*
X201455445Y-111605451D01*
X201411134Y-111671766D01*
X201411132Y-111671772D01*
X201399501Y-111730241D01*
X201399500Y-111730253D01*
X201399500Y-112169746D01*
X201399501Y-112169758D01*
X201411132Y-112228227D01*
X201411134Y-112228233D01*
X201451649Y-112288867D01*
X201455448Y-112294552D01*
X201455451Y-112294554D01*
X201462343Y-112301446D01*
X201460787Y-112303001D01*
X201490535Y-112340742D01*
X201492932Y-112401880D01*
X201461981Y-112448192D01*
X201462343Y-112448554D01*
X201460524Y-112450372D01*
X201458935Y-112452751D01*
X201456049Y-112454847D01*
X201455445Y-112455451D01*
X201411134Y-112521766D01*
X201411132Y-112521772D01*
X201399501Y-112580241D01*
X201399500Y-112580253D01*
X201399500Y-113019746D01*
X201399501Y-113019758D01*
X201411132Y-113078227D01*
X201411134Y-113078233D01*
X201455445Y-113144548D01*
X201455448Y-113144552D01*
X201455451Y-113144554D01*
X201462343Y-113151446D01*
X201460787Y-113153001D01*
X201490535Y-113190742D01*
X201492932Y-113251880D01*
X201461981Y-113298192D01*
X201462343Y-113298554D01*
X201460524Y-113300372D01*
X201458935Y-113302751D01*
X201456049Y-113304847D01*
X201455445Y-113305451D01*
X201411134Y-113371766D01*
X201411132Y-113371772D01*
X201399501Y-113430241D01*
X201399500Y-113430253D01*
X201399500Y-113869746D01*
X201399501Y-113869758D01*
X201411132Y-113928227D01*
X201411134Y-113928233D01*
X201446280Y-113980832D01*
X201455448Y-113994552D01*
X201455451Y-113994554D01*
X201462343Y-114001446D01*
X201460787Y-114003001D01*
X201490535Y-114040742D01*
X201492932Y-114101880D01*
X201461981Y-114148192D01*
X201462343Y-114148554D01*
X201460524Y-114150372D01*
X201458935Y-114152751D01*
X201456049Y-114154847D01*
X201455445Y-114155451D01*
X201411134Y-114221766D01*
X201411132Y-114221772D01*
X201399501Y-114280241D01*
X201399500Y-114280253D01*
X201399500Y-114719746D01*
X201399501Y-114719758D01*
X201411132Y-114778227D01*
X201411134Y-114778233D01*
X201438646Y-114819407D01*
X201455448Y-114844552D01*
X201455451Y-114844554D01*
X201462343Y-114851446D01*
X201460787Y-114853001D01*
X201490535Y-114890742D01*
X201492932Y-114951880D01*
X201461981Y-114998192D01*
X201462343Y-114998554D01*
X201460524Y-115000372D01*
X201458935Y-115002751D01*
X201456049Y-115004847D01*
X201455445Y-115005451D01*
X201411134Y-115071766D01*
X201411132Y-115071772D01*
X201399501Y-115130241D01*
X201399500Y-115130253D01*
X201399500Y-115569746D01*
X201399501Y-115569758D01*
X201411132Y-115628227D01*
X201411133Y-115628231D01*
X201455448Y-115694552D01*
X201455451Y-115694554D01*
X201462343Y-115701446D01*
X201460787Y-115703001D01*
X201490535Y-115740742D01*
X201492932Y-115801880D01*
X201461981Y-115848192D01*
X201462343Y-115848554D01*
X201460524Y-115850372D01*
X201458935Y-115852751D01*
X201456049Y-115854847D01*
X201455445Y-115855451D01*
X201411134Y-115921766D01*
X201411132Y-115921772D01*
X201399501Y-115980241D01*
X201399500Y-115980253D01*
X201399500Y-116419746D01*
X201399501Y-116419758D01*
X201411132Y-116478227D01*
X201411134Y-116478233D01*
X201449236Y-116535255D01*
X201455448Y-116544552D01*
X201455451Y-116544554D01*
X201462343Y-116551446D01*
X201460787Y-116553001D01*
X201490535Y-116590742D01*
X201492932Y-116651880D01*
X201461981Y-116698192D01*
X201462343Y-116698554D01*
X201460524Y-116700372D01*
X201458935Y-116702751D01*
X201456049Y-116704847D01*
X201455445Y-116705451D01*
X201411134Y-116771766D01*
X201411132Y-116771772D01*
X201399501Y-116830241D01*
X201399500Y-116830253D01*
X201399500Y-117269746D01*
X201399501Y-117269758D01*
X201411132Y-117328227D01*
X201411134Y-117328233D01*
X201455123Y-117394066D01*
X201455448Y-117394552D01*
X201455451Y-117394554D01*
X201462343Y-117401446D01*
X201460787Y-117403001D01*
X201490535Y-117440742D01*
X201492932Y-117501880D01*
X201461981Y-117548192D01*
X201462343Y-117548554D01*
X201460524Y-117550372D01*
X201458935Y-117552751D01*
X201456049Y-117554847D01*
X201455445Y-117555451D01*
X201411134Y-117621766D01*
X201411132Y-117621772D01*
X201399501Y-117680241D01*
X201399500Y-117680253D01*
X201399500Y-118119746D01*
X201399501Y-118119758D01*
X201411132Y-118178227D01*
X201411134Y-118178233D01*
X201455445Y-118244548D01*
X201455448Y-118244552D01*
X201455451Y-118244554D01*
X201462343Y-118251446D01*
X201460787Y-118253001D01*
X201490535Y-118290742D01*
X201492932Y-118351880D01*
X201461981Y-118398192D01*
X201462343Y-118398554D01*
X201460524Y-118400372D01*
X201458935Y-118402751D01*
X201456049Y-118404847D01*
X201455445Y-118405451D01*
X201411134Y-118471766D01*
X201411132Y-118471772D01*
X201399501Y-118530241D01*
X201399500Y-118530253D01*
X201399500Y-118969746D01*
X201399501Y-118969758D01*
X201411132Y-119028227D01*
X201411134Y-119028233D01*
X201450528Y-119087189D01*
X201455448Y-119094552D01*
X201455451Y-119094554D01*
X201462343Y-119101446D01*
X201460787Y-119103001D01*
X201490535Y-119140742D01*
X201492932Y-119201880D01*
X201461981Y-119248192D01*
X201462343Y-119248554D01*
X201460524Y-119250372D01*
X201458935Y-119252751D01*
X201456049Y-119254847D01*
X201455445Y-119255451D01*
X201411134Y-119321766D01*
X201411132Y-119321772D01*
X201399501Y-119380241D01*
X201399500Y-119380253D01*
X201399500Y-119819746D01*
X201399501Y-119819758D01*
X201411132Y-119878227D01*
X201411134Y-119878233D01*
X201455445Y-119944548D01*
X201455448Y-119944552D01*
X201521769Y-119988867D01*
X201557765Y-119996027D01*
X201580241Y-120000498D01*
X201580246Y-120000498D01*
X201580252Y-120000500D01*
X202134521Y-120000500D01*
X202192712Y-120019407D01*
X202204525Y-120029496D01*
X203170504Y-120995475D01*
X203198281Y-121049992D01*
X203199500Y-121065479D01*
X203199500Y-124039564D01*
X203219977Y-124115985D01*
X203219978Y-124115987D01*
X203219979Y-124115989D01*
X203252894Y-124173000D01*
X203259540Y-124184511D01*
X203815489Y-124740460D01*
X203815491Y-124740461D01*
X203815493Y-124740463D01*
X203884008Y-124780020D01*
X203884006Y-124780020D01*
X203884010Y-124780021D01*
X203884012Y-124780022D01*
X203960438Y-124800500D01*
X204334521Y-124800500D01*
X204392712Y-124819407D01*
X204404525Y-124829496D01*
X204571740Y-124996711D01*
X204599517Y-125051228D01*
X204589946Y-125111660D01*
X204580959Y-125124039D01*
X204581744Y-125124589D01*
X204576774Y-125131686D01*
X204526029Y-125240510D01*
X204526028Y-125240511D01*
X204519500Y-125290100D01*
X204519500Y-125709896D01*
X204519501Y-125709907D01*
X204526027Y-125759486D01*
X204526027Y-125759488D01*
X204576774Y-125868313D01*
X204576775Y-125868314D01*
X204576776Y-125868316D01*
X204661684Y-125953224D01*
X204770513Y-126003972D01*
X204820099Y-126010500D01*
X205179900Y-126010499D01*
X205229487Y-126003972D01*
X205229488Y-126003972D01*
X205298919Y-125971595D01*
X205338316Y-125953224D01*
X205423224Y-125868316D01*
X205428192Y-125857659D01*
X205445126Y-125839501D01*
X205459726Y-125819407D01*
X205465664Y-125817477D01*
X205469921Y-125812913D01*
X205517917Y-125800500D01*
X205607977Y-125800500D01*
X205666168Y-125819407D01*
X205702132Y-125868907D01*
X205703603Y-125925122D01*
X205699500Y-125940438D01*
X205699500Y-125940440D01*
X205699500Y-127039564D01*
X205719977Y-127115985D01*
X205719979Y-127115990D01*
X205742263Y-127154587D01*
X205742264Y-127154588D01*
X205759540Y-127184511D01*
X206020505Y-127445476D01*
X206048281Y-127499991D01*
X206049500Y-127515478D01*
X206049500Y-127969746D01*
X206049501Y-127969758D01*
X206061132Y-128028227D01*
X206061134Y-128028233D01*
X206093956Y-128077354D01*
X206105448Y-128094552D01*
X206171769Y-128138867D01*
X206216231Y-128147711D01*
X206230241Y-128150498D01*
X206230246Y-128150498D01*
X206230252Y-128150500D01*
X206564810Y-128150500D01*
X206623001Y-128169407D01*
X206658965Y-128218907D01*
X206658965Y-128280093D01*
X206634814Y-128319504D01*
X205308814Y-129645504D01*
X205254297Y-129673281D01*
X205238810Y-129674500D01*
X203928856Y-129674500D01*
X203839712Y-129698386D01*
X203759788Y-129744530D01*
X200383814Y-133120504D01*
X200329297Y-133148281D01*
X200313810Y-133149500D01*
X190686190Y-133149500D01*
X190627999Y-133130593D01*
X190616186Y-133120504D01*
X190206105Y-132710423D01*
X189795212Y-132299530D01*
X189795209Y-132299528D01*
X189086185Y-131590504D01*
X188379496Y-130883814D01*
X188351719Y-130829297D01*
X188350500Y-130813810D01*
X188350500Y-128231318D01*
X188369407Y-128173127D01*
X188379496Y-128161314D01*
X190101314Y-126439496D01*
X190155831Y-126411719D01*
X190171318Y-126410500D01*
X195558953Y-126410500D01*
X195617144Y-126429407D01*
X195653108Y-126478907D01*
X195653108Y-126540093D01*
X195628958Y-126579501D01*
X195602147Y-126606313D01*
X195576774Y-126631686D01*
X195526029Y-126740510D01*
X195526028Y-126740511D01*
X195519500Y-126790100D01*
X195519500Y-127209896D01*
X195519501Y-127209907D01*
X195526027Y-127259486D01*
X195526027Y-127259488D01*
X195576774Y-127368313D01*
X195576775Y-127368314D01*
X195576776Y-127368316D01*
X195661684Y-127453224D01*
X195661685Y-127453224D01*
X195661686Y-127453225D01*
X195677879Y-127460776D01*
X195722627Y-127502504D01*
X195734301Y-127562565D01*
X195708443Y-127618018D01*
X195654929Y-127647681D01*
X195636039Y-127649500D01*
X194468856Y-127649500D01*
X194394103Y-127669530D01*
X194394102Y-127669529D01*
X194382223Y-127672713D01*
X194379712Y-127673386D01*
X194332751Y-127700499D01*
X194299788Y-127719530D01*
X192363218Y-129656099D01*
X192308701Y-129683876D01*
X192248269Y-129674305D01*
X192205004Y-129631040D01*
X192195433Y-129570608D01*
X192196495Y-129564965D01*
X192197644Y-129559704D01*
X192197646Y-129559699D01*
X192200499Y-129529273D01*
X192200500Y-129529273D01*
X192200500Y-128470727D01*
X192200499Y-128470725D01*
X192199874Y-128464065D01*
X192197646Y-128440301D01*
X192152793Y-128312118D01*
X192151718Y-128310662D01*
X192072154Y-128202855D01*
X192072152Y-128202853D01*
X192072150Y-128202850D01*
X192072146Y-128202847D01*
X192072144Y-128202845D01*
X191962883Y-128122207D01*
X191834703Y-128077355D01*
X191834694Y-128077353D01*
X191804274Y-128074500D01*
X191804266Y-128074500D01*
X191195734Y-128074500D01*
X191195725Y-128074500D01*
X191165305Y-128077353D01*
X191165296Y-128077355D01*
X191037116Y-128122207D01*
X190927855Y-128202845D01*
X190927845Y-128202855D01*
X190847207Y-128312116D01*
X190802355Y-128440296D01*
X190802354Y-128440301D01*
X190799500Y-128470725D01*
X190799500Y-129163810D01*
X190780593Y-129222001D01*
X190770504Y-129233814D01*
X190219529Y-129784789D01*
X190186197Y-129842520D01*
X190186198Y-129842521D01*
X190173386Y-129864710D01*
X190165561Y-129893916D01*
X190149500Y-129953856D01*
X190149500Y-131546144D01*
X190172636Y-131632489D01*
X190172635Y-131632489D01*
X190173384Y-131635286D01*
X190173387Y-131635291D01*
X190204591Y-131689337D01*
X190219530Y-131715212D01*
X190769788Y-132265470D01*
X190795764Y-132280467D01*
X190828779Y-132299529D01*
X190828782Y-132299530D01*
X190830459Y-132300498D01*
X190849708Y-132311612D01*
X190849709Y-132311612D01*
X190849712Y-132311614D01*
X190938856Y-132335500D01*
X190938857Y-132335500D01*
X190997346Y-132335500D01*
X191055537Y-132354407D01*
X191067343Y-132364490D01*
X191122489Y-132419636D01*
X191226830Y-132470645D01*
X191294472Y-132480500D01*
X191294475Y-132480500D01*
X191705524Y-132480500D01*
X191705528Y-132480500D01*
X191773170Y-132470645D01*
X191877511Y-132419636D01*
X191932652Y-132364494D01*
X191987167Y-132336719D01*
X192002654Y-132335500D01*
X193811142Y-132335500D01*
X193811144Y-132335500D01*
X193900288Y-132311614D01*
X193921215Y-132299531D01*
X193921217Y-132299531D01*
X193954229Y-132280471D01*
X193980212Y-132265470D01*
X194376372Y-131869308D01*
X194430887Y-131841532D01*
X194461859Y-131841532D01*
X194518481Y-131850500D01*
X194981518Y-131850499D01*
X194981520Y-131850499D01*
X194981521Y-131850498D01*
X195038138Y-131841532D01*
X195075299Y-131835647D01*
X195075299Y-131835646D01*
X195075304Y-131835646D01*
X195188342Y-131778050D01*
X195278050Y-131688342D01*
X195327299Y-131591684D01*
X195370563Y-131548421D01*
X195430995Y-131538850D01*
X195485512Y-131566628D01*
X195501244Y-131587131D01*
X195519229Y-131618281D01*
X195519480Y-131618716D01*
X195631284Y-131730520D01*
X195768216Y-131809577D01*
X195804990Y-131819430D01*
X195849369Y-131845052D01*
X196078843Y-132074525D01*
X196284788Y-132280470D01*
X196364712Y-132326614D01*
X196453856Y-132350500D01*
X196453858Y-132350500D01*
X196546142Y-132350500D01*
X196546144Y-132350500D01*
X196635288Y-132326614D01*
X196635289Y-132326613D01*
X196641556Y-132324934D01*
X196641854Y-132326047D01*
X196669740Y-132320500D01*
X198497346Y-132320500D01*
X198555537Y-132339407D01*
X198567343Y-132349490D01*
X198622489Y-132404636D01*
X198726830Y-132455645D01*
X198794472Y-132465500D01*
X198794475Y-132465500D01*
X199205524Y-132465500D01*
X199205528Y-132465500D01*
X199273170Y-132455645D01*
X199377511Y-132404636D01*
X199432652Y-132349494D01*
X199487167Y-132321719D01*
X199502654Y-132320500D01*
X199576142Y-132320500D01*
X199576144Y-132320500D01*
X199665288Y-132296614D01*
X199693250Y-132280470D01*
X199745212Y-132250470D01*
X200380470Y-131615212D01*
X200426614Y-131535288D01*
X200433256Y-131510500D01*
X200436070Y-131500000D01*
X200437877Y-131493253D01*
X200450500Y-131446144D01*
X200450500Y-129987361D01*
X200469407Y-129929170D01*
X200516801Y-129893917D01*
X200562882Y-129877793D01*
X200672150Y-129797150D01*
X200752793Y-129687882D01*
X200797646Y-129559699D01*
X200800499Y-129529273D01*
X200800500Y-129529273D01*
X200800500Y-128470727D01*
X200800499Y-128470725D01*
X200799874Y-128464065D01*
X200797646Y-128440301D01*
X200752793Y-128312118D01*
X200751718Y-128310662D01*
X200672154Y-128202855D01*
X200672152Y-128202853D01*
X200672150Y-128202850D01*
X200672146Y-128202847D01*
X200672144Y-128202845D01*
X200562883Y-128122207D01*
X200434703Y-128077355D01*
X200434694Y-128077353D01*
X200404274Y-128074500D01*
X200404266Y-128074500D01*
X199795734Y-128074500D01*
X199795725Y-128074500D01*
X199765305Y-128077353D01*
X199765296Y-128077355D01*
X199637116Y-128122207D01*
X199527855Y-128202845D01*
X199527845Y-128202855D01*
X199447207Y-128312116D01*
X199402355Y-128440296D01*
X199402354Y-128440301D01*
X199399500Y-128470725D01*
X199399500Y-129529274D01*
X199402353Y-129559694D01*
X199402355Y-129559703D01*
X199447207Y-129687883D01*
X199527845Y-129797144D01*
X199527847Y-129797146D01*
X199527850Y-129797150D01*
X199527853Y-129797152D01*
X199527855Y-129797154D01*
X199637114Y-129877791D01*
X199637116Y-129877791D01*
X199637118Y-129877793D01*
X199683198Y-129893917D01*
X199731878Y-129930982D01*
X199749500Y-129987361D01*
X199749500Y-131213810D01*
X199730593Y-131272001D01*
X199720504Y-131283814D01*
X199679764Y-131324554D01*
X199625247Y-131352331D01*
X199564815Y-131342760D01*
X199521550Y-131299495D01*
X199511794Y-131240279D01*
X199520500Y-131180528D01*
X199520500Y-130819472D01*
X199510645Y-130751830D01*
X199459636Y-130647489D01*
X199377511Y-130565364D01*
X199273170Y-130514355D01*
X199273171Y-130514355D01*
X199256259Y-130511891D01*
X199205528Y-130504500D01*
X199205525Y-130504500D01*
X199041190Y-130504500D01*
X198982999Y-130485593D01*
X198971186Y-130475504D01*
X198379496Y-129883814D01*
X198351719Y-129829297D01*
X198350500Y-129813810D01*
X198350500Y-128371284D01*
X198369407Y-128313093D01*
X198379490Y-128301286D01*
X199195469Y-127485308D01*
X199241614Y-127405384D01*
X199242923Y-127400500D01*
X199265500Y-127316240D01*
X199265500Y-127107083D01*
X199268862Y-127081504D01*
X199269199Y-127080244D01*
X199269224Y-127080204D01*
X199269211Y-127080201D01*
X199287557Y-127011732D01*
X199290500Y-127000750D01*
X199290500Y-126701356D01*
X199268871Y-126620638D01*
X199265499Y-126595017D01*
X199265499Y-126371602D01*
X199265498Y-126371595D01*
X199250240Y-126294883D01*
X199250239Y-126294881D01*
X199216474Y-126244349D01*
X199192112Y-126207888D01*
X199105117Y-126149760D01*
X199105113Y-126149759D01*
X199028410Y-126134501D01*
X199028402Y-126134500D01*
X199028401Y-126134500D01*
X199028400Y-126134500D01*
X198851602Y-126134500D01*
X198851595Y-126134501D01*
X198774884Y-126149759D01*
X198774880Y-126149762D01*
X198751349Y-126165485D01*
X198745000Y-126169727D01*
X198686111Y-126186334D01*
X198634999Y-126169726D01*
X198605119Y-126149761D01*
X198605117Y-126149760D01*
X198605114Y-126149759D01*
X198605113Y-126149759D01*
X198528411Y-126134501D01*
X198528401Y-126134500D01*
X198528400Y-126134500D01*
X198464499Y-126134500D01*
X198406308Y-126115593D01*
X198370344Y-126066093D01*
X198365499Y-126035500D01*
X198365499Y-125971602D01*
X198365498Y-125971595D01*
X198350240Y-125894883D01*
X198350239Y-125894881D01*
X198332883Y-125868907D01*
X198330273Y-125865001D01*
X198313665Y-125806114D01*
X198330274Y-125754998D01*
X198350238Y-125725120D01*
X198350238Y-125725119D01*
X198350240Y-125725117D01*
X198365500Y-125648401D01*
X198365499Y-125471600D01*
X198350240Y-125394883D01*
X198350237Y-125394879D01*
X198330274Y-125365002D01*
X198313665Y-125306114D01*
X198330274Y-125254998D01*
X198350238Y-125225120D01*
X198350238Y-125225119D01*
X198350240Y-125225117D01*
X198365500Y-125148401D01*
X198365499Y-124971600D01*
X198350240Y-124894883D01*
X198343970Y-124885500D01*
X198330274Y-124865002D01*
X198313665Y-124806114D01*
X198330274Y-124754998D01*
X198336031Y-124746383D01*
X198350240Y-124725117D01*
X198365500Y-124648401D01*
X198365500Y-124584498D01*
X198384407Y-124526308D01*
X198433907Y-124490344D01*
X198464500Y-124485499D01*
X198528398Y-124485499D01*
X198528400Y-124485499D01*
X198605117Y-124470240D01*
X198692112Y-124412112D01*
X198750240Y-124325117D01*
X198765500Y-124248401D01*
X198765499Y-123496600D01*
X198750240Y-123419883D01*
X198750239Y-123419882D01*
X198750027Y-123418813D01*
X198752970Y-123393949D01*
X198752970Y-123368907D01*
X198756511Y-123364033D01*
X198757219Y-123358052D01*
X198774213Y-123339667D01*
X198788934Y-123319407D01*
X198794664Y-123317545D01*
X198798752Y-123313123D01*
X198847125Y-123300500D01*
X199032875Y-123300500D01*
X199091066Y-123319407D01*
X199127030Y-123368907D01*
X199129973Y-123418815D01*
X199129760Y-123419881D01*
X199129760Y-123419883D01*
X199119300Y-123472468D01*
X199114500Y-123496598D01*
X199114500Y-124248397D01*
X199114501Y-124248404D01*
X199129759Y-124325116D01*
X199129760Y-124325118D01*
X199162764Y-124374511D01*
X199187888Y-124412112D01*
X199274883Y-124470240D01*
X199351599Y-124485500D01*
X199528400Y-124485499D01*
X199605117Y-124470240D01*
X199634998Y-124450273D01*
X199693886Y-124433665D01*
X199745002Y-124450274D01*
X199774879Y-124470238D01*
X199774880Y-124470238D01*
X199774883Y-124470240D01*
X199851599Y-124485500D01*
X199915500Y-124485499D01*
X199973690Y-124504405D01*
X200009654Y-124553905D01*
X200014500Y-124584498D01*
X200014500Y-124648396D01*
X200014501Y-124648404D01*
X200029759Y-124725116D01*
X200029760Y-124725118D01*
X200066445Y-124780020D01*
X200087888Y-124812112D01*
X200174883Y-124870240D01*
X200233207Y-124881841D01*
X200251588Y-124885498D01*
X200251589Y-124885498D01*
X200251599Y-124885500D01*
X200940500Y-124885499D01*
X200955412Y-124890344D01*
X200971093Y-124890344D01*
X200983778Y-124899560D01*
X200998691Y-124904406D01*
X201007907Y-124917091D01*
X201020593Y-124926308D01*
X201025438Y-124941220D01*
X201034655Y-124953906D01*
X201039500Y-124984499D01*
X201039500Y-125108907D01*
X201020593Y-125167098D01*
X201010506Y-125178908D01*
X200983909Y-125205504D01*
X200929394Y-125233281D01*
X200913907Y-125234500D01*
X200251602Y-125234500D01*
X200251595Y-125234501D01*
X200174883Y-125249759D01*
X200174881Y-125249760D01*
X200087890Y-125307886D01*
X200087886Y-125307890D01*
X200029762Y-125394879D01*
X200029759Y-125394886D01*
X200014501Y-125471589D01*
X200014500Y-125471599D01*
X200014500Y-125648397D01*
X200014501Y-125648404D01*
X200029759Y-125725115D01*
X200029759Y-125725116D01*
X200029760Y-125725117D01*
X200049726Y-125754999D01*
X200066334Y-125813887D01*
X200049727Y-125864999D01*
X200029761Y-125894880D01*
X200029759Y-125894886D01*
X200014501Y-125971588D01*
X200014500Y-125971600D01*
X200014500Y-126035500D01*
X199995593Y-126093691D01*
X199946093Y-126129655D01*
X199915501Y-126134500D01*
X199851603Y-126134500D01*
X199851595Y-126134501D01*
X199774883Y-126149759D01*
X199774881Y-126149760D01*
X199687890Y-126207886D01*
X199687886Y-126207890D01*
X199629762Y-126294879D01*
X199629759Y-126294886D01*
X199614501Y-126371588D01*
X199614500Y-126371600D01*
X199614500Y-127123397D01*
X199614501Y-127123404D01*
X199629759Y-127200116D01*
X199629760Y-127200118D01*
X199669430Y-127259488D01*
X199687888Y-127287112D01*
X199774883Y-127345240D01*
X199851599Y-127360500D01*
X200028400Y-127360499D01*
X200105117Y-127345240D01*
X200192112Y-127287112D01*
X200250240Y-127200117D01*
X200265500Y-127123401D01*
X200265499Y-126880253D01*
X203899500Y-126880253D01*
X203899500Y-127969746D01*
X203899501Y-127969758D01*
X203911132Y-128028227D01*
X203911134Y-128028233D01*
X203943956Y-128077354D01*
X203955448Y-128094552D01*
X204021769Y-128138867D01*
X204066231Y-128147711D01*
X204080241Y-128150498D01*
X204080246Y-128150498D01*
X204080252Y-128150500D01*
X204080253Y-128150500D01*
X204769747Y-128150500D01*
X204769748Y-128150500D01*
X204828231Y-128138867D01*
X204894552Y-128094552D01*
X204938867Y-128028231D01*
X204950500Y-127969748D01*
X204950500Y-126880252D01*
X204949532Y-126875388D01*
X204944582Y-126850500D01*
X204938867Y-126821769D01*
X204894552Y-126755448D01*
X204872198Y-126740511D01*
X204828233Y-126711134D01*
X204828231Y-126711133D01*
X204828228Y-126711132D01*
X204828227Y-126711132D01*
X204769758Y-126699501D01*
X204769748Y-126699500D01*
X204080252Y-126699500D01*
X204080251Y-126699500D01*
X204080241Y-126699501D01*
X204021772Y-126711132D01*
X204021766Y-126711134D01*
X203955451Y-126755445D01*
X203955445Y-126755451D01*
X203911134Y-126821766D01*
X203911132Y-126821772D01*
X203899501Y-126880241D01*
X203899500Y-126880253D01*
X200265499Y-126880253D01*
X200265499Y-126750000D01*
X200265499Y-126484499D01*
X200284406Y-126426308D01*
X200333906Y-126390344D01*
X200364499Y-126385499D01*
X201003398Y-126385499D01*
X201003400Y-126385499D01*
X201080117Y-126370240D01*
X201167112Y-126312112D01*
X201225240Y-126225117D01*
X201240500Y-126148401D01*
X201240499Y-125971600D01*
X201240079Y-125969489D01*
X201223338Y-125885319D01*
X201225793Y-125884830D01*
X201222094Y-125837904D01*
X201248358Y-125790998D01*
X201279871Y-125759486D01*
X201294848Y-125744510D01*
X201503425Y-125535932D01*
X201580460Y-125458897D01*
X201591039Y-125440573D01*
X201620021Y-125390375D01*
X201640500Y-125313948D01*
X201640500Y-123154374D01*
X201659407Y-123096183D01*
X201708907Y-123060219D01*
X201765123Y-123058747D01*
X201768212Y-123059574D01*
X201768216Y-123059577D01*
X201920943Y-123100500D01*
X201920945Y-123100500D01*
X202079055Y-123100500D01*
X202079057Y-123100500D01*
X202231784Y-123059577D01*
X202368716Y-122980520D01*
X202480520Y-122868716D01*
X202559577Y-122731784D01*
X202600500Y-122579057D01*
X202600500Y-122420943D01*
X202559577Y-122268216D01*
X202480520Y-122131284D01*
X202368716Y-122019480D01*
X202231784Y-121940423D01*
X202079057Y-121899500D01*
X201920943Y-121899500D01*
X201768216Y-121940423D01*
X201642337Y-122013099D01*
X201631281Y-122019482D01*
X201607868Y-122042894D01*
X201553351Y-122070670D01*
X201492919Y-122061096D01*
X201467863Y-122042892D01*
X201279496Y-121854525D01*
X201251719Y-121800008D01*
X201250500Y-121784521D01*
X201250500Y-121276903D01*
X201269407Y-121218712D01*
X201294497Y-121194588D01*
X201294552Y-121194552D01*
X201338867Y-121128231D01*
X201350500Y-121069748D01*
X201350500Y-120230252D01*
X201338867Y-120171769D01*
X201294552Y-120105448D01*
X201294368Y-120105325D01*
X201228233Y-120061134D01*
X201228231Y-120061133D01*
X201228228Y-120061132D01*
X201228227Y-120061132D01*
X201169758Y-120049501D01*
X201169748Y-120049500D01*
X200730252Y-120049500D01*
X200730251Y-120049500D01*
X200730241Y-120049501D01*
X200671772Y-120061132D01*
X200671766Y-120061134D01*
X200605451Y-120105445D01*
X200598554Y-120112343D01*
X200596998Y-120110787D01*
X200559258Y-120140535D01*
X200498120Y-120142932D01*
X200456332Y-120118965D01*
X200448625Y-120111544D01*
X200444552Y-120105448D01*
X200437174Y-120100518D01*
X200430832Y-120094411D01*
X200420373Y-120074809D01*
X200406618Y-120057360D01*
X200404382Y-120044839D01*
X200402029Y-120040429D01*
X200402714Y-120035499D01*
X200400500Y-120023097D01*
X200400500Y-119077061D01*
X200419407Y-119018870D01*
X200449997Y-118991326D01*
X200468716Y-118980520D01*
X200580520Y-118868716D01*
X200659577Y-118731784D01*
X200700500Y-118579057D01*
X200700500Y-118420943D01*
X200659577Y-118268216D01*
X200580520Y-118131284D01*
X200468716Y-118019480D01*
X200331784Y-117940423D01*
X200179057Y-117899500D01*
X200020943Y-117899500D01*
X199868216Y-117940423D01*
X199731284Y-118019480D01*
X199619480Y-118131284D01*
X199540423Y-118268216D01*
X199499500Y-118420943D01*
X199499500Y-118579057D01*
X199540423Y-118731784D01*
X199619480Y-118868716D01*
X199731284Y-118980520D01*
X199750000Y-118991325D01*
X199790940Y-119036792D01*
X199799500Y-119077061D01*
X199799500Y-120023097D01*
X199780593Y-120081288D01*
X199769168Y-120094411D01*
X199762825Y-120100518D01*
X199755448Y-120105448D01*
X199751374Y-120111544D01*
X199743668Y-120118965D01*
X199725298Y-120127891D01*
X199709258Y-120140535D01*
X199698404Y-120140960D01*
X199688637Y-120145707D01*
X199668529Y-120142131D01*
X199648120Y-120142932D01*
X199639090Y-120136897D01*
X199628396Y-120134996D01*
X199614228Y-120120282D01*
X199601807Y-120111981D01*
X199601446Y-120112343D01*
X199599627Y-120110524D01*
X199597249Y-120108935D01*
X199595152Y-120106049D01*
X199594554Y-120105451D01*
X199594552Y-120105448D01*
X199594368Y-120105325D01*
X199528233Y-120061134D01*
X199528231Y-120061133D01*
X199528228Y-120061132D01*
X199528227Y-120061132D01*
X199469758Y-120049501D01*
X199469748Y-120049500D01*
X199030252Y-120049500D01*
X199030251Y-120049500D01*
X199030241Y-120049501D01*
X198971772Y-120061132D01*
X198971766Y-120061134D01*
X198905451Y-120105445D01*
X198898554Y-120112343D01*
X198896998Y-120110787D01*
X198859258Y-120140535D01*
X198798120Y-120142932D01*
X198751807Y-120111981D01*
X198751446Y-120112343D01*
X198749627Y-120110524D01*
X198747249Y-120108935D01*
X198745152Y-120106049D01*
X198744554Y-120105451D01*
X198744552Y-120105448D01*
X198744368Y-120105325D01*
X198678233Y-120061134D01*
X198678231Y-120061133D01*
X198678228Y-120061132D01*
X198678227Y-120061132D01*
X198619758Y-120049501D01*
X198619748Y-120049500D01*
X198180252Y-120049500D01*
X198180251Y-120049500D01*
X198180241Y-120049501D01*
X198121772Y-120061132D01*
X198121766Y-120061134D01*
X198055451Y-120105445D01*
X198048554Y-120112343D01*
X198046998Y-120110787D01*
X198009258Y-120140535D01*
X197948120Y-120142932D01*
X197901807Y-120111981D01*
X197901446Y-120112343D01*
X197899627Y-120110524D01*
X197897249Y-120108935D01*
X197895152Y-120106049D01*
X197894554Y-120105451D01*
X197894552Y-120105448D01*
X197894368Y-120105325D01*
X197828233Y-120061134D01*
X197828231Y-120061133D01*
X197828228Y-120061132D01*
X197828227Y-120061132D01*
X197769758Y-120049501D01*
X197769748Y-120049500D01*
X197330252Y-120049500D01*
X197330251Y-120049500D01*
X197330241Y-120049501D01*
X197271772Y-120061132D01*
X197271766Y-120061134D01*
X197205451Y-120105445D01*
X197198554Y-120112343D01*
X197196998Y-120110787D01*
X197159258Y-120140535D01*
X197098120Y-120142932D01*
X197051807Y-120111981D01*
X197051446Y-120112343D01*
X197049627Y-120110524D01*
X197047249Y-120108935D01*
X197045152Y-120106049D01*
X197044554Y-120105451D01*
X197044552Y-120105448D01*
X197044368Y-120105325D01*
X196978233Y-120061134D01*
X196978231Y-120061133D01*
X196978228Y-120061132D01*
X196978227Y-120061132D01*
X196919758Y-120049501D01*
X196919748Y-120049500D01*
X196480252Y-120049500D01*
X196480251Y-120049500D01*
X196480241Y-120049501D01*
X196421772Y-120061132D01*
X196421766Y-120061134D01*
X196355451Y-120105445D01*
X196348554Y-120112343D01*
X196346998Y-120110787D01*
X196309258Y-120140535D01*
X196248120Y-120142932D01*
X196206332Y-120118965D01*
X196198625Y-120111544D01*
X196194552Y-120105448D01*
X196187174Y-120100518D01*
X196180832Y-120094411D01*
X196170373Y-120074809D01*
X196156618Y-120057360D01*
X196154382Y-120044839D01*
X196152029Y-120040429D01*
X196152714Y-120035499D01*
X196150500Y-120023097D01*
X196150500Y-119815479D01*
X196169407Y-119757288D01*
X196179496Y-119745475D01*
X196459482Y-119465489D01*
X196740460Y-119184511D01*
X196741899Y-119182018D01*
X196780021Y-119115989D01*
X196797942Y-119049105D01*
X196800712Y-119042627D01*
X196816429Y-119024637D01*
X196829441Y-119004602D01*
X196840689Y-118996871D01*
X196840969Y-118996551D01*
X196841247Y-118996487D01*
X196842237Y-118995807D01*
X196868716Y-118980520D01*
X196980520Y-118868716D01*
X197059577Y-118731784D01*
X197100500Y-118579057D01*
X197100500Y-118420943D01*
X197059577Y-118268216D01*
X196980520Y-118131284D01*
X196868716Y-118019480D01*
X196731784Y-117940423D01*
X196579057Y-117899500D01*
X196420943Y-117899500D01*
X196268216Y-117940423D01*
X196131284Y-118019480D01*
X196019480Y-118131284D01*
X195940423Y-118268216D01*
X195899500Y-118420943D01*
X195899500Y-118579057D01*
X195940423Y-118731784D01*
X196019480Y-118868716D01*
X196019482Y-118868718D01*
X196042893Y-118892130D01*
X196070669Y-118946647D01*
X196061097Y-119007079D01*
X196042892Y-119032135D01*
X195665489Y-119409539D01*
X195609539Y-119465489D01*
X195569980Y-119534007D01*
X195569978Y-119534011D01*
X195549500Y-119610435D01*
X195549500Y-120023097D01*
X195530593Y-120081288D01*
X195519168Y-120094411D01*
X195512825Y-120100518D01*
X195505448Y-120105448D01*
X195501374Y-120111544D01*
X195493668Y-120118965D01*
X195475298Y-120127891D01*
X195459258Y-120140535D01*
X195448404Y-120140960D01*
X195438637Y-120145707D01*
X195418529Y-120142131D01*
X195398120Y-120142932D01*
X195389090Y-120136897D01*
X195378396Y-120134996D01*
X195364228Y-120120282D01*
X195351807Y-120111981D01*
X195351446Y-120112343D01*
X195349627Y-120110524D01*
X195347249Y-120108935D01*
X195345152Y-120106049D01*
X195344554Y-120105451D01*
X195344552Y-120105448D01*
X195344495Y-120105410D01*
X195344428Y-120105325D01*
X195337658Y-120098555D01*
X195338459Y-120097753D01*
X195306618Y-120057360D01*
X195300500Y-120023097D01*
X195300500Y-119460439D01*
X195300500Y-119460438D01*
X195286862Y-119409540D01*
X195286862Y-119409539D01*
X195286862Y-119409538D01*
X195283312Y-119396290D01*
X195280022Y-119384012D01*
X195275886Y-119376848D01*
X195240463Y-119315493D01*
X195240459Y-119315488D01*
X194957107Y-119032135D01*
X194929330Y-118977619D01*
X194938901Y-118917187D01*
X194957109Y-118892127D01*
X194980516Y-118868720D01*
X194980516Y-118868719D01*
X194980520Y-118868716D01*
X195059577Y-118731784D01*
X195100500Y-118579057D01*
X195100500Y-118420943D01*
X195059577Y-118268216D01*
X194980520Y-118131284D01*
X194868716Y-118019480D01*
X194731784Y-117940423D01*
X194579057Y-117899500D01*
X194420943Y-117899500D01*
X194268216Y-117940423D01*
X194131284Y-118019480D01*
X194019480Y-118131284D01*
X193940423Y-118268216D01*
X193899500Y-118420943D01*
X193899500Y-118579057D01*
X193940423Y-118731784D01*
X194019480Y-118868716D01*
X194131284Y-118980520D01*
X194157756Y-118995803D01*
X194198696Y-119041272D01*
X194199287Y-119042626D01*
X194202058Y-119049108D01*
X194219979Y-119115989D01*
X194258101Y-119182018D01*
X194259540Y-119184511D01*
X194260233Y-119185204D01*
X194670504Y-119595475D01*
X194698281Y-119649992D01*
X194699500Y-119665479D01*
X194699500Y-120023097D01*
X194680593Y-120081288D01*
X194669168Y-120094411D01*
X194662825Y-120100518D01*
X194655448Y-120105448D01*
X194651374Y-120111544D01*
X194643668Y-120118965D01*
X194625298Y-120127891D01*
X194609258Y-120140535D01*
X194598404Y-120140960D01*
X194588637Y-120145707D01*
X194568529Y-120142131D01*
X194548120Y-120142932D01*
X194539090Y-120136897D01*
X194528396Y-120134996D01*
X194514228Y-120120282D01*
X194501807Y-120111981D01*
X194501446Y-120112343D01*
X194499627Y-120110524D01*
X194497249Y-120108935D01*
X194495152Y-120106049D01*
X194494554Y-120105451D01*
X194494552Y-120105448D01*
X194494368Y-120105325D01*
X194428233Y-120061134D01*
X194428231Y-120061133D01*
X194428228Y-120061132D01*
X194428227Y-120061132D01*
X194369758Y-120049501D01*
X194369748Y-120049500D01*
X193930252Y-120049500D01*
X193930251Y-120049500D01*
X193930241Y-120049501D01*
X193871772Y-120061132D01*
X193871766Y-120061134D01*
X193805451Y-120105445D01*
X193798554Y-120112343D01*
X193796998Y-120110787D01*
X193759258Y-120140535D01*
X193698120Y-120142932D01*
X193651807Y-120111981D01*
X193651446Y-120112343D01*
X193649627Y-120110524D01*
X193647249Y-120108935D01*
X193645152Y-120106049D01*
X193644554Y-120105451D01*
X193644552Y-120105448D01*
X193644368Y-120105325D01*
X193578233Y-120061134D01*
X193578231Y-120061133D01*
X193578228Y-120061132D01*
X193578227Y-120061132D01*
X193519758Y-120049501D01*
X193519748Y-120049500D01*
X193080252Y-120049500D01*
X193080251Y-120049500D01*
X193080241Y-120049501D01*
X193021772Y-120061132D01*
X193021766Y-120061134D01*
X192955451Y-120105445D01*
X192948554Y-120112343D01*
X192946998Y-120110787D01*
X192909258Y-120140535D01*
X192848120Y-120142932D01*
X192801807Y-120111981D01*
X192801446Y-120112343D01*
X192799627Y-120110524D01*
X192797249Y-120108935D01*
X192795152Y-120106049D01*
X192794554Y-120105451D01*
X192794552Y-120105448D01*
X192794368Y-120105325D01*
X192728233Y-120061134D01*
X192728231Y-120061133D01*
X192728228Y-120061132D01*
X192728227Y-120061132D01*
X192669758Y-120049501D01*
X192669748Y-120049500D01*
X192230252Y-120049500D01*
X192230251Y-120049500D01*
X192230241Y-120049501D01*
X192171772Y-120061132D01*
X192171766Y-120061134D01*
X192105451Y-120105445D01*
X192098554Y-120112343D01*
X192096998Y-120110787D01*
X192059258Y-120140535D01*
X191998120Y-120142932D01*
X191951807Y-120111981D01*
X191951446Y-120112343D01*
X191949627Y-120110524D01*
X191947249Y-120108935D01*
X191945152Y-120106049D01*
X191944554Y-120105451D01*
X191944552Y-120105448D01*
X191944368Y-120105325D01*
X191878233Y-120061134D01*
X191878231Y-120061133D01*
X191878228Y-120061132D01*
X191878227Y-120061132D01*
X191819758Y-120049501D01*
X191819748Y-120049500D01*
X191380252Y-120049500D01*
X191380251Y-120049500D01*
X191380241Y-120049501D01*
X191321772Y-120061132D01*
X191321766Y-120061134D01*
X191255451Y-120105445D01*
X191248554Y-120112343D01*
X191246998Y-120110787D01*
X191209258Y-120140535D01*
X191148120Y-120142932D01*
X191101807Y-120111981D01*
X191101446Y-120112343D01*
X191099627Y-120110524D01*
X191097249Y-120108935D01*
X191095152Y-120106049D01*
X191094554Y-120105451D01*
X191094552Y-120105448D01*
X191094368Y-120105325D01*
X191028233Y-120061134D01*
X191028231Y-120061133D01*
X191028228Y-120061132D01*
X191028227Y-120061132D01*
X190969758Y-120049501D01*
X190969748Y-120049500D01*
X190530252Y-120049500D01*
X190530251Y-120049500D01*
X190530241Y-120049501D01*
X190471772Y-120061132D01*
X190471766Y-120061134D01*
X190405451Y-120105445D01*
X190398554Y-120112343D01*
X190396998Y-120110787D01*
X190359258Y-120140535D01*
X190298120Y-120142932D01*
X190251807Y-120111981D01*
X190251446Y-120112343D01*
X190249627Y-120110524D01*
X190247249Y-120108935D01*
X190245152Y-120106049D01*
X190244554Y-120105451D01*
X190244552Y-120105448D01*
X190244368Y-120105325D01*
X190178233Y-120061134D01*
X190178231Y-120061133D01*
X190178228Y-120061132D01*
X190178227Y-120061132D01*
X190119758Y-120049501D01*
X190119748Y-120049500D01*
X189680252Y-120049500D01*
X189680251Y-120049500D01*
X189680241Y-120049501D01*
X189621772Y-120061132D01*
X189621766Y-120061134D01*
X189555451Y-120105445D01*
X189548554Y-120112343D01*
X189546998Y-120110787D01*
X189509258Y-120140535D01*
X189448120Y-120142932D01*
X189401807Y-120111981D01*
X189401446Y-120112343D01*
X189399627Y-120110524D01*
X189397249Y-120108935D01*
X189395152Y-120106049D01*
X189394554Y-120105451D01*
X189394552Y-120105448D01*
X189394368Y-120105325D01*
X189328233Y-120061134D01*
X189328231Y-120061133D01*
X189328228Y-120061132D01*
X189328227Y-120061132D01*
X189269758Y-120049501D01*
X189269748Y-120049500D01*
X188830252Y-120049500D01*
X188830251Y-120049500D01*
X188830241Y-120049501D01*
X188771772Y-120061132D01*
X188771766Y-120061134D01*
X188705451Y-120105445D01*
X188705445Y-120105451D01*
X188661134Y-120171766D01*
X188661132Y-120171772D01*
X188649501Y-120230241D01*
X188649500Y-120230253D01*
X188649500Y-121069746D01*
X188649501Y-121069758D01*
X188661132Y-121128227D01*
X188661134Y-121128233D01*
X188705445Y-121194548D01*
X188705448Y-121194552D01*
X188771769Y-121238867D01*
X188807177Y-121245910D01*
X188830241Y-121250498D01*
X188830246Y-121250498D01*
X188830252Y-121250500D01*
X188830253Y-121250500D01*
X189269747Y-121250500D01*
X189269748Y-121250500D01*
X189328231Y-121238867D01*
X189394552Y-121194552D01*
X189394556Y-121194545D01*
X189401446Y-121187657D01*
X189403001Y-121189212D01*
X189440734Y-121159467D01*
X189501872Y-121157065D01*
X189548194Y-121188016D01*
X189548554Y-121187657D01*
X189550359Y-121189462D01*
X189552746Y-121191057D01*
X189554850Y-121193953D01*
X189555445Y-121194548D01*
X189555448Y-121194552D01*
X189621769Y-121238867D01*
X189657177Y-121245910D01*
X189680241Y-121250498D01*
X189680246Y-121250498D01*
X189680252Y-121250500D01*
X189680253Y-121250500D01*
X190119747Y-121250500D01*
X190119748Y-121250500D01*
X190178231Y-121238867D01*
X190244552Y-121194552D01*
X190244556Y-121194545D01*
X190251446Y-121187657D01*
X190253001Y-121189212D01*
X190290734Y-121159467D01*
X190351872Y-121157065D01*
X190398194Y-121188016D01*
X190398554Y-121187657D01*
X190400359Y-121189462D01*
X190402746Y-121191057D01*
X190404850Y-121193953D01*
X190405445Y-121194548D01*
X190405448Y-121194552D01*
X190471769Y-121238867D01*
X190507177Y-121245910D01*
X190530241Y-121250498D01*
X190530246Y-121250498D01*
X190530252Y-121250500D01*
X190530253Y-121250500D01*
X190969747Y-121250500D01*
X190969748Y-121250500D01*
X191028231Y-121238867D01*
X191094552Y-121194552D01*
X191094556Y-121194545D01*
X191101446Y-121187657D01*
X191103001Y-121189212D01*
X191140734Y-121159467D01*
X191201872Y-121157065D01*
X191248194Y-121188016D01*
X191248554Y-121187657D01*
X191250359Y-121189462D01*
X191252746Y-121191057D01*
X191254850Y-121193953D01*
X191255445Y-121194548D01*
X191255448Y-121194552D01*
X191321769Y-121238867D01*
X191357177Y-121245910D01*
X191380241Y-121250498D01*
X191380246Y-121250498D01*
X191380252Y-121250500D01*
X191380253Y-121250500D01*
X191819747Y-121250500D01*
X191819748Y-121250500D01*
X191878231Y-121238867D01*
X191944552Y-121194552D01*
X191944556Y-121194545D01*
X191951446Y-121187657D01*
X191953001Y-121189212D01*
X191990734Y-121159467D01*
X192051872Y-121157065D01*
X192098194Y-121188016D01*
X192098554Y-121187657D01*
X192100359Y-121189462D01*
X192102746Y-121191057D01*
X192104850Y-121193953D01*
X192105445Y-121194548D01*
X192105448Y-121194552D01*
X192171769Y-121238867D01*
X192207177Y-121245910D01*
X192230241Y-121250498D01*
X192230246Y-121250498D01*
X192230252Y-121250500D01*
X192230253Y-121250500D01*
X192669747Y-121250500D01*
X192669748Y-121250500D01*
X192728231Y-121238867D01*
X192794552Y-121194552D01*
X192794556Y-121194545D01*
X192801446Y-121187657D01*
X192803001Y-121189212D01*
X192840734Y-121159467D01*
X192901872Y-121157065D01*
X192948194Y-121188016D01*
X192948554Y-121187657D01*
X192950359Y-121189462D01*
X192952746Y-121191057D01*
X192954850Y-121193953D01*
X192955445Y-121194548D01*
X192955448Y-121194552D01*
X193021769Y-121238867D01*
X193057177Y-121245910D01*
X193080241Y-121250498D01*
X193080246Y-121250498D01*
X193080252Y-121250500D01*
X193080253Y-121250500D01*
X193519747Y-121250500D01*
X193519748Y-121250500D01*
X193578231Y-121238867D01*
X193644552Y-121194552D01*
X193644556Y-121194545D01*
X193651446Y-121187657D01*
X193653001Y-121189212D01*
X193690734Y-121159467D01*
X193751872Y-121157065D01*
X193798194Y-121188016D01*
X193798554Y-121187657D01*
X193800359Y-121189462D01*
X193802746Y-121191057D01*
X193804850Y-121193953D01*
X193805445Y-121194548D01*
X193805448Y-121194552D01*
X193871769Y-121238867D01*
X193907177Y-121245910D01*
X193930241Y-121250498D01*
X193930246Y-121250498D01*
X193930252Y-121250500D01*
X193930253Y-121250500D01*
X194369747Y-121250500D01*
X194369748Y-121250500D01*
X194428231Y-121238867D01*
X194494552Y-121194552D01*
X194494556Y-121194545D01*
X194501446Y-121187657D01*
X194503001Y-121189212D01*
X194540734Y-121159467D01*
X194601872Y-121157065D01*
X194648194Y-121188016D01*
X194648554Y-121187657D01*
X194650359Y-121189462D01*
X194652746Y-121191057D01*
X194654850Y-121193953D01*
X194655445Y-121194548D01*
X194655448Y-121194552D01*
X194721769Y-121238867D01*
X194757177Y-121245910D01*
X194780241Y-121250498D01*
X194780246Y-121250498D01*
X194780252Y-121250500D01*
X194780253Y-121250500D01*
X195219747Y-121250500D01*
X195219748Y-121250500D01*
X195278231Y-121238867D01*
X195344552Y-121194552D01*
X195344556Y-121194545D01*
X195351446Y-121187657D01*
X195353001Y-121189212D01*
X195390734Y-121159467D01*
X195451872Y-121157065D01*
X195498194Y-121188016D01*
X195498554Y-121187657D01*
X195500359Y-121189462D01*
X195502746Y-121191057D01*
X195504850Y-121193953D01*
X195505445Y-121194548D01*
X195505448Y-121194552D01*
X195571769Y-121238867D01*
X195607177Y-121245910D01*
X195630241Y-121250498D01*
X195630246Y-121250498D01*
X195630252Y-121250500D01*
X195630253Y-121250500D01*
X196069747Y-121250500D01*
X196069748Y-121250500D01*
X196128231Y-121238867D01*
X196194552Y-121194552D01*
X196194556Y-121194545D01*
X196201446Y-121187657D01*
X196203001Y-121189212D01*
X196240734Y-121159467D01*
X196301872Y-121157065D01*
X196343670Y-121181036D01*
X196351373Y-121188453D01*
X196355448Y-121194552D01*
X196362825Y-121199481D01*
X196369170Y-121205591D01*
X196379626Y-121225189D01*
X196393381Y-121242637D01*
X196395617Y-121255162D01*
X196397971Y-121259573D01*
X196397285Y-121264501D01*
X196399500Y-121276903D01*
X196399500Y-122239564D01*
X196419978Y-122315988D01*
X196419979Y-122315989D01*
X196439904Y-122350500D01*
X196459540Y-122384511D01*
X196795528Y-122720499D01*
X197105525Y-123030496D01*
X197133302Y-123085013D01*
X197123731Y-123145445D01*
X197080466Y-123188710D01*
X197035521Y-123199500D01*
X196665479Y-123199500D01*
X196607288Y-123180593D01*
X196595475Y-123170504D01*
X195999496Y-122574525D01*
X195971719Y-122520008D01*
X195970500Y-122504521D01*
X195970500Y-122275685D01*
X195969517Y-122268216D01*
X195964068Y-122226827D01*
X195963715Y-122226071D01*
X195914066Y-122119598D01*
X195914065Y-122119597D01*
X195914065Y-122119596D01*
X195830404Y-122035935D01*
X195830402Y-122035934D01*
X195830401Y-122035933D01*
X195723175Y-121985932D01*
X195690601Y-121981644D01*
X195674316Y-121979500D01*
X195325684Y-121979500D01*
X195309398Y-121981644D01*
X195276825Y-121985932D01*
X195276824Y-121985932D01*
X195169598Y-122035933D01*
X195085933Y-122119598D01*
X195079724Y-122132915D01*
X195037995Y-122177663D01*
X194977934Y-122189337D01*
X194922482Y-122163478D01*
X194900276Y-122132915D01*
X194894066Y-122119598D01*
X194894065Y-122119597D01*
X194894065Y-122119596D01*
X194810404Y-122035935D01*
X194810402Y-122035934D01*
X194810401Y-122035933D01*
X194703175Y-121985932D01*
X194670601Y-121981644D01*
X194654316Y-121979500D01*
X194305684Y-121979500D01*
X194289398Y-121981644D01*
X194256825Y-121985932D01*
X194256824Y-121985932D01*
X194149598Y-122035933D01*
X194149596Y-122035934D01*
X194149596Y-122035935D01*
X194065935Y-122119596D01*
X194065934Y-122119597D01*
X194065028Y-122120504D01*
X194010511Y-122148281D01*
X193995024Y-122149500D01*
X187449500Y-122149500D01*
X187391309Y-122130593D01*
X187355345Y-122081093D01*
X187350500Y-122050500D01*
X187350500Y-120059644D01*
X187369407Y-120001453D01*
X187418907Y-119965489D01*
X187480093Y-119965489D01*
X187504497Y-119977326D01*
X187521769Y-119988867D01*
X187557765Y-119996027D01*
X187580241Y-120000498D01*
X187580246Y-120000498D01*
X187580252Y-120000500D01*
X187580253Y-120000500D01*
X188419747Y-120000500D01*
X188419748Y-120000500D01*
X188478231Y-119988867D01*
X188544552Y-119944552D01*
X188588867Y-119878231D01*
X188600500Y-119819748D01*
X188600500Y-119380252D01*
X188588867Y-119321769D01*
X188544552Y-119255448D01*
X188544548Y-119255445D01*
X188537657Y-119248554D01*
X188539212Y-119246998D01*
X188509467Y-119209266D01*
X188507065Y-119148128D01*
X188538016Y-119101805D01*
X188537657Y-119101446D01*
X188539462Y-119099640D01*
X188541057Y-119097254D01*
X188543953Y-119095149D01*
X188544545Y-119094556D01*
X188544552Y-119094552D01*
X188588867Y-119028231D01*
X188600500Y-118969748D01*
X188600500Y-118530252D01*
X188588867Y-118471769D01*
X188544552Y-118405448D01*
X188544548Y-118405445D01*
X188537657Y-118398554D01*
X188539212Y-118396998D01*
X188509467Y-118359266D01*
X188507065Y-118298128D01*
X188538016Y-118251805D01*
X188537657Y-118251446D01*
X188539462Y-118249640D01*
X188541057Y-118247254D01*
X188543953Y-118245149D01*
X188544545Y-118244556D01*
X188544552Y-118244552D01*
X188588867Y-118178231D01*
X188600500Y-118119748D01*
X188600500Y-117680252D01*
X188588867Y-117621769D01*
X188585136Y-117616186D01*
X188544554Y-117555451D01*
X188544552Y-117555448D01*
X188544548Y-117555445D01*
X188537657Y-117548554D01*
X188539212Y-117546998D01*
X188509467Y-117509266D01*
X188507065Y-117448128D01*
X188538016Y-117401805D01*
X188537657Y-117401446D01*
X188539462Y-117399640D01*
X188541057Y-117397254D01*
X188543953Y-117395149D01*
X188544545Y-117394556D01*
X188544552Y-117394552D01*
X188588867Y-117328231D01*
X188600500Y-117269748D01*
X188600500Y-116830252D01*
X188588867Y-116771769D01*
X188544552Y-116705448D01*
X188544548Y-116705445D01*
X188537657Y-116698554D01*
X188539212Y-116696998D01*
X188509467Y-116659266D01*
X188507065Y-116598128D01*
X188538016Y-116551805D01*
X188537657Y-116551446D01*
X188539462Y-116549640D01*
X188541057Y-116547254D01*
X188543953Y-116545149D01*
X188544545Y-116544556D01*
X188544552Y-116544552D01*
X188588867Y-116478231D01*
X188600500Y-116419748D01*
X188600500Y-115980252D01*
X188588867Y-115921769D01*
X188544552Y-115855448D01*
X188544548Y-115855445D01*
X188537657Y-115848554D01*
X188539212Y-115846998D01*
X188509467Y-115809266D01*
X188507065Y-115748128D01*
X188538016Y-115701805D01*
X188537657Y-115701446D01*
X188539462Y-115699640D01*
X188541057Y-115697254D01*
X188543953Y-115695149D01*
X188544545Y-115694556D01*
X188544552Y-115694552D01*
X188588867Y-115628231D01*
X188600500Y-115569748D01*
X188600500Y-115130252D01*
X188588867Y-115071769D01*
X188544552Y-115005448D01*
X188544548Y-115005445D01*
X188537657Y-114998554D01*
X188539212Y-114996998D01*
X188509467Y-114959266D01*
X188507065Y-114898128D01*
X188531036Y-114856330D01*
X188538453Y-114848626D01*
X188544552Y-114844552D01*
X188549481Y-114837174D01*
X188555591Y-114830830D01*
X188575189Y-114820373D01*
X188592637Y-114806619D01*
X188605162Y-114804382D01*
X188609573Y-114802029D01*
X188614501Y-114802714D01*
X188626903Y-114800500D01*
X188922938Y-114800500D01*
X188981129Y-114819407D01*
X189008674Y-114850000D01*
X189013002Y-114857496D01*
X189019480Y-114868716D01*
X189131284Y-114980520D01*
X189268216Y-115059577D01*
X189420943Y-115100500D01*
X189420945Y-115100500D01*
X189579055Y-115100500D01*
X189579057Y-115100500D01*
X189731784Y-115059577D01*
X189868716Y-114980520D01*
X189980520Y-114868716D01*
X190059577Y-114731784D01*
X190100500Y-114579057D01*
X190100500Y-114420943D01*
X190059577Y-114268216D01*
X189980520Y-114131284D01*
X189868716Y-114019480D01*
X189731784Y-113940423D01*
X189579057Y-113899500D01*
X189420943Y-113899500D01*
X189307037Y-113930021D01*
X189268216Y-113940423D01*
X189131284Y-114019480D01*
X189019478Y-114131286D01*
X189008674Y-114150000D01*
X188963204Y-114190941D01*
X188922938Y-114199500D01*
X188626903Y-114199500D01*
X188568712Y-114180593D01*
X188555591Y-114169170D01*
X188549481Y-114162825D01*
X188544552Y-114155448D01*
X188538453Y-114151373D01*
X188531036Y-114143670D01*
X188522110Y-114125303D01*
X188509467Y-114109266D01*
X188509040Y-114098409D01*
X188504292Y-114088639D01*
X188507866Y-114068532D01*
X188507065Y-114048128D01*
X188513100Y-114039095D01*
X188515002Y-114028398D01*
X188529712Y-114014233D01*
X188538016Y-114001805D01*
X188537657Y-114001446D01*
X188539462Y-113999640D01*
X188541057Y-113997254D01*
X188543953Y-113995149D01*
X188544545Y-113994556D01*
X188544552Y-113994552D01*
X188588867Y-113928231D01*
X188600500Y-113869748D01*
X188600500Y-113430252D01*
X188588867Y-113371769D01*
X188544552Y-113305448D01*
X188544548Y-113305445D01*
X188537657Y-113298554D01*
X188539212Y-113296998D01*
X188509467Y-113259266D01*
X188507065Y-113198128D01*
X188538016Y-113151805D01*
X188537657Y-113151446D01*
X188539462Y-113149640D01*
X188541057Y-113147254D01*
X188543953Y-113145149D01*
X188544545Y-113144556D01*
X188544552Y-113144552D01*
X188588867Y-113078231D01*
X188600500Y-113019748D01*
X188600500Y-112580252D01*
X188588867Y-112521769D01*
X188544552Y-112455448D01*
X188544548Y-112455445D01*
X188537657Y-112448554D01*
X188539212Y-112446998D01*
X188509467Y-112409266D01*
X188507065Y-112348128D01*
X188538016Y-112301805D01*
X188537657Y-112301446D01*
X188539462Y-112299640D01*
X188541057Y-112297254D01*
X188543953Y-112295149D01*
X188544545Y-112294556D01*
X188544552Y-112294552D01*
X188588867Y-112228231D01*
X188600500Y-112169748D01*
X188600500Y-111730252D01*
X188588867Y-111671769D01*
X188544552Y-111605448D01*
X188544548Y-111605445D01*
X188537657Y-111598554D01*
X188539212Y-111596998D01*
X188509467Y-111559266D01*
X188507065Y-111498128D01*
X188538016Y-111451805D01*
X188537657Y-111451446D01*
X188539462Y-111449640D01*
X188541057Y-111447254D01*
X188543953Y-111445149D01*
X188544545Y-111444556D01*
X188544552Y-111444552D01*
X188588867Y-111378231D01*
X188600500Y-111319748D01*
X188600500Y-110880252D01*
X188599879Y-110877132D01*
X188594383Y-110849500D01*
X188588867Y-110821769D01*
X188544552Y-110755448D01*
X188544548Y-110755445D01*
X188537657Y-110748554D01*
X188539212Y-110746998D01*
X188509467Y-110709266D01*
X188507065Y-110648128D01*
X188531036Y-110606330D01*
X188538453Y-110598626D01*
X188544552Y-110594552D01*
X188549481Y-110587174D01*
X188555591Y-110580830D01*
X188575189Y-110570373D01*
X188592637Y-110556619D01*
X188605162Y-110554382D01*
X188609573Y-110552029D01*
X188614501Y-110552714D01*
X188626903Y-110550500D01*
X188922938Y-110550500D01*
X188981129Y-110569407D01*
X189008674Y-110600000D01*
X189019480Y-110618716D01*
X189131284Y-110730520D01*
X189268216Y-110809577D01*
X189420943Y-110850500D01*
X189420945Y-110850500D01*
X189579055Y-110850500D01*
X189579057Y-110850500D01*
X189731784Y-110809577D01*
X189868716Y-110730520D01*
X189980520Y-110618716D01*
X190059577Y-110481784D01*
X190100500Y-110329057D01*
X190100500Y-110170943D01*
X190059577Y-110018216D01*
X189980520Y-109881284D01*
X189868716Y-109769480D01*
X189731784Y-109690423D01*
X189579057Y-109649500D01*
X189420943Y-109649500D01*
X189284014Y-109686190D01*
X189268216Y-109690423D01*
X189131284Y-109769480D01*
X189019478Y-109881286D01*
X189008674Y-109900000D01*
X188963204Y-109940941D01*
X188922938Y-109949500D01*
X188626903Y-109949500D01*
X188568712Y-109930593D01*
X188555591Y-109919170D01*
X188549481Y-109912825D01*
X188544552Y-109905448D01*
X188538453Y-109901373D01*
X188531036Y-109893670D01*
X188522110Y-109875303D01*
X188509467Y-109859266D01*
X188509040Y-109848409D01*
X188504292Y-109838639D01*
X188507866Y-109818532D01*
X188507065Y-109798128D01*
X188513100Y-109789095D01*
X188515002Y-109778398D01*
X188529712Y-109764233D01*
X188538016Y-109751805D01*
X188537657Y-109751446D01*
X188539462Y-109749640D01*
X188541057Y-109747254D01*
X188543953Y-109745149D01*
X188544545Y-109744556D01*
X188544552Y-109744552D01*
X188588867Y-109678231D01*
X188600500Y-109619748D01*
X188600500Y-109180252D01*
X188588867Y-109121769D01*
X188544552Y-109055448D01*
X188544548Y-109055445D01*
X188478233Y-109011134D01*
X188478231Y-109011133D01*
X188478228Y-109011132D01*
X188478227Y-109011132D01*
X188419758Y-108999501D01*
X188419748Y-108999500D01*
X187580252Y-108999500D01*
X187580251Y-108999500D01*
X187580241Y-108999501D01*
X187521772Y-109011132D01*
X187521766Y-109011134D01*
X187489320Y-109032815D01*
X187434318Y-109049500D01*
X186586190Y-109049500D01*
X186527999Y-109030593D01*
X186516186Y-109020504D01*
X186125358Y-108629676D01*
X185715212Y-108219530D01*
X185635288Y-108173386D01*
X185546144Y-108149500D01*
X185546142Y-108149500D01*
X184449500Y-108149500D01*
X184391309Y-108130593D01*
X184355345Y-108081093D01*
X184350500Y-108050500D01*
X184350500Y-106953857D01*
X184341681Y-106920944D01*
X184326614Y-106864712D01*
X184304618Y-106826614D01*
X184301822Y-106821772D01*
X184299514Y-106817774D01*
X184280470Y-106784788D01*
X183835183Y-106339501D01*
X183807408Y-106284987D01*
X183816979Y-106224555D01*
X183860244Y-106181290D01*
X183905189Y-106170500D01*
X207805500Y-106170500D01*
X207863691Y-106189407D01*
G37*
G04 #@! TD.AperFunction*
G04 #@! TA.AperFunction,Conductor*
G36*
X184673789Y-117539407D02*
G01*
X184685602Y-117549497D01*
X184940615Y-117804511D01*
X184996565Y-117860460D01*
X185065083Y-117900019D01*
X185065087Y-117900021D01*
X185141511Y-117920499D01*
X185141513Y-117920500D01*
X185141514Y-117920500D01*
X185554521Y-117920500D01*
X185612712Y-117939407D01*
X185624525Y-117949496D01*
X185870504Y-118195475D01*
X185874130Y-118202592D01*
X185880593Y-118207288D01*
X185887756Y-118229336D01*
X185898281Y-118249992D01*
X185899500Y-118265479D01*
X185899500Y-118431069D01*
X185880593Y-118489260D01*
X185850002Y-118516805D01*
X185831285Y-118527611D01*
X185831284Y-118527612D01*
X185719480Y-118639416D01*
X185640423Y-118776348D01*
X185599500Y-118929075D01*
X185599500Y-119087189D01*
X185640423Y-119239916D01*
X185719480Y-119376848D01*
X185831284Y-119488652D01*
X185968216Y-119567709D01*
X186120943Y-119608632D01*
X186120945Y-119608632D01*
X186279055Y-119608632D01*
X186279057Y-119608632D01*
X186431784Y-119567709D01*
X186501001Y-119527746D01*
X186560848Y-119515025D01*
X186616744Y-119539911D01*
X186647337Y-119592899D01*
X186649500Y-119613483D01*
X186649500Y-121813810D01*
X186630593Y-121872001D01*
X186620504Y-121883814D01*
X185971363Y-122532954D01*
X185916846Y-122560731D01*
X185859520Y-122552674D01*
X185759489Y-122506028D01*
X185734694Y-122502764D01*
X185709901Y-122499500D01*
X185709899Y-122499500D01*
X185290103Y-122499500D01*
X185290092Y-122499501D01*
X185240513Y-122506027D01*
X185240511Y-122506027D01*
X185131686Y-122556774D01*
X185046774Y-122641686D01*
X184996029Y-122750510D01*
X184996028Y-122750511D01*
X184995477Y-122754699D01*
X184989697Y-122798607D01*
X184989500Y-122800100D01*
X184989500Y-123159895D01*
X184989501Y-123159907D01*
X184996027Y-123209486D01*
X184996027Y-123209488D01*
X185046774Y-123318313D01*
X185046775Y-123318314D01*
X185046776Y-123318316D01*
X185120505Y-123392045D01*
X185148281Y-123446560D01*
X185149500Y-123462047D01*
X185149500Y-124463810D01*
X185147031Y-124471407D01*
X185148281Y-124479297D01*
X185137756Y-124499952D01*
X185130593Y-124522001D01*
X185120505Y-124533812D01*
X185033812Y-124620504D01*
X184979297Y-124648281D01*
X184963810Y-124649500D01*
X184472870Y-124649500D01*
X184472863Y-124649501D01*
X184392505Y-124665484D01*
X184392503Y-124665485D01*
X184301379Y-124726373D01*
X184301373Y-124726379D01*
X184240486Y-124817501D01*
X184240486Y-124817503D01*
X184240485Y-124817505D01*
X184225094Y-124894880D01*
X184224500Y-124897867D01*
X184224500Y-125102129D01*
X184224501Y-125102137D01*
X184240484Y-125182494D01*
X184240486Y-125182498D01*
X184248840Y-125195001D01*
X184265447Y-125253889D01*
X184248840Y-125304999D01*
X184240485Y-125317503D01*
X184240484Y-125317504D01*
X184224500Y-125397864D01*
X184224500Y-125602129D01*
X184224501Y-125602137D01*
X184240484Y-125682494D01*
X184240485Y-125682496D01*
X184301373Y-125773620D01*
X184301376Y-125773624D01*
X184392505Y-125834515D01*
X184472867Y-125850500D01*
X185092324Y-125850499D01*
X185092334Y-125850500D01*
X185103856Y-125850500D01*
X186313810Y-125850500D01*
X186372001Y-125869407D01*
X186383814Y-125879496D01*
X186620504Y-126116186D01*
X186648281Y-126170703D01*
X186649500Y-126186190D01*
X186649500Y-130313810D01*
X186630593Y-130372001D01*
X186620504Y-130383814D01*
X186383814Y-130620504D01*
X186329297Y-130648281D01*
X186313810Y-130649500D01*
X184170720Y-130649500D01*
X184112529Y-130630593D01*
X184076565Y-130581093D01*
X184075094Y-130576124D01*
X184065834Y-130541568D01*
X184059577Y-130518216D01*
X183980520Y-130381284D01*
X183868716Y-130269480D01*
X183731784Y-130190423D01*
X183579057Y-130149500D01*
X183420943Y-130149500D01*
X183284021Y-130186188D01*
X183268216Y-130190423D01*
X183131284Y-130269480D01*
X183019479Y-130381285D01*
X183001244Y-130412869D01*
X182955773Y-130453810D01*
X182894923Y-130460204D01*
X182841936Y-130429611D01*
X182827299Y-130408314D01*
X182800041Y-130354818D01*
X182778050Y-130311658D01*
X182688342Y-130221950D01*
X182654554Y-130204734D01*
X182611290Y-130161469D01*
X182600500Y-130116525D01*
X182600500Y-127436190D01*
X182619407Y-127377999D01*
X182629496Y-127366186D01*
X183116186Y-126879496D01*
X183170703Y-126851719D01*
X183186190Y-126850500D01*
X184125500Y-126850500D01*
X184183691Y-126869407D01*
X184219655Y-126918907D01*
X184224500Y-126949499D01*
X184224500Y-127102129D01*
X184224501Y-127102137D01*
X184240484Y-127182494D01*
X184240485Y-127182496D01*
X184297762Y-127268216D01*
X184301376Y-127273624D01*
X184392505Y-127334515D01*
X184472867Y-127350500D01*
X185827132Y-127350499D01*
X185907495Y-127334515D01*
X185998624Y-127273624D01*
X186059515Y-127182495D01*
X186075500Y-127102133D01*
X186075499Y-126897868D01*
X186071995Y-126880253D01*
X186060363Y-126821769D01*
X186059515Y-126817505D01*
X186051159Y-126805000D01*
X186034551Y-126746114D01*
X186051159Y-126694999D01*
X186059515Y-126682495D01*
X186075500Y-126602133D01*
X186075499Y-126397868D01*
X186075374Y-126397242D01*
X186059515Y-126317505D01*
X186059514Y-126317503D01*
X185998626Y-126226379D01*
X185998624Y-126226376D01*
X185998620Y-126226373D01*
X185907497Y-126165486D01*
X185907496Y-126165485D01*
X185907495Y-126165485D01*
X185827133Y-126149500D01*
X185196145Y-126149500D01*
X185196144Y-126149500D01*
X182953856Y-126149500D01*
X182878368Y-126169727D01*
X182864712Y-126173386D01*
X182784788Y-126219530D01*
X181969528Y-127034790D01*
X181960234Y-127050888D01*
X181914764Y-127091828D01*
X181853913Y-127098222D01*
X181800926Y-127067628D01*
X181776041Y-127011732D01*
X181775499Y-127001395D01*
X181775499Y-126897868D01*
X181771995Y-126880253D01*
X181759515Y-126817505D01*
X181759514Y-126817503D01*
X181698626Y-126726379D01*
X181698624Y-126726376D01*
X181698620Y-126726373D01*
X181607497Y-126665486D01*
X181607496Y-126665485D01*
X181607495Y-126665485D01*
X181527133Y-126649500D01*
X181527132Y-126649500D01*
X180172870Y-126649500D01*
X180172863Y-126649501D01*
X180142696Y-126655502D01*
X180081935Y-126648310D01*
X180053379Y-126628408D01*
X179829496Y-126404525D01*
X179801719Y-126350008D01*
X179800500Y-126334521D01*
X179800500Y-126299351D01*
X179819407Y-126241160D01*
X179868907Y-126205196D01*
X179930093Y-126205196D01*
X179979593Y-126241160D01*
X179981812Y-126244345D01*
X180001376Y-126273624D01*
X180092505Y-126334515D01*
X180172867Y-126350500D01*
X181527132Y-126350499D01*
X181607495Y-126334515D01*
X181633431Y-126317184D01*
X181688433Y-126300500D01*
X181712658Y-126300500D01*
X181712658Y-126300499D01*
X181789084Y-126280021D01*
X181857606Y-126240460D01*
X181913555Y-126184511D01*
X184240460Y-123857606D01*
X184253788Y-123834521D01*
X184280020Y-123789087D01*
X184280020Y-123789085D01*
X184280022Y-123789083D01*
X184300500Y-123712657D01*
X184300500Y-123633533D01*
X184300500Y-117645479D01*
X184302968Y-117637881D01*
X184301719Y-117629992D01*
X184312243Y-117609336D01*
X184319407Y-117587288D01*
X184329496Y-117575475D01*
X184355475Y-117549496D01*
X184409992Y-117521719D01*
X184425479Y-117520500D01*
X184615598Y-117520500D01*
X184673789Y-117539407D01*
G37*
G04 #@! TD.AperFunction*
G04 #@! TA.AperFunction,Conductor*
G36*
X179653003Y-106189407D02*
G01*
X179688967Y-106238907D01*
X179688967Y-106300093D01*
X179664817Y-106339501D01*
X178553819Y-107450499D01*
X178219530Y-107784788D01*
X178173386Y-107864712D01*
X178149500Y-107953857D01*
X178149500Y-109313810D01*
X178130593Y-109372001D01*
X178120504Y-109383814D01*
X177933814Y-109570504D01*
X177879297Y-109598281D01*
X177863810Y-109599500D01*
X175486188Y-109599500D01*
X175478590Y-109597031D01*
X175470701Y-109598281D01*
X175450045Y-109587756D01*
X175427997Y-109580593D01*
X175416190Y-109570509D01*
X175390682Y-109545001D01*
X175362907Y-109490487D01*
X175372478Y-109430055D01*
X175390681Y-109404999D01*
X175439198Y-109356483D01*
X175490573Y-109251393D01*
X175500500Y-109183260D01*
X175500500Y-108816740D01*
X175490573Y-108748607D01*
X175479271Y-108725489D01*
X175451919Y-108669539D01*
X175439198Y-108643517D01*
X175356483Y-108560802D01*
X175356481Y-108560801D01*
X175251395Y-108509427D01*
X175224139Y-108505456D01*
X175183260Y-108499500D01*
X175183257Y-108499500D01*
X175037000Y-108499500D01*
X174978809Y-108480593D01*
X174942845Y-108431093D01*
X174938000Y-108400500D01*
X174938000Y-107527979D01*
X174940468Y-107520381D01*
X174939219Y-107512492D01*
X174949743Y-107491836D01*
X174956907Y-107469788D01*
X174966996Y-107457975D01*
X175095475Y-107329496D01*
X175149992Y-107301719D01*
X175165479Y-107300500D01*
X175422938Y-107300500D01*
X175481129Y-107319407D01*
X175508674Y-107350000D01*
X175511850Y-107355501D01*
X175519480Y-107368716D01*
X175631284Y-107480520D01*
X175768216Y-107559577D01*
X175920943Y-107600500D01*
X175920945Y-107600500D01*
X176079055Y-107600500D01*
X176079057Y-107600500D01*
X176231784Y-107559577D01*
X176368716Y-107480520D01*
X176480520Y-107368716D01*
X176559577Y-107231784D01*
X176600500Y-107079057D01*
X176600500Y-106920943D01*
X176559577Y-106768216D01*
X176480520Y-106631284D01*
X176368716Y-106519480D01*
X176231784Y-106440423D01*
X176079057Y-106399500D01*
X175920943Y-106399500D01*
X175768216Y-106440423D01*
X175631284Y-106519480D01*
X175519478Y-106631286D01*
X175508674Y-106650000D01*
X175463204Y-106690941D01*
X175422938Y-106699500D01*
X174960435Y-106699500D01*
X174884011Y-106719978D01*
X174884007Y-106719980D01*
X174822579Y-106755446D01*
X174815496Y-106759535D01*
X174815485Y-106759543D01*
X174397039Y-107177989D01*
X174357480Y-107246507D01*
X174357478Y-107246511D01*
X174337000Y-107322935D01*
X174337000Y-108400500D01*
X174318093Y-108458691D01*
X174268593Y-108494655D01*
X174238000Y-108499500D01*
X174091740Y-108499500D01*
X174057673Y-108504463D01*
X174023604Y-108509427D01*
X173918518Y-108560801D01*
X173835801Y-108643518D01*
X173835577Y-108643978D01*
X173835180Y-108644387D01*
X173831035Y-108650194D01*
X173830164Y-108649572D01*
X173793035Y-108687953D01*
X173746635Y-108699500D01*
X173253365Y-108699500D01*
X173195174Y-108680593D01*
X173169389Y-108649891D01*
X173168965Y-108650194D01*
X173165115Y-108644802D01*
X173164423Y-108643978D01*
X173164198Y-108643518D01*
X173164198Y-108643517D01*
X173081483Y-108560802D01*
X173081481Y-108560801D01*
X172976395Y-108509427D01*
X172949139Y-108505456D01*
X172908260Y-108499500D01*
X171816740Y-108499500D01*
X171782673Y-108504463D01*
X171748604Y-108509427D01*
X171643518Y-108560801D01*
X171560801Y-108643518D01*
X171509427Y-108748604D01*
X171507841Y-108759489D01*
X171502812Y-108794012D01*
X171499500Y-108816743D01*
X171499500Y-109034521D01*
X171480593Y-109092712D01*
X171470504Y-109104525D01*
X170539504Y-110035525D01*
X170484987Y-110063302D01*
X170424555Y-110053731D01*
X170381290Y-110010466D01*
X170370500Y-109965521D01*
X170370500Y-109075479D01*
X170389407Y-109017288D01*
X170399496Y-109005475D01*
X171855475Y-107549496D01*
X171909992Y-107521719D01*
X171925479Y-107520500D01*
X172154314Y-107520500D01*
X172154316Y-107520500D01*
X172203173Y-107514068D01*
X172310404Y-107464065D01*
X172394065Y-107380404D01*
X172444068Y-107273173D01*
X172450500Y-107224316D01*
X172450500Y-106775684D01*
X172444068Y-106726827D01*
X172440875Y-106719980D01*
X172394066Y-106619598D01*
X172394065Y-106619597D01*
X172394065Y-106619596D01*
X172310404Y-106535935D01*
X172310402Y-106535934D01*
X172310401Y-106535933D01*
X172203175Y-106485932D01*
X172170601Y-106481644D01*
X172154316Y-106479500D01*
X171805684Y-106479500D01*
X171789398Y-106481644D01*
X171756825Y-106485932D01*
X171756824Y-106485932D01*
X171649598Y-106535933D01*
X171565933Y-106619598D01*
X171515932Y-106726824D01*
X171515932Y-106726825D01*
X171509500Y-106775685D01*
X171509500Y-107004521D01*
X171490593Y-107062712D01*
X171480504Y-107074525D01*
X169885489Y-108669540D01*
X169885488Y-108669539D01*
X169829539Y-108725489D01*
X169789980Y-108794007D01*
X169789978Y-108794012D01*
X169788158Y-108800804D01*
X169754832Y-108852116D01*
X169697710Y-108874041D01*
X169678262Y-108873142D01*
X169653261Y-108869500D01*
X169653260Y-108869500D01*
X168436740Y-108869500D01*
X168368607Y-108879427D01*
X168368606Y-108879427D01*
X168368602Y-108879428D01*
X168311827Y-108907183D01*
X168251245Y-108915753D01*
X168197196Y-108887077D01*
X168172722Y-108843867D01*
X168136281Y-108707865D01*
X168136279Y-108707862D01*
X168136279Y-108707860D01*
X168060518Y-108576639D01*
X168060516Y-108576637D01*
X168060515Y-108576635D01*
X167953365Y-108469485D01*
X167953362Y-108469483D01*
X167953360Y-108469481D01*
X167822138Y-108393720D01*
X167822140Y-108393720D01*
X167765347Y-108378503D01*
X167675766Y-108354500D01*
X167524234Y-108354500D01*
X167434652Y-108378503D01*
X167377860Y-108393720D01*
X167246639Y-108469481D01*
X167139481Y-108576639D01*
X167063720Y-108707860D01*
X167047138Y-108769746D01*
X167024500Y-108854234D01*
X167024500Y-109005766D01*
X167043193Y-109075529D01*
X167063720Y-109152139D01*
X167139481Y-109283360D01*
X167139483Y-109283362D01*
X167139485Y-109283365D01*
X167246635Y-109390515D01*
X167246637Y-109390516D01*
X167246639Y-109390518D01*
X167377861Y-109466279D01*
X167377862Y-109466279D01*
X167377865Y-109466281D01*
X167461832Y-109488779D01*
X167474979Y-109497316D01*
X167490124Y-109501374D01*
X167499993Y-109513560D01*
X167513145Y-109522101D01*
X167518763Y-109536737D01*
X167528631Y-109548922D01*
X167529452Y-109564583D01*
X167535072Y-109579223D01*
X167531836Y-109610024D01*
X167529232Y-109619744D01*
X167529231Y-109619747D01*
X167520516Y-109652273D01*
X167520516Y-109729238D01*
X167519669Y-109742161D01*
X167519500Y-109743444D01*
X167519500Y-110523584D01*
X167517031Y-110531181D01*
X167518281Y-110539071D01*
X167507757Y-110559725D01*
X167500593Y-110581775D01*
X167490504Y-110593587D01*
X167363105Y-110720987D01*
X167308588Y-110748765D01*
X167293101Y-110749984D01*
X166402243Y-110749984D01*
X166296789Y-110749984D01*
X166234445Y-110766688D01*
X166194923Y-110777278D01*
X166103607Y-110830000D01*
X161849516Y-115084091D01*
X161796795Y-115175407D01*
X161796793Y-115175410D01*
X161795590Y-115179899D01*
X161795590Y-115179901D01*
X161769500Y-115277273D01*
X161769500Y-115277274D01*
X161769500Y-117378785D01*
X161750593Y-117436976D01*
X161722011Y-117461762D01*
X161722290Y-117462140D01*
X161717491Y-117465681D01*
X161716769Y-117466308D01*
X161716323Y-117466543D01*
X161608571Y-117546069D01*
X161608569Y-117546071D01*
X161578149Y-117587288D01*
X161540810Y-117637881D01*
X161529043Y-117653824D01*
X161484815Y-117780222D01*
X161484813Y-117780231D01*
X161482000Y-117810226D01*
X161482000Y-118829773D01*
X161484813Y-118859768D01*
X161484815Y-118859777D01*
X161529043Y-118986175D01*
X161529044Y-118986176D01*
X161529045Y-118986179D01*
X161608570Y-119093930D01*
X161716321Y-119173455D01*
X161842726Y-119217686D01*
X161872726Y-119220499D01*
X161872730Y-119220500D01*
X161872736Y-119220500D01*
X162467270Y-119220500D01*
X162467272Y-119220499D01*
X162497274Y-119217686D01*
X162623679Y-119173455D01*
X162731430Y-119093930D01*
X162810955Y-118986179D01*
X162855186Y-118859774D01*
X162857999Y-118829772D01*
X162858000Y-118829770D01*
X162858000Y-117810230D01*
X162857999Y-117810226D01*
X162855186Y-117780231D01*
X162855186Y-117780226D01*
X162810955Y-117653821D01*
X162731430Y-117546070D01*
X162623679Y-117466545D01*
X162623678Y-117466544D01*
X162623676Y-117466543D01*
X162623231Y-117466308D01*
X162622912Y-117465979D01*
X162617710Y-117462140D01*
X162618347Y-117461275D01*
X162580623Y-117422396D01*
X162570500Y-117378785D01*
X162570500Y-115536901D01*
X162589407Y-115478710D01*
X162599496Y-115466897D01*
X166486413Y-111579980D01*
X166540930Y-111552203D01*
X166556417Y-111550984D01*
X167000500Y-111550984D01*
X167058691Y-111569891D01*
X167094655Y-111619391D01*
X167099500Y-111649984D01*
X167099500Y-112259833D01*
X167123794Y-112350500D01*
X167126794Y-112361695D01*
X167126794Y-112361696D01*
X167179365Y-112452751D01*
X167179520Y-112453019D01*
X167254087Y-112527586D01*
X167254088Y-112527586D01*
X167490505Y-112764004D01*
X167518281Y-112818518D01*
X167519500Y-112834005D01*
X167519500Y-113791103D01*
X167519500Y-113896557D01*
X167541992Y-113980499D01*
X167546794Y-113998421D01*
X167547300Y-113999297D01*
X167547450Y-114000007D01*
X167549277Y-114004416D01*
X167548460Y-114004754D01*
X167560023Y-114059145D01*
X167535138Y-114115041D01*
X167487188Y-114144426D01*
X167377860Y-114173720D01*
X167246639Y-114249481D01*
X167139481Y-114356639D01*
X167063720Y-114487860D01*
X167047204Y-114549500D01*
X167024500Y-114634234D01*
X167024500Y-114785766D01*
X167046726Y-114868715D01*
X167063720Y-114932139D01*
X167139481Y-115063360D01*
X167139483Y-115063362D01*
X167139485Y-115063365D01*
X167246635Y-115170515D01*
X167246637Y-115170516D01*
X167246639Y-115170518D01*
X167377861Y-115246279D01*
X167377859Y-115246279D01*
X167377863Y-115246280D01*
X167377865Y-115246281D01*
X167524234Y-115285500D01*
X167524236Y-115285500D01*
X167675764Y-115285500D01*
X167675766Y-115285500D01*
X167822135Y-115246281D01*
X167822137Y-115246279D01*
X167822139Y-115246279D01*
X167953360Y-115170518D01*
X167953360Y-115170517D01*
X167953365Y-115170515D01*
X168060515Y-115063365D01*
X168066013Y-115053842D01*
X168136279Y-114932139D01*
X168136279Y-114932137D01*
X168136281Y-114932135D01*
X168172722Y-114796131D01*
X168206045Y-114744820D01*
X168263166Y-114722893D01*
X168311828Y-114732816D01*
X168368604Y-114760572D01*
X168368605Y-114760572D01*
X168368607Y-114760573D01*
X168436740Y-114770500D01*
X168436743Y-114770500D01*
X169653257Y-114770500D01*
X169653260Y-114770500D01*
X169721393Y-114760573D01*
X169826483Y-114709198D01*
X169909198Y-114626483D01*
X169960573Y-114521393D01*
X169970500Y-114453260D01*
X169970500Y-114086740D01*
X169960573Y-114018607D01*
X169960572Y-114018605D01*
X169960572Y-114018603D01*
X169957824Y-114012983D01*
X169949251Y-113952402D01*
X169977924Y-113898351D01*
X170032892Y-113871477D01*
X170046763Y-113870500D01*
X170824100Y-113870500D01*
X170882291Y-113889407D01*
X170918255Y-113938907D01*
X170918255Y-114000093D01*
X170894105Y-114039501D01*
X170786609Y-114146998D01*
X170679517Y-114254090D01*
X170679516Y-114254091D01*
X170626795Y-114345406D01*
X170626793Y-114345410D01*
X170626793Y-114345412D01*
X170606555Y-114420943D01*
X170606554Y-114420942D01*
X170599500Y-114447270D01*
X170599500Y-117293099D01*
X170580593Y-117351290D01*
X170570504Y-117363103D01*
X170363103Y-117570504D01*
X170308586Y-117598281D01*
X170293099Y-117599500D01*
X169223697Y-117599500D01*
X169165506Y-117580593D01*
X169144043Y-117559289D01*
X169117150Y-117522850D01*
X169117146Y-117522847D01*
X169117144Y-117522845D01*
X169007883Y-117442207D01*
X168879703Y-117397355D01*
X168879694Y-117397353D01*
X168849274Y-117394500D01*
X168849266Y-117394500D01*
X168240734Y-117394500D01*
X168240725Y-117394500D01*
X168210305Y-117397353D01*
X168210296Y-117397355D01*
X168082116Y-117442207D01*
X167972855Y-117522845D01*
X167972845Y-117522855D01*
X167892207Y-117632116D01*
X167847355Y-117760296D01*
X167847353Y-117760305D01*
X167844500Y-117790725D01*
X167844500Y-118849274D01*
X167847353Y-118879694D01*
X167847355Y-118879703D01*
X167892207Y-119007883D01*
X167972845Y-119117144D01*
X167972847Y-119117146D01*
X167972850Y-119117150D01*
X167972853Y-119117152D01*
X167972855Y-119117154D01*
X168082116Y-119197792D01*
X168082117Y-119197792D01*
X168082118Y-119197793D01*
X168210301Y-119242646D01*
X168240725Y-119245499D01*
X168240727Y-119245500D01*
X168240734Y-119245500D01*
X168849273Y-119245500D01*
X168849273Y-119245499D01*
X168879699Y-119242646D01*
X169007882Y-119197793D01*
X169117150Y-119117150D01*
X169197793Y-119007882D01*
X169242646Y-118879699D01*
X169245499Y-118849273D01*
X169245500Y-118849273D01*
X169245500Y-118499500D01*
X169264407Y-118441309D01*
X169313907Y-118405345D01*
X169344500Y-118400500D01*
X170500500Y-118400500D01*
X170558691Y-118419407D01*
X170594655Y-118468907D01*
X170599500Y-118499500D01*
X170599500Y-118552727D01*
X170610430Y-118593518D01*
X170626794Y-118654592D01*
X170679516Y-118745908D01*
X170679518Y-118745910D01*
X170679520Y-118745913D01*
X171204087Y-119270480D01*
X171204089Y-119270481D01*
X171204091Y-119270483D01*
X171295408Y-119323205D01*
X171295406Y-119323205D01*
X171295410Y-119323206D01*
X171295412Y-119323207D01*
X171397273Y-119350500D01*
X171426312Y-119350500D01*
X171484503Y-119369407D01*
X171496309Y-119379490D01*
X171506017Y-119389198D01*
X171547628Y-119409540D01*
X171611104Y-119440572D01*
X171611105Y-119440572D01*
X171611107Y-119440573D01*
X171679240Y-119450500D01*
X171679243Y-119450500D01*
X172770757Y-119450500D01*
X172770760Y-119450500D01*
X172838893Y-119440573D01*
X172943983Y-119389198D01*
X173026698Y-119306483D01*
X173078073Y-119201393D01*
X173088000Y-119133260D01*
X173088000Y-118766740D01*
X173078073Y-118698607D01*
X173026698Y-118593517D01*
X172943983Y-118510802D01*
X172929697Y-118503818D01*
X172838895Y-118459427D01*
X172811639Y-118455456D01*
X172770760Y-118449500D01*
X171679240Y-118449500D01*
X171611107Y-118459427D01*
X171611106Y-118459427D01*
X171611101Y-118459428D01*
X171603759Y-118461697D01*
X171602759Y-118458462D01*
X171587767Y-118460568D01*
X171558359Y-118465226D01*
X171557549Y-118464813D01*
X171556649Y-118464940D01*
X171503842Y-118437449D01*
X171429496Y-118363103D01*
X171401719Y-118308586D01*
X171400500Y-118293099D01*
X171400500Y-117596209D01*
X171419407Y-117538018D01*
X171468907Y-117502054D01*
X171530093Y-117502054D01*
X171542975Y-117507265D01*
X171611107Y-117540573D01*
X171679240Y-117550500D01*
X171679243Y-117550500D01*
X172770757Y-117550500D01*
X172770760Y-117550500D01*
X172838893Y-117540573D01*
X172943983Y-117489198D01*
X173026698Y-117406483D01*
X173078073Y-117301393D01*
X173088000Y-117233260D01*
X173088000Y-116866740D01*
X173078073Y-116798607D01*
X173064951Y-116771766D01*
X173042981Y-116726825D01*
X173026698Y-116693517D01*
X172943983Y-116610802D01*
X172922910Y-116600500D01*
X172838895Y-116559427D01*
X172811639Y-116555456D01*
X172770760Y-116549500D01*
X172770757Y-116549500D01*
X172538743Y-116549500D01*
X172480552Y-116530593D01*
X172444588Y-116481093D01*
X172444588Y-116419907D01*
X172468737Y-116380498D01*
X172480520Y-116368716D01*
X172559577Y-116231784D01*
X172600500Y-116079057D01*
X172600500Y-115920943D01*
X172559577Y-115768216D01*
X172480520Y-115631284D01*
X172401853Y-115552617D01*
X172394735Y-115538646D01*
X172383649Y-115527560D01*
X172381196Y-115512074D01*
X172374078Y-115498103D01*
X172376530Y-115482615D01*
X172374078Y-115467128D01*
X172381196Y-115453158D01*
X172383649Y-115437671D01*
X172401853Y-115412615D01*
X172464065Y-115350404D01*
X172464065Y-115350403D01*
X172464973Y-115349496D01*
X172519490Y-115321719D01*
X172534976Y-115320500D01*
X174465024Y-115320500D01*
X174523215Y-115339407D01*
X174535028Y-115349496D01*
X174535934Y-115350402D01*
X174535935Y-115350404D01*
X174619596Y-115434065D01*
X174619597Y-115434065D01*
X174619598Y-115434066D01*
X174726824Y-115484067D01*
X174726825Y-115484067D01*
X174726827Y-115484068D01*
X174775684Y-115490500D01*
X174775685Y-115490500D01*
X175224314Y-115490500D01*
X175224316Y-115490500D01*
X175273173Y-115484068D01*
X175380404Y-115434065D01*
X175464065Y-115350404D01*
X175464065Y-115350402D01*
X175464972Y-115349496D01*
X175472089Y-115345869D01*
X175476785Y-115339407D01*
X175498833Y-115332243D01*
X175519489Y-115321719D01*
X175534976Y-115320500D01*
X175606455Y-115320500D01*
X175664646Y-115339407D01*
X175700610Y-115388907D01*
X175700610Y-115450093D01*
X175664646Y-115499593D01*
X175655955Y-115505236D01*
X175631286Y-115519478D01*
X175631284Y-115519480D01*
X175519480Y-115631284D01*
X175440423Y-115768216D01*
X175399500Y-115920943D01*
X175399500Y-116079057D01*
X175440423Y-116231784D01*
X175519480Y-116368716D01*
X175631284Y-116480520D01*
X175768216Y-116559577D01*
X175768218Y-116559577D01*
X175773836Y-116562821D01*
X175773012Y-116564247D01*
X175813437Y-116598775D01*
X175827719Y-116658270D01*
X175804302Y-116714798D01*
X175752132Y-116746765D01*
X175729024Y-116749500D01*
X175390865Y-116749500D01*
X175332674Y-116730593D01*
X175306889Y-116699891D01*
X175306465Y-116700194D01*
X175302615Y-116694802D01*
X175301923Y-116693978D01*
X175301698Y-116693518D01*
X175301698Y-116693517D01*
X175218983Y-116610802D01*
X175197910Y-116600500D01*
X175113895Y-116559427D01*
X175086639Y-116555456D01*
X175045760Y-116549500D01*
X173954240Y-116549500D01*
X173920173Y-116554463D01*
X173886104Y-116559427D01*
X173781018Y-116610801D01*
X173698301Y-116693518D01*
X173646927Y-116798604D01*
X173642318Y-116830241D01*
X173637000Y-116866740D01*
X173637000Y-117233260D01*
X173642816Y-117273175D01*
X173646927Y-117301395D01*
X173684761Y-117378785D01*
X173698302Y-117406483D01*
X173781017Y-117489198D01*
X173806959Y-117501880D01*
X173886104Y-117540572D01*
X173886105Y-117540572D01*
X173886107Y-117540573D01*
X173954240Y-117550500D01*
X173954243Y-117550500D01*
X175045757Y-117550500D01*
X175045760Y-117550500D01*
X175113893Y-117540573D01*
X175218983Y-117489198D01*
X175301698Y-117406483D01*
X175301923Y-117406021D01*
X175302319Y-117405612D01*
X175306465Y-117399806D01*
X175307335Y-117400427D01*
X175344465Y-117362047D01*
X175390865Y-117350500D01*
X176035024Y-117350500D01*
X176093215Y-117369407D01*
X176105021Y-117379490D01*
X176119596Y-117394065D01*
X176119597Y-117394065D01*
X176119598Y-117394066D01*
X176226824Y-117444067D01*
X176226825Y-117444067D01*
X176226827Y-117444068D01*
X176275684Y-117450500D01*
X176275685Y-117450500D01*
X176724314Y-117450500D01*
X176724316Y-117450500D01*
X176773173Y-117444068D01*
X176880404Y-117394065D01*
X176964065Y-117310404D01*
X177014068Y-117203173D01*
X177020500Y-117154316D01*
X177020500Y-116805684D01*
X177014068Y-116756827D01*
X177010651Y-116749500D01*
X176964066Y-116649598D01*
X176964065Y-116649597D01*
X176964065Y-116649596D01*
X176880404Y-116565935D01*
X176880402Y-116565934D01*
X176880401Y-116565933D01*
X176773175Y-116515932D01*
X176740601Y-116511644D01*
X176724316Y-116509500D01*
X176724315Y-116509500D01*
X176570711Y-116509500D01*
X176560650Y-116506231D01*
X176550131Y-116507337D01*
X176532207Y-116496989D01*
X176512520Y-116490593D01*
X176506301Y-116482033D01*
X176497142Y-116476746D01*
X176488724Y-116457841D01*
X176476556Y-116441093D01*
X176476556Y-116430512D01*
X176472254Y-116420851D01*
X176476556Y-116400608D01*
X176476556Y-116379907D01*
X176484973Y-116361003D01*
X176495802Y-116342245D01*
X176541269Y-116301304D01*
X176555905Y-116296120D01*
X176615989Y-116280021D01*
X176615992Y-116280019D01*
X176615993Y-116280019D01*
X176649913Y-116260435D01*
X176684511Y-116240460D01*
X176740460Y-116184511D01*
X177415475Y-115509494D01*
X177469992Y-115481718D01*
X177485479Y-115480499D01*
X177709897Y-115480499D01*
X177709900Y-115480499D01*
X177759487Y-115473972D01*
X177759488Y-115473972D01*
X177845067Y-115434065D01*
X177868316Y-115423224D01*
X177953224Y-115338316D01*
X177960775Y-115322121D01*
X178002503Y-115277373D01*
X178062564Y-115265698D01*
X178118017Y-115291555D01*
X178147681Y-115345069D01*
X178149500Y-115363960D01*
X178149500Y-120813810D01*
X178130593Y-120872001D01*
X178120504Y-120883814D01*
X177883814Y-121120504D01*
X177829297Y-121148281D01*
X177813810Y-121149500D01*
X176953856Y-121149500D01*
X176864712Y-121173386D01*
X176864711Y-121173386D01*
X176864709Y-121173387D01*
X176784790Y-121219529D01*
X176259529Y-121744789D01*
X176233679Y-121789561D01*
X176233680Y-121789562D01*
X176213386Y-121824710D01*
X176189500Y-121913857D01*
X176189500Y-122517952D01*
X176170593Y-122576143D01*
X176160504Y-122587955D01*
X176116776Y-122631683D01*
X176116774Y-122631686D01*
X176066029Y-122740510D01*
X176066028Y-122740511D01*
X176059500Y-122790100D01*
X176059500Y-122824810D01*
X176040593Y-122883001D01*
X175991093Y-122918965D01*
X175929907Y-122918965D01*
X175890497Y-122894814D01*
X175765214Y-122769532D01*
X175765212Y-122769530D01*
X175685288Y-122723386D01*
X175685287Y-122723385D01*
X175685286Y-122723385D01*
X175674517Y-122720499D01*
X175674517Y-122720500D01*
X175596144Y-122699500D01*
X175596142Y-122699500D01*
X175486188Y-122699500D01*
X175427997Y-122680593D01*
X175416190Y-122670509D01*
X175356483Y-122610802D01*
X175327001Y-122596389D01*
X175251395Y-122559427D01*
X175224139Y-122555456D01*
X175183260Y-122549500D01*
X174091740Y-122549500D01*
X174057673Y-122554463D01*
X174023604Y-122559427D01*
X173918518Y-122610801D01*
X173835801Y-122693518D01*
X173784427Y-122798604D01*
X173784209Y-122800100D01*
X173774500Y-122866740D01*
X173774500Y-123233260D01*
X173778322Y-123259489D01*
X173784427Y-123301395D01*
X173832847Y-123400438D01*
X173835802Y-123406483D01*
X173918517Y-123489198D01*
X173960586Y-123509764D01*
X174023604Y-123540572D01*
X174023605Y-123540572D01*
X174023607Y-123540573D01*
X174091740Y-123550500D01*
X174091743Y-123550500D01*
X175183257Y-123550500D01*
X175183260Y-123550500D01*
X175251393Y-123540573D01*
X175356483Y-123489198D01*
X175356487Y-123489193D01*
X175363159Y-123484431D01*
X175364257Y-123485969D01*
X175409488Y-123462910D01*
X175469923Y-123472468D01*
X175495002Y-123490684D01*
X176120504Y-124116186D01*
X176148281Y-124170703D01*
X176149500Y-124186190D01*
X176149500Y-126313810D01*
X176130593Y-126372001D01*
X176120504Y-126383814D01*
X175883814Y-126620504D01*
X175876696Y-126624130D01*
X175872001Y-126630593D01*
X175849952Y-126637756D01*
X175829297Y-126648281D01*
X175813810Y-126649500D01*
X175624861Y-126649500D01*
X175566670Y-126630593D01*
X175531417Y-126583198D01*
X175515293Y-126537118D01*
X175515291Y-126537116D01*
X175515291Y-126537114D01*
X175434654Y-126427855D01*
X175434652Y-126427853D01*
X175434650Y-126427850D01*
X175434646Y-126427847D01*
X175434644Y-126427845D01*
X175325383Y-126347207D01*
X175197203Y-126302355D01*
X175197194Y-126302353D01*
X175166774Y-126299500D01*
X175166766Y-126299500D01*
X174108234Y-126299500D01*
X174108225Y-126299500D01*
X174077805Y-126302353D01*
X174077796Y-126302355D01*
X173949616Y-126347207D01*
X173840355Y-126427845D01*
X173840345Y-126427855D01*
X173759707Y-126537116D01*
X173714855Y-126665296D01*
X173714853Y-126665305D01*
X173712000Y-126695725D01*
X173712000Y-127304274D01*
X173714853Y-127334694D01*
X173714855Y-127334703D01*
X173718224Y-127344331D01*
X173719597Y-127405501D01*
X173694784Y-127447032D01*
X173521315Y-127620503D01*
X173466799Y-127648281D01*
X173451311Y-127649500D01*
X173073671Y-127649500D01*
X173015480Y-127630593D01*
X172979516Y-127581093D01*
X172979516Y-127519907D01*
X172994016Y-127491712D01*
X173015292Y-127462883D01*
X173015291Y-127462883D01*
X173015293Y-127462882D01*
X173060146Y-127334699D01*
X173062999Y-127304273D01*
X173063000Y-127304273D01*
X173063000Y-126695727D01*
X173062999Y-126695725D01*
X173060146Y-126665301D01*
X173015293Y-126537118D01*
X173015290Y-126537114D01*
X172934654Y-126427855D01*
X172934652Y-126427853D01*
X172934650Y-126427850D01*
X172934646Y-126427847D01*
X172934644Y-126427845D01*
X172825383Y-126347207D01*
X172697203Y-126302355D01*
X172697194Y-126302353D01*
X172666774Y-126299500D01*
X172666766Y-126299500D01*
X172044401Y-126299500D01*
X172036803Y-126297031D01*
X172028914Y-126298281D01*
X172008258Y-126287756D01*
X171986210Y-126280593D01*
X171974397Y-126270504D01*
X171861397Y-126157504D01*
X171833620Y-126102987D01*
X171843191Y-126042555D01*
X171861397Y-126017496D01*
X172399397Y-125479496D01*
X172453914Y-125451719D01*
X172469401Y-125450500D01*
X172908257Y-125450500D01*
X172908260Y-125450500D01*
X172976393Y-125440573D01*
X173081483Y-125389198D01*
X173164198Y-125306483D01*
X173215573Y-125201393D01*
X173225500Y-125133260D01*
X173225500Y-124766740D01*
X173774500Y-124766740D01*
X173774500Y-125133260D01*
X173779430Y-125167098D01*
X173784427Y-125201395D01*
X173835622Y-125306114D01*
X173835802Y-125306483D01*
X173918517Y-125389198D01*
X173941176Y-125400275D01*
X174023604Y-125440572D01*
X174023605Y-125440572D01*
X174023607Y-125440573D01*
X174091740Y-125450500D01*
X174091743Y-125450500D01*
X175183257Y-125450500D01*
X175183260Y-125450500D01*
X175251393Y-125440573D01*
X175356483Y-125389198D01*
X175439198Y-125306483D01*
X175490573Y-125201393D01*
X175500500Y-125133260D01*
X175500500Y-124766740D01*
X175490573Y-124698607D01*
X175489448Y-124696306D01*
X175452391Y-124620504D01*
X175439198Y-124593517D01*
X175356483Y-124510802D01*
X175355861Y-124510498D01*
X175251395Y-124459427D01*
X175224139Y-124455456D01*
X175183260Y-124449500D01*
X174091740Y-124449500D01*
X174057673Y-124454463D01*
X174023604Y-124459427D01*
X173918518Y-124510801D01*
X173835801Y-124593518D01*
X173784427Y-124698604D01*
X173780565Y-124725113D01*
X173774500Y-124766740D01*
X173225500Y-124766740D01*
X173215573Y-124698607D01*
X173214448Y-124696306D01*
X173177391Y-124620504D01*
X173164198Y-124593517D01*
X173081483Y-124510802D01*
X173080861Y-124510498D01*
X172976395Y-124459427D01*
X172949139Y-124455456D01*
X172908260Y-124449500D01*
X171816740Y-124449500D01*
X171782673Y-124454463D01*
X171748604Y-124459427D01*
X171643518Y-124510801D01*
X171643517Y-124510801D01*
X171643517Y-124510802D01*
X171569501Y-124584817D01*
X171514987Y-124612593D01*
X171454555Y-124603022D01*
X171411290Y-124559757D01*
X171400500Y-124514812D01*
X171400500Y-123549500D01*
X171405345Y-123534588D01*
X171405345Y-123518907D01*
X171414561Y-123506221D01*
X171419407Y-123491309D01*
X171432092Y-123482092D01*
X171441309Y-123469407D01*
X171456221Y-123464561D01*
X171468907Y-123455345D01*
X171499500Y-123450500D01*
X171563812Y-123450500D01*
X171622003Y-123469407D01*
X171633809Y-123479490D01*
X171643517Y-123489198D01*
X171685586Y-123509764D01*
X171748604Y-123540572D01*
X171748605Y-123540572D01*
X171748607Y-123540573D01*
X171816740Y-123550500D01*
X171816743Y-123550500D01*
X172908257Y-123550500D01*
X172908260Y-123550500D01*
X172976393Y-123540573D01*
X173081483Y-123489198D01*
X173164198Y-123406483D01*
X173215573Y-123301393D01*
X173225500Y-123233260D01*
X173225500Y-122866740D01*
X173215573Y-122798607D01*
X173211414Y-122790100D01*
X173182905Y-122731783D01*
X173164198Y-122693517D01*
X173081483Y-122610802D01*
X173052001Y-122596389D01*
X172976395Y-122559427D01*
X172949139Y-122555456D01*
X172908260Y-122549500D01*
X171816740Y-122549500D01*
X171782673Y-122554463D01*
X171748604Y-122559427D01*
X171643518Y-122610801D01*
X171643517Y-122610801D01*
X171643517Y-122610802D01*
X171633813Y-122620505D01*
X171579299Y-122648281D01*
X171563812Y-122649500D01*
X169256901Y-122649500D01*
X169198710Y-122630593D01*
X169186897Y-122620504D01*
X168649496Y-122083103D01*
X168621719Y-122028586D01*
X168620500Y-122013099D01*
X168620500Y-121915727D01*
X168620499Y-121915725D01*
X168619025Y-121900008D01*
X168617646Y-121885301D01*
X168572793Y-121757118D01*
X168572789Y-121757113D01*
X168492154Y-121647855D01*
X168492152Y-121647853D01*
X168492150Y-121647850D01*
X168492146Y-121647847D01*
X168492144Y-121647845D01*
X168399072Y-121579155D01*
X168363479Y-121529388D01*
X168363937Y-121468204D01*
X168400270Y-121418974D01*
X168457860Y-121400500D01*
X171293100Y-121400500D01*
X171351291Y-121419407D01*
X171363103Y-121429496D01*
X171518129Y-121584521D01*
X171679518Y-121745910D01*
X171679520Y-121745913D01*
X171754087Y-121820480D01*
X171799750Y-121846843D01*
X171845412Y-121873207D01*
X171947273Y-121900500D01*
X171947275Y-121900500D01*
X175552725Y-121900500D01*
X175552727Y-121900500D01*
X175654588Y-121873207D01*
X175654590Y-121873205D01*
X175654592Y-121873205D01*
X175745908Y-121820483D01*
X175745908Y-121820482D01*
X175745913Y-121820480D01*
X176245910Y-121320481D01*
X176245913Y-121320480D01*
X176320480Y-121245913D01*
X176350133Y-121194552D01*
X176373207Y-121154588D01*
X176400500Y-121052727D01*
X176400500Y-120947273D01*
X176400500Y-119947273D01*
X176400500Y-119447273D01*
X176373207Y-119345413D01*
X176368984Y-119338099D01*
X176320480Y-119254087D01*
X176245913Y-119179519D01*
X176245913Y-119179520D01*
X175695913Y-118629520D01*
X175695910Y-118629518D01*
X175695909Y-118629517D01*
X175695908Y-118629516D01*
X175604591Y-118576794D01*
X175604593Y-118576794D01*
X175563897Y-118565890D01*
X175502727Y-118549500D01*
X175502725Y-118549500D01*
X175298688Y-118549500D01*
X175240497Y-118530593D01*
X175228690Y-118520509D01*
X175218983Y-118510802D01*
X175204697Y-118503818D01*
X175113895Y-118459427D01*
X175086639Y-118455456D01*
X175045760Y-118449500D01*
X173954240Y-118449500D01*
X173920173Y-118454463D01*
X173886104Y-118459427D01*
X173781018Y-118510801D01*
X173698301Y-118593518D01*
X173646927Y-118698604D01*
X173646927Y-118698607D01*
X173637000Y-118766740D01*
X173637000Y-119133260D01*
X173641142Y-119161686D01*
X173646927Y-119201395D01*
X173680716Y-119270510D01*
X173698302Y-119306483D01*
X173781017Y-119389198D01*
X173822628Y-119409540D01*
X173886104Y-119440572D01*
X173886105Y-119440572D01*
X173886107Y-119440573D01*
X173954240Y-119450500D01*
X173954243Y-119450500D01*
X175045757Y-119450500D01*
X175045760Y-119450500D01*
X175113893Y-119440573D01*
X175218983Y-119389198D01*
X175218983Y-119389197D01*
X175225211Y-119386153D01*
X175285793Y-119377581D01*
X175338696Y-119405089D01*
X175570504Y-119636897D01*
X175574130Y-119644014D01*
X175580593Y-119648710D01*
X175587756Y-119670758D01*
X175598281Y-119691414D01*
X175599500Y-119706901D01*
X175599500Y-119793099D01*
X175580593Y-119851290D01*
X175570504Y-119863103D01*
X175363103Y-120070504D01*
X175308586Y-120098281D01*
X175293099Y-120099500D01*
X175254548Y-120099500D01*
X175196357Y-120080593D01*
X175184546Y-120070505D01*
X175160816Y-120046776D01*
X175160813Y-120046774D01*
X175051989Y-119996029D01*
X175051988Y-119996028D01*
X175035458Y-119993852D01*
X175002401Y-119989500D01*
X175002399Y-119989500D01*
X174642604Y-119989500D01*
X174642592Y-119989501D01*
X174593013Y-119996027D01*
X174593011Y-119996027D01*
X174484186Y-120046774D01*
X174399274Y-120131686D01*
X174348529Y-120240510D01*
X174348528Y-120240511D01*
X174342000Y-120290100D01*
X174342000Y-120709896D01*
X174342001Y-120709907D01*
X174348527Y-120759486D01*
X174348527Y-120759488D01*
X174399274Y-120868313D01*
X174399275Y-120868314D01*
X174399276Y-120868316D01*
X174461458Y-120930498D01*
X174489234Y-120985013D01*
X174479663Y-121045445D01*
X174436398Y-121088710D01*
X174391453Y-121099500D01*
X172206899Y-121099500D01*
X172148708Y-121080593D01*
X172136895Y-121070503D01*
X171950206Y-120883814D01*
X171745913Y-120679520D01*
X171745908Y-120679516D01*
X171654591Y-120626794D01*
X171654593Y-120626794D01*
X171601248Y-120612501D01*
X171552727Y-120599500D01*
X171552725Y-120599500D01*
X165706900Y-120599500D01*
X165648709Y-120580593D01*
X165636896Y-120570504D01*
X164474496Y-119408103D01*
X164470869Y-119400985D01*
X164464407Y-119396290D01*
X164457243Y-119374241D01*
X164446719Y-119353586D01*
X164445500Y-119338099D01*
X164445500Y-119261214D01*
X164464407Y-119203023D01*
X164492989Y-119178241D01*
X164492709Y-119177861D01*
X164497544Y-119174291D01*
X164498246Y-119173684D01*
X164498677Y-119173456D01*
X164498677Y-119173455D01*
X164498679Y-119173455D01*
X164606430Y-119093930D01*
X164685955Y-118986179D01*
X164730186Y-118859774D01*
X164732999Y-118829772D01*
X164733000Y-118829770D01*
X164733000Y-117810230D01*
X164732999Y-117810226D01*
X164730186Y-117780231D01*
X164730186Y-117780226D01*
X164685955Y-117653821D01*
X164606430Y-117546070D01*
X164498679Y-117466545D01*
X164498676Y-117466544D01*
X164498675Y-117466543D01*
X164372277Y-117422315D01*
X164372276Y-117422314D01*
X164372274Y-117422314D01*
X164372271Y-117422313D01*
X164372268Y-117422313D01*
X164342273Y-117419500D01*
X164342264Y-117419500D01*
X163747736Y-117419500D01*
X163747726Y-117419500D01*
X163717731Y-117422313D01*
X163717722Y-117422315D01*
X163591324Y-117466543D01*
X163483571Y-117546069D01*
X163483569Y-117546071D01*
X163453149Y-117587288D01*
X163415810Y-117637881D01*
X163404043Y-117653824D01*
X163359815Y-117780222D01*
X163359813Y-117780231D01*
X163357000Y-117810226D01*
X163357000Y-118829773D01*
X163359813Y-118859768D01*
X163359815Y-118859777D01*
X163404043Y-118986175D01*
X163404044Y-118986176D01*
X163404045Y-118986179D01*
X163483570Y-119093930D01*
X163544457Y-119138867D01*
X163591322Y-119173456D01*
X163591754Y-119173684D01*
X163592063Y-119174002D01*
X163597291Y-119177861D01*
X163596650Y-119178728D01*
X163634369Y-119217588D01*
X163644500Y-119261214D01*
X163644500Y-119492273D01*
X163644500Y-119597727D01*
X163666516Y-119679895D01*
X163671794Y-119699592D01*
X163724516Y-119790908D01*
X163724518Y-119790910D01*
X163724520Y-119790913D01*
X165179518Y-121245910D01*
X165179520Y-121245913D01*
X165254087Y-121320480D01*
X165298320Y-121346017D01*
X165330700Y-121364713D01*
X165330699Y-121364713D01*
X165342300Y-121371410D01*
X165345413Y-121373207D01*
X165345415Y-121373207D01*
X165345416Y-121373208D01*
X165372264Y-121380402D01*
X165447270Y-121400500D01*
X165447272Y-121400501D01*
X165447273Y-121400501D01*
X165558790Y-121400501D01*
X165558806Y-121400500D01*
X166632140Y-121400500D01*
X166690331Y-121419407D01*
X166726295Y-121468907D01*
X166726295Y-121530093D01*
X166690928Y-121579155D01*
X166597855Y-121647845D01*
X166597845Y-121647855D01*
X166517207Y-121757116D01*
X166472355Y-121885296D01*
X166472353Y-121885305D01*
X166469500Y-121915725D01*
X166469500Y-122724274D01*
X166472353Y-122754694D01*
X166472355Y-122754703D01*
X166517207Y-122882883D01*
X166597845Y-122992144D01*
X166597847Y-122992146D01*
X166597850Y-122992150D01*
X166597853Y-122992152D01*
X166597855Y-122992154D01*
X166707116Y-123072792D01*
X166707117Y-123072792D01*
X166707118Y-123072793D01*
X166835301Y-123117646D01*
X166865725Y-123120499D01*
X166865727Y-123120500D01*
X166865734Y-123120500D01*
X168224273Y-123120500D01*
X168224273Y-123120499D01*
X168254699Y-123117646D01*
X168382882Y-123072793D01*
X168385394Y-123070938D01*
X168388089Y-123070040D01*
X168389443Y-123069325D01*
X168389561Y-123069549D01*
X168443440Y-123051592D01*
X168501772Y-123070059D01*
X168514191Y-123080585D01*
X168804086Y-123370479D01*
X168804091Y-123370483D01*
X168895408Y-123423205D01*
X168895406Y-123423205D01*
X168895410Y-123423206D01*
X168895412Y-123423207D01*
X168997273Y-123450500D01*
X169102727Y-123450500D01*
X170500500Y-123450500D01*
X170558691Y-123469407D01*
X170594655Y-123518907D01*
X170599500Y-123549500D01*
X170599500Y-125809773D01*
X170599500Y-125915227D01*
X170618189Y-125984976D01*
X170626794Y-126017092D01*
X170679516Y-126108408D01*
X170679517Y-126108409D01*
X170679518Y-126108410D01*
X170679520Y-126108413D01*
X170941346Y-126370239D01*
X171183792Y-126612685D01*
X171211569Y-126667202D01*
X171212356Y-126691923D01*
X171212000Y-126695719D01*
X171212000Y-127304274D01*
X171214853Y-127334694D01*
X171214855Y-127334703D01*
X171259707Y-127462883D01*
X171280984Y-127491712D01*
X171300326Y-127549759D01*
X171281855Y-127608090D01*
X171232625Y-127644423D01*
X171201329Y-127649500D01*
X170817561Y-127649500D01*
X170759370Y-127630593D01*
X170747557Y-127620504D01*
X170106549Y-126979496D01*
X169446583Y-126319530D01*
X169366659Y-126273386D01*
X169277515Y-126249500D01*
X162843856Y-126249500D01*
X162765468Y-126270504D01*
X162754712Y-126273386D01*
X162674788Y-126319530D01*
X161543814Y-127450504D01*
X161489297Y-127478281D01*
X161473810Y-127479500D01*
X161315684Y-127479500D01*
X161291255Y-127482716D01*
X161266826Y-127485932D01*
X161186338Y-127523464D01*
X161125609Y-127530920D01*
X161072095Y-127501256D01*
X161046238Y-127445803D01*
X161045500Y-127433739D01*
X161045500Y-106269500D01*
X161064407Y-106211309D01*
X161113907Y-106175345D01*
X161144500Y-106170500D01*
X179594812Y-106170500D01*
X179653003Y-106189407D01*
G37*
G04 #@! TD.AperFunction*
G04 #@! TA.AperFunction,Conductor*
G36*
X178052119Y-121850500D02*
G01*
X178052633Y-121850500D01*
X178052633Y-121850595D01*
X178109798Y-121861186D01*
X178151918Y-121905566D01*
X178159907Y-121966228D01*
X178132568Y-122018195D01*
X178019482Y-122131281D01*
X178019480Y-122131283D01*
X178019480Y-122131284D01*
X177940423Y-122268216D01*
X177899500Y-122420943D01*
X177899500Y-122579057D01*
X177940423Y-122731784D01*
X178019480Y-122868716D01*
X178131284Y-122980520D01*
X178150000Y-122991325D01*
X178190940Y-123036792D01*
X178199500Y-123077061D01*
X178199500Y-124465604D01*
X178180593Y-124523795D01*
X178142341Y-124555328D01*
X178119598Y-124565933D01*
X178035933Y-124649598D01*
X177985932Y-124756824D01*
X177985932Y-124756825D01*
X177982879Y-124780020D01*
X177980183Y-124800500D01*
X177979500Y-124805685D01*
X177979500Y-125154314D01*
X177985932Y-125203174D01*
X177985932Y-125203175D01*
X178035933Y-125310401D01*
X178035934Y-125310402D01*
X178035935Y-125310404D01*
X178119596Y-125394065D01*
X178119597Y-125394065D01*
X178119598Y-125394066D01*
X178132915Y-125400276D01*
X178177663Y-125442005D01*
X178189337Y-125502066D01*
X178163478Y-125557518D01*
X178132915Y-125579724D01*
X178119598Y-125585933D01*
X178035933Y-125669598D01*
X177985932Y-125776824D01*
X177985932Y-125776825D01*
X177985932Y-125776827D01*
X177979500Y-125825684D01*
X177979500Y-126174316D01*
X177981063Y-126186190D01*
X177985932Y-126223174D01*
X177985932Y-126223175D01*
X178035933Y-126330401D01*
X178040903Y-126337499D01*
X178039539Y-126338453D01*
X178062698Y-126383906D01*
X178053127Y-126444338D01*
X178034921Y-126469396D01*
X177883815Y-126620503D01*
X177829298Y-126648281D01*
X177813811Y-126649500D01*
X176949500Y-126649500D01*
X176891309Y-126630593D01*
X176855345Y-126581093D01*
X176850500Y-126550500D01*
X176850500Y-124149725D01*
X176863765Y-124100222D01*
X176866613Y-124095289D01*
X176866614Y-124095288D01*
X176890500Y-124006143D01*
X176890500Y-123913856D01*
X176890500Y-123482047D01*
X176909407Y-123423856D01*
X176919490Y-123412049D01*
X176963224Y-123368316D01*
X177013972Y-123259487D01*
X177020500Y-123209901D01*
X177020499Y-122790100D01*
X177013972Y-122740513D01*
X177013972Y-122740511D01*
X176963225Y-122631686D01*
X176963223Y-122631683D01*
X176919496Y-122587955D01*
X176891719Y-122533438D01*
X176890500Y-122517952D01*
X176890500Y-122146189D01*
X176909407Y-122087998D01*
X176919496Y-122076185D01*
X177116185Y-121879496D01*
X177170702Y-121851719D01*
X177186189Y-121850500D01*
X178046143Y-121850500D01*
X178046144Y-121850500D01*
X178046144Y-121850499D01*
X178049636Y-121850040D01*
X178052119Y-121850500D01*
G37*
G04 #@! TD.AperFunction*
G04 #@! TA.AperFunction,Conductor*
G36*
X180040740Y-118909630D02*
G01*
X180069018Y-118918122D01*
X180069722Y-118919047D01*
X180070830Y-118919407D01*
X180106082Y-118966801D01*
X180116470Y-118996487D01*
X180122208Y-119012885D01*
X180202845Y-119122144D01*
X180202847Y-119122146D01*
X180202850Y-119122150D01*
X180202853Y-119122152D01*
X180202855Y-119122154D01*
X180312116Y-119202792D01*
X180312117Y-119202792D01*
X180312118Y-119202793D01*
X180440301Y-119247646D01*
X180470725Y-119250499D01*
X180470727Y-119250500D01*
X180470734Y-119250500D01*
X181529273Y-119250500D01*
X181529273Y-119250499D01*
X181559699Y-119247646D01*
X181643411Y-119218353D01*
X181704580Y-119216980D01*
X181746112Y-119241794D01*
X181960504Y-119456186D01*
X181988281Y-119510703D01*
X181989500Y-119526189D01*
X181989500Y-119679895D01*
X181989501Y-119679907D01*
X181996027Y-119729486D01*
X181996027Y-119729488D01*
X182046774Y-119838313D01*
X182046775Y-119838314D01*
X182046776Y-119838316D01*
X182131684Y-119923224D01*
X182240513Y-119973972D01*
X182290099Y-119980500D01*
X182709900Y-119980499D01*
X182759487Y-119973972D01*
X182759488Y-119973972D01*
X182822587Y-119944548D01*
X182868316Y-119923224D01*
X182953224Y-119838316D01*
X183003972Y-119729487D01*
X183003973Y-119729478D01*
X183005455Y-119724398D01*
X183039889Y-119673823D01*
X183097475Y-119653146D01*
X183156217Y-119670267D01*
X183193676Y-119718645D01*
X183199500Y-119752100D01*
X183199500Y-123441929D01*
X183180593Y-123500120D01*
X183170504Y-123511933D01*
X181887038Y-124795398D01*
X181832521Y-124823175D01*
X181772089Y-124813604D01*
X181734719Y-124780396D01*
X181734468Y-124780020D01*
X181698624Y-124726376D01*
X181698620Y-124726373D01*
X181607497Y-124665486D01*
X181607496Y-124665485D01*
X181607495Y-124665485D01*
X181527133Y-124649500D01*
X180965479Y-124649500D01*
X180907288Y-124630593D01*
X180895475Y-124620504D01*
X180369496Y-124094525D01*
X180341719Y-124040008D01*
X180340500Y-124024521D01*
X180340500Y-123531239D01*
X180359407Y-123473048D01*
X180372764Y-123459921D01*
X180372191Y-123459348D01*
X180378314Y-123453224D01*
X180378316Y-123453224D01*
X180463224Y-123368316D01*
X180513972Y-123259487D01*
X180520500Y-123209901D01*
X180520499Y-122790100D01*
X180513972Y-122740513D01*
X180513972Y-122740511D01*
X180463225Y-122631686D01*
X180463224Y-122631685D01*
X180463224Y-122631684D01*
X180378316Y-122546776D01*
X180378314Y-122546775D01*
X180378313Y-122546774D01*
X180269489Y-122496029D01*
X180269488Y-122496028D01*
X180252958Y-122493852D01*
X180219901Y-122489500D01*
X180219899Y-122489500D01*
X179860104Y-122489500D01*
X179860092Y-122489501D01*
X179810513Y-122496027D01*
X179810511Y-122496027D01*
X179701686Y-122546774D01*
X179616774Y-122631686D01*
X179566029Y-122740510D01*
X179566028Y-122740511D01*
X179559500Y-122790100D01*
X179559500Y-123209896D01*
X179559501Y-123209907D01*
X179566027Y-123259486D01*
X179566027Y-123259488D01*
X179616774Y-123368313D01*
X179616775Y-123368314D01*
X179616776Y-123368316D01*
X179701684Y-123453224D01*
X179701685Y-123453224D01*
X179707809Y-123459348D01*
X179705762Y-123461394D01*
X179734106Y-123499006D01*
X179739500Y-123531239D01*
X179739500Y-124229564D01*
X179759978Y-124305988D01*
X179770920Y-124324940D01*
X179793881Y-124364710D01*
X179793883Y-124364714D01*
X179793884Y-124364714D01*
X179799536Y-124374505D01*
X179799538Y-124374508D01*
X179799540Y-124374511D01*
X180006388Y-124581359D01*
X180034164Y-124635874D01*
X180024593Y-124696306D01*
X180006390Y-124721362D01*
X180001377Y-124726375D01*
X179940486Y-124817501D01*
X179940486Y-124817503D01*
X179940485Y-124817505D01*
X179925094Y-124894880D01*
X179924500Y-124897867D01*
X179924500Y-125102129D01*
X179924501Y-125102137D01*
X179940484Y-125182494D01*
X179940486Y-125182498D01*
X179948840Y-125195001D01*
X179954435Y-125214842D01*
X179964065Y-125233071D01*
X179962140Y-125242163D01*
X179965447Y-125253889D01*
X179955387Y-125293638D01*
X179952488Y-125299539D01*
X179940485Y-125317505D01*
X179938318Y-125328395D01*
X179932609Y-125340023D01*
X179919872Y-125353141D01*
X179910937Y-125369092D01*
X179899080Y-125374555D01*
X179889988Y-125383921D01*
X179871974Y-125387047D01*
X179855369Y-125394700D01*
X179842565Y-125392151D01*
X179829703Y-125394384D01*
X179813291Y-125386325D01*
X179795360Y-125382756D01*
X179784803Y-125372335D01*
X179774783Y-125367415D01*
X179769295Y-125357026D01*
X179758010Y-125345887D01*
X179740460Y-125315489D01*
X179715070Y-125290099D01*
X179684511Y-125259539D01*
X179684511Y-125259540D01*
X179164511Y-124739540D01*
X179141710Y-124726376D01*
X179141708Y-124726374D01*
X179095987Y-124699978D01*
X179013294Y-124677820D01*
X179013844Y-124675764D01*
X178972230Y-124657300D01*
X178964657Y-124650866D01*
X178964065Y-124649596D01*
X178880404Y-124565935D01*
X178845571Y-124549691D01*
X178835401Y-124541051D01*
X178826006Y-124525809D01*
X178812912Y-124513598D01*
X178808887Y-124498036D01*
X178803296Y-124488965D01*
X178804033Y-124479268D01*
X178800500Y-124465604D01*
X178800500Y-123077061D01*
X178819407Y-123018870D01*
X178849997Y-122991326D01*
X178868716Y-122980520D01*
X178980520Y-122868716D01*
X179059577Y-122731784D01*
X179100500Y-122579057D01*
X179100500Y-122420943D01*
X179059577Y-122268216D01*
X178980520Y-122131284D01*
X178868716Y-122019480D01*
X178731784Y-121940423D01*
X178579057Y-121899500D01*
X178420943Y-121899500D01*
X178392494Y-121907122D01*
X178334193Y-121922744D01*
X178273092Y-121919541D01*
X178225542Y-121881036D01*
X178209707Y-121821935D01*
X178231634Y-121764814D01*
X178238548Y-121757133D01*
X178780470Y-121215212D01*
X178826614Y-121135288D01*
X178850500Y-121046144D01*
X178850500Y-120953856D01*
X178850500Y-119186190D01*
X178869407Y-119127999D01*
X178879496Y-119116186D01*
X179066186Y-118929496D01*
X179120703Y-118901719D01*
X179136190Y-118900500D01*
X180012639Y-118900500D01*
X180040740Y-118909630D01*
G37*
G04 #@! TD.AperFunction*
G04 #@! TA.AperFunction,Conductor*
G36*
X203921368Y-113790031D02*
G01*
X203960438Y-113800500D01*
X203977855Y-113800500D01*
X203986801Y-113802158D01*
X204040572Y-113831352D01*
X204043962Y-113835501D01*
X204046775Y-113838314D01*
X204046776Y-113838316D01*
X204131684Y-113923224D01*
X204131685Y-113923224D01*
X204131686Y-113923225D01*
X204142426Y-113928233D01*
X204240513Y-113973972D01*
X204290099Y-113980500D01*
X204709900Y-113980499D01*
X204759487Y-113973972D01*
X204759488Y-113973972D01*
X204826972Y-113942503D01*
X204868316Y-113923224D01*
X204953224Y-113838316D01*
X204953224Y-113838314D01*
X204959348Y-113832191D01*
X204961394Y-113834237D01*
X204999006Y-113805894D01*
X205031239Y-113800500D01*
X205965024Y-113800500D01*
X205969487Y-113801950D01*
X205974063Y-113800914D01*
X205991593Y-113809132D01*
X206023215Y-113819407D01*
X206030285Y-113825055D01*
X206035622Y-113829734D01*
X206035935Y-113830404D01*
X206119596Y-113914065D01*
X206145715Y-113926244D01*
X206156336Y-113935555D01*
X206165113Y-113950302D01*
X206177663Y-113962005D01*
X206180370Y-113975935D01*
X206187630Y-113988132D01*
X206186062Y-114005221D01*
X206189337Y-114022066D01*
X206183339Y-114034928D01*
X206182043Y-114049062D01*
X206170729Y-114061967D01*
X206163478Y-114077518D01*
X206145906Y-114090285D01*
X206141710Y-114095071D01*
X206138236Y-114095857D01*
X206132915Y-114099724D01*
X206119598Y-114105933D01*
X206035933Y-114189598D01*
X205985932Y-114296824D01*
X205985932Y-114296825D01*
X205985932Y-114296827D01*
X205979500Y-114345684D01*
X205979500Y-114694316D01*
X205982848Y-114719746D01*
X205985932Y-114743174D01*
X205985932Y-114743175D01*
X206035933Y-114850401D01*
X206035934Y-114850402D01*
X206035935Y-114850404D01*
X206119596Y-114934065D01*
X206119597Y-114934065D01*
X206120504Y-114934972D01*
X206148281Y-114989489D01*
X206149500Y-115004976D01*
X206149500Y-119546144D01*
X206157374Y-119575529D01*
X206168215Y-119615989D01*
X206173384Y-119635283D01*
X206173385Y-119635284D01*
X206173386Y-119635288D01*
X206219530Y-119715212D01*
X207120505Y-120616187D01*
X207148281Y-120670702D01*
X207149500Y-120686189D01*
X207149500Y-122141087D01*
X207130593Y-122199278D01*
X207081093Y-122235242D01*
X207019907Y-122235242D01*
X206991712Y-122220742D01*
X206891179Y-122146545D01*
X206891176Y-122146543D01*
X206804302Y-122116145D01*
X206755622Y-122079080D01*
X206738000Y-122022701D01*
X206738000Y-121397937D01*
X206737999Y-121397935D01*
X206717521Y-121321511D01*
X206717519Y-121321507D01*
X206677960Y-121252989D01*
X206622011Y-121197039D01*
X206622011Y-121197040D01*
X206499496Y-121074525D01*
X206471719Y-121020008D01*
X206470500Y-121004521D01*
X206470500Y-120775685D01*
X206470500Y-120775684D01*
X206464068Y-120726827D01*
X206458782Y-120715492D01*
X206414066Y-120619598D01*
X206414065Y-120619597D01*
X206414065Y-120619596D01*
X206330404Y-120535935D01*
X206330402Y-120535934D01*
X206330401Y-120535933D01*
X206223175Y-120485932D01*
X206181995Y-120480511D01*
X206174316Y-120479500D01*
X205825684Y-120479500D01*
X205818005Y-120480511D01*
X205776825Y-120485932D01*
X205776824Y-120485932D01*
X205669598Y-120535933D01*
X205585933Y-120619598D01*
X205579724Y-120632915D01*
X205537995Y-120677663D01*
X205477934Y-120689337D01*
X205422482Y-120663478D01*
X205415555Y-120656336D01*
X205406244Y-120645715D01*
X205394065Y-120619596D01*
X205310404Y-120535935D01*
X205309734Y-120535622D01*
X205305055Y-120530285D01*
X205294206Y-120505019D01*
X205281719Y-120480511D01*
X205281278Y-120474911D01*
X205280914Y-120474063D01*
X205281134Y-120473088D01*
X205280500Y-120465024D01*
X205280500Y-120440437D01*
X205280499Y-120440435D01*
X205260021Y-120364011D01*
X205260019Y-120364007D01*
X205220460Y-120295489D01*
X205164511Y-120239539D01*
X205164511Y-120239540D01*
X203829496Y-118904525D01*
X203801719Y-118850008D01*
X203800500Y-118834521D01*
X203800500Y-113886664D01*
X203808047Y-113863435D01*
X203812497Y-113839426D01*
X203817342Y-113834827D01*
X203819407Y-113828473D01*
X203839167Y-113814116D01*
X203856878Y-113797309D01*
X203863500Y-113796437D01*
X203868907Y-113792509D01*
X203899398Y-113791710D01*
X203917540Y-113789322D01*
X203921368Y-113790031D01*
G37*
G04 #@! TD.AperFunction*
G04 #@! TA.AperFunction,Conductor*
G36*
X180627379Y-112965044D02*
G01*
X180670644Y-113008309D01*
X180680215Y-113068741D01*
X180679532Y-113072568D01*
X180674500Y-113097864D01*
X180674500Y-113302129D01*
X180674501Y-113302137D01*
X180690484Y-113382494D01*
X180690485Y-113382496D01*
X180746181Y-113465849D01*
X180751376Y-113473624D01*
X180842505Y-113534515D01*
X180922867Y-113550500D01*
X181677132Y-113550499D01*
X181756688Y-113534675D01*
X181781550Y-113537618D01*
X181806593Y-113537618D01*
X181811466Y-113541159D01*
X181817448Y-113541867D01*
X181835832Y-113558861D01*
X181856093Y-113573582D01*
X181857954Y-113579312D01*
X181862377Y-113583400D01*
X181875000Y-113631773D01*
X181875000Y-113700519D01*
X181856093Y-113758710D01*
X181824595Y-113783543D01*
X181825613Y-113785067D01*
X181726379Y-113851373D01*
X181726373Y-113851379D01*
X181665486Y-113942501D01*
X181665486Y-113942503D01*
X181665485Y-113942505D01*
X181653452Y-114003001D01*
X181649500Y-114022867D01*
X181649500Y-114777129D01*
X181649501Y-114777136D01*
X181665484Y-114857494D01*
X181665485Y-114857496D01*
X181686447Y-114888867D01*
X181726376Y-114948624D01*
X181817505Y-115009515D01*
X181897867Y-115025500D01*
X182102132Y-115025499D01*
X182182495Y-115009515D01*
X182194996Y-115001161D01*
X182253883Y-114984551D01*
X182305000Y-115001159D01*
X182317505Y-115009515D01*
X182397867Y-115025500D01*
X182602132Y-115025499D01*
X182682495Y-115009515D01*
X182694996Y-115001161D01*
X182719757Y-114994176D01*
X182743669Y-114984678D01*
X182748792Y-114985987D01*
X182753883Y-114984551D01*
X182778024Y-114993456D01*
X182802950Y-114999825D01*
X182804965Y-115001135D01*
X182817505Y-115009515D01*
X182890053Y-115023945D01*
X182943435Y-115053842D01*
X182969051Y-115109407D01*
X182957114Y-115169417D01*
X182912184Y-115210949D01*
X182896363Y-115216669D01*
X182884009Y-115219979D01*
X182831674Y-115250196D01*
X182831670Y-115250198D01*
X182815492Y-115259537D01*
X182015489Y-116059540D01*
X182015488Y-116059539D01*
X181959539Y-116115489D01*
X181919980Y-116184007D01*
X181919978Y-116184011D01*
X181899500Y-116260435D01*
X181899500Y-116465024D01*
X181898049Y-116469487D01*
X181899086Y-116474063D01*
X181890867Y-116491593D01*
X181880593Y-116523215D01*
X181874945Y-116530285D01*
X181870265Y-116535622D01*
X181869596Y-116535935D01*
X181785935Y-116619596D01*
X181773755Y-116645715D01*
X181764445Y-116656336D01*
X181749697Y-116665113D01*
X181737995Y-116677663D01*
X181724064Y-116680370D01*
X181711868Y-116687630D01*
X181694778Y-116686062D01*
X181677934Y-116689337D01*
X181665071Y-116683339D01*
X181650938Y-116682043D01*
X181638032Y-116670729D01*
X181622482Y-116663478D01*
X181609713Y-116645904D01*
X181604929Y-116641710D01*
X181604142Y-116638236D01*
X181600276Y-116632915D01*
X181594066Y-116619598D01*
X181594065Y-116619597D01*
X181594065Y-116619596D01*
X181510404Y-116535935D01*
X181510402Y-116535934D01*
X181510401Y-116535933D01*
X181403175Y-116485932D01*
X181366416Y-116481093D01*
X181354316Y-116479500D01*
X181005684Y-116479500D01*
X180993584Y-116481093D01*
X180956825Y-116485932D01*
X180956824Y-116485932D01*
X180849598Y-116535933D01*
X180849596Y-116535934D01*
X180849596Y-116535935D01*
X180765935Y-116619596D01*
X180765934Y-116619597D01*
X180765028Y-116620504D01*
X180710511Y-116648281D01*
X180695024Y-116649500D01*
X178949500Y-116649500D01*
X178891309Y-116630593D01*
X178855345Y-116581093D01*
X178850500Y-116550500D01*
X178850500Y-113449500D01*
X178869407Y-113391309D01*
X178918907Y-113355345D01*
X178949500Y-113350500D01*
X180046142Y-113350500D01*
X180046144Y-113350500D01*
X180135288Y-113326614D01*
X180137689Y-113325227D01*
X180137691Y-113325227D01*
X180171943Y-113305451D01*
X180215212Y-113280470D01*
X180512430Y-112983250D01*
X180566947Y-112955473D01*
X180627379Y-112965044D01*
G37*
G04 #@! TD.AperFunction*
G04 #@! TA.AperFunction,Conductor*
G36*
X178108691Y-110319407D02*
G01*
X178144655Y-110368907D01*
X178149500Y-110399500D01*
X178149500Y-114636039D01*
X178130593Y-114694230D01*
X178081093Y-114730194D01*
X178019907Y-114730194D01*
X177970407Y-114694230D01*
X177960776Y-114677879D01*
X177953225Y-114661686D01*
X177953224Y-114661685D01*
X177953224Y-114661684D01*
X177868316Y-114576776D01*
X177868314Y-114576775D01*
X177868313Y-114576774D01*
X177759489Y-114526029D01*
X177759488Y-114526028D01*
X177742958Y-114523852D01*
X177709901Y-114519500D01*
X177709899Y-114519500D01*
X177290103Y-114519500D01*
X177290092Y-114519501D01*
X177240513Y-114526027D01*
X177240511Y-114526027D01*
X177131686Y-114576774D01*
X177046774Y-114661686D01*
X177046470Y-114662340D01*
X177045854Y-114663000D01*
X177041808Y-114668779D01*
X177040995Y-114668210D01*
X177004742Y-114707088D01*
X176956746Y-114719500D01*
X175534976Y-114719500D01*
X175476785Y-114700593D01*
X175464972Y-114690504D01*
X175464065Y-114689597D01*
X175464065Y-114689596D01*
X175380404Y-114605935D01*
X175380402Y-114605934D01*
X175380401Y-114605933D01*
X175273175Y-114555932D01*
X175240601Y-114551644D01*
X175224316Y-114549500D01*
X174775684Y-114549500D01*
X174759398Y-114551644D01*
X174726825Y-114555932D01*
X174726824Y-114555932D01*
X174619598Y-114605933D01*
X174619596Y-114605934D01*
X174619596Y-114605935D01*
X174535935Y-114689596D01*
X174535934Y-114689597D01*
X174535028Y-114690504D01*
X174480511Y-114718281D01*
X174465024Y-114719500D01*
X173824262Y-114719500D01*
X173766071Y-114700593D01*
X173730107Y-114651093D01*
X173730107Y-114589907D01*
X173766071Y-114540407D01*
X173774749Y-114534770D01*
X173868716Y-114480520D01*
X173980520Y-114368716D01*
X174059577Y-114231784D01*
X174100500Y-114079057D01*
X174100500Y-113920943D01*
X174059577Y-113768216D01*
X173980520Y-113631284D01*
X173868716Y-113519480D01*
X173731784Y-113440423D01*
X173579057Y-113399500D01*
X173420943Y-113399500D01*
X173268216Y-113440423D01*
X173134704Y-113517506D01*
X173131281Y-113519482D01*
X173080259Y-113570504D01*
X173025742Y-113598281D01*
X173010256Y-113599500D01*
X172430991Y-113599500D01*
X172389706Y-113586479D01*
X172388254Y-113589595D01*
X172273175Y-113535932D01*
X172236416Y-113531093D01*
X172224316Y-113529500D01*
X171775684Y-113529500D01*
X171763584Y-113531093D01*
X171726825Y-113535932D01*
X171726824Y-113535932D01*
X171611746Y-113589595D01*
X171610293Y-113586479D01*
X171569009Y-113599500D01*
X171544479Y-113599500D01*
X171486288Y-113580593D01*
X171450324Y-113531093D01*
X171450324Y-113469907D01*
X171474475Y-113430496D01*
X171855475Y-113049496D01*
X171909992Y-113021719D01*
X171925479Y-113020500D01*
X172154314Y-113020500D01*
X172154316Y-113020500D01*
X172203173Y-113014068D01*
X172310404Y-112964065D01*
X172394065Y-112880404D01*
X172444068Y-112773173D01*
X172450500Y-112724316D01*
X172450500Y-112275684D01*
X172444068Y-112226827D01*
X172421405Y-112178227D01*
X172394066Y-112119598D01*
X172394065Y-112119597D01*
X172394065Y-112119596D01*
X172310404Y-112035935D01*
X172310402Y-112035934D01*
X172310401Y-112035933D01*
X172203175Y-111985932D01*
X172170601Y-111981644D01*
X172154316Y-111979500D01*
X171946978Y-111979500D01*
X171888787Y-111960593D01*
X171852823Y-111911093D01*
X171852823Y-111849907D01*
X171876975Y-111810496D01*
X172257975Y-111429496D01*
X172312492Y-111401719D01*
X172327979Y-111400500D01*
X172908257Y-111400500D01*
X172908260Y-111400500D01*
X172976393Y-111390573D01*
X173081483Y-111339198D01*
X173164198Y-111256483D01*
X173164423Y-111256021D01*
X173164819Y-111255612D01*
X173168965Y-111249806D01*
X173169835Y-111250427D01*
X173206965Y-111212047D01*
X173253365Y-111200500D01*
X173746635Y-111200500D01*
X173804826Y-111219407D01*
X173830610Y-111250108D01*
X173831035Y-111249806D01*
X173834884Y-111255197D01*
X173835576Y-111256020D01*
X173835802Y-111256483D01*
X173918517Y-111339198D01*
X173972285Y-111365483D01*
X174023604Y-111390572D01*
X174023605Y-111390572D01*
X174023607Y-111390573D01*
X174091740Y-111400500D01*
X174600500Y-111400500D01*
X174658691Y-111419407D01*
X174694655Y-111468907D01*
X174699500Y-111499500D01*
X174699500Y-112539564D01*
X174719977Y-112615985D01*
X174719979Y-112615990D01*
X174739326Y-112649500D01*
X174750199Y-112668332D01*
X174759540Y-112684511D01*
X175315489Y-113240460D01*
X175315491Y-113240461D01*
X175315493Y-113240463D01*
X175384008Y-113280020D01*
X175384009Y-113280020D01*
X175384012Y-113280022D01*
X175444083Y-113296117D01*
X175495397Y-113329441D01*
X175504196Y-113342243D01*
X175519480Y-113368716D01*
X175631284Y-113480520D01*
X175768216Y-113559577D01*
X175920943Y-113600500D01*
X175920945Y-113600500D01*
X176079055Y-113600500D01*
X176079057Y-113600500D01*
X176231784Y-113559577D01*
X176368716Y-113480520D01*
X176480520Y-113368716D01*
X176559577Y-113231784D01*
X176600500Y-113079057D01*
X176600500Y-112920943D01*
X176559577Y-112768216D01*
X176480520Y-112631284D01*
X176368716Y-112519480D01*
X176231784Y-112440423D01*
X176079057Y-112399500D01*
X175920943Y-112399500D01*
X175768216Y-112440423D01*
X175687679Y-112486921D01*
X175631281Y-112519482D01*
X175607868Y-112542894D01*
X175593898Y-112550011D01*
X175582812Y-112561098D01*
X175567323Y-112563550D01*
X175553351Y-112570670D01*
X175537864Y-112568216D01*
X175522380Y-112570669D01*
X175508407Y-112563549D01*
X175492919Y-112561096D01*
X175467863Y-112542892D01*
X175329496Y-112404525D01*
X175301719Y-112350008D01*
X175300500Y-112334521D01*
X175300500Y-111428365D01*
X175319407Y-111370174D01*
X175350108Y-111344389D01*
X175349806Y-111343965D01*
X175355197Y-111340115D01*
X175356020Y-111339423D01*
X175356483Y-111339198D01*
X175439198Y-111256483D01*
X175490573Y-111151393D01*
X175500500Y-111083260D01*
X175500500Y-110716740D01*
X175490573Y-110648607D01*
X175485811Y-110638867D01*
X175451855Y-110569407D01*
X175439198Y-110543517D01*
X175390682Y-110495001D01*
X175383565Y-110481032D01*
X175372478Y-110469945D01*
X175370025Y-110454457D01*
X175362907Y-110440487D01*
X175365359Y-110425000D01*
X175362907Y-110409513D01*
X175370025Y-110395542D01*
X175372478Y-110380055D01*
X175390681Y-110354999D01*
X175416186Y-110329494D01*
X175470701Y-110301719D01*
X175486188Y-110300500D01*
X178050500Y-110300500D01*
X178108691Y-110319407D01*
G37*
G04 #@! TD.AperFunction*
G04 #@! TA.AperFunction,Conductor*
G36*
X173756800Y-109303802D02*
G01*
X173767434Y-109302709D01*
X173785243Y-109313044D01*
X173804826Y-109319407D01*
X173813020Y-109329164D01*
X173820354Y-109333420D01*
X173829533Y-109343660D01*
X173835802Y-109356483D01*
X173886231Y-109406912D01*
X173888031Y-109408920D01*
X173899369Y-109434541D01*
X173912093Y-109459513D01*
X173911652Y-109462295D01*
X173912792Y-109464871D01*
X173906906Y-109492261D01*
X173902522Y-109519945D01*
X173900529Y-109521937D01*
X173899938Y-109524691D01*
X173884319Y-109544999D01*
X173858815Y-109570504D01*
X173835801Y-109593518D01*
X173784427Y-109698604D01*
X173784427Y-109698607D01*
X173774500Y-109766740D01*
X173774500Y-110133260D01*
X173779991Y-110170944D01*
X173784427Y-110201395D01*
X173812853Y-110259540D01*
X173835802Y-110306483D01*
X173884317Y-110354998D01*
X173890233Y-110366610D01*
X173899938Y-110375309D01*
X173903783Y-110393203D01*
X173912093Y-110409513D01*
X173910054Y-110422387D01*
X173912792Y-110435129D01*
X173905661Y-110450121D01*
X173902522Y-110469945D01*
X173888031Y-110491080D01*
X173886231Y-110493087D01*
X173835802Y-110543517D01*
X173829533Y-110556339D01*
X173820354Y-110566580D01*
X173805208Y-110575369D01*
X173793035Y-110587953D01*
X173776384Y-110592096D01*
X173767434Y-110597291D01*
X173758998Y-110596423D01*
X173746635Y-110599500D01*
X173253365Y-110599500D01*
X173195174Y-110580593D01*
X173169389Y-110549891D01*
X173168965Y-110550194D01*
X173165115Y-110544802D01*
X173164423Y-110543978D01*
X173164198Y-110543518D01*
X173164198Y-110543517D01*
X173081483Y-110460802D01*
X173059635Y-110450121D01*
X172976395Y-110409427D01*
X172949139Y-110405456D01*
X172908260Y-110399500D01*
X171816740Y-110399500D01*
X171782673Y-110404463D01*
X171748604Y-110409427D01*
X171643518Y-110460801D01*
X171560801Y-110543518D01*
X171509427Y-110648604D01*
X171509427Y-110648607D01*
X171499500Y-110716740D01*
X171499500Y-111083260D01*
X171509427Y-111151393D01*
X171509428Y-111151395D01*
X171510132Y-111156226D01*
X171499812Y-111216535D01*
X171456014Y-111259260D01*
X171412166Y-111269500D01*
X170394479Y-111269500D01*
X170336288Y-111250593D01*
X170300324Y-111201093D01*
X170300324Y-111139907D01*
X170324475Y-111100496D01*
X171895475Y-109529496D01*
X171949992Y-109501719D01*
X171965479Y-109500500D01*
X172908257Y-109500500D01*
X172908260Y-109500500D01*
X172976393Y-109490573D01*
X173081483Y-109439198D01*
X173164198Y-109356483D01*
X173164423Y-109356021D01*
X173164819Y-109355612D01*
X173168965Y-109349806D01*
X173169835Y-109350427D01*
X173206965Y-109312047D01*
X173253365Y-109300500D01*
X173746635Y-109300500D01*
X173756800Y-109303802D01*
G37*
G04 #@! TD.AperFunction*
G04 #@! TA.AperFunction,Conductor*
G36*
X183372001Y-106869407D02*
G01*
X183383814Y-106879496D01*
X183620504Y-107116186D01*
X183648281Y-107170703D01*
X183649500Y-107186190D01*
X183649500Y-110877129D01*
X183649501Y-110877136D01*
X183665484Y-110957494D01*
X183665485Y-110957495D01*
X183674508Y-110970999D01*
X183678247Y-110984259D01*
X183686347Y-110995407D01*
X183686347Y-111012977D01*
X183691116Y-111029887D01*
X183686347Y-111042813D01*
X183686347Y-111056593D01*
X183676018Y-111070809D01*
X183669938Y-111087290D01*
X183658483Y-111094943D01*
X183650383Y-111106093D01*
X183633672Y-111111522D01*
X183619065Y-111121283D01*
X183592192Y-111125000D01*
X183407808Y-111125000D01*
X183349617Y-111106093D01*
X183313653Y-111056593D01*
X183313653Y-110995407D01*
X183325492Y-110970999D01*
X183327294Y-110968301D01*
X183334515Y-110957495D01*
X183350500Y-110877133D01*
X183350499Y-110122868D01*
X183334515Y-110042505D01*
X183334512Y-110042501D01*
X183273626Y-109951379D01*
X183273624Y-109951376D01*
X183273620Y-109951373D01*
X183182497Y-109890486D01*
X183182496Y-109890485D01*
X183182495Y-109890485D01*
X183102133Y-109874500D01*
X183102132Y-109874500D01*
X182897870Y-109874500D01*
X182897862Y-109874501D01*
X182817505Y-109890484D01*
X182817501Y-109890486D01*
X182804999Y-109898840D01*
X182746111Y-109915447D01*
X182695001Y-109898840D01*
X182682496Y-109890485D01*
X182682495Y-109890484D01*
X182602134Y-109874500D01*
X182397870Y-109874500D01*
X182397862Y-109874501D01*
X182317505Y-109890484D01*
X182317501Y-109890486D01*
X182304999Y-109898840D01*
X182246111Y-109915447D01*
X182195001Y-109898840D01*
X182182496Y-109890485D01*
X182182495Y-109890484D01*
X182102134Y-109874500D01*
X181897870Y-109874500D01*
X181897862Y-109874501D01*
X181817505Y-109890484D01*
X181817503Y-109890485D01*
X181726379Y-109951373D01*
X181726373Y-109951379D01*
X181665486Y-110042501D01*
X181665486Y-110042503D01*
X181665485Y-110042505D01*
X181651924Y-110110677D01*
X181650107Y-110119815D01*
X181620209Y-110173199D01*
X181564644Y-110198814D01*
X181553009Y-110199500D01*
X179960435Y-110199500D01*
X179884011Y-110219978D01*
X179884007Y-110219980D01*
X179815489Y-110259539D01*
X179734991Y-110340036D01*
X179680474Y-110367813D01*
X179639366Y-110365659D01*
X179594603Y-110353665D01*
X179579057Y-110349500D01*
X179420943Y-110349500D01*
X179268216Y-110390423D01*
X179131284Y-110469480D01*
X179019501Y-110581262D01*
X178964987Y-110609038D01*
X178904555Y-110599467D01*
X178861290Y-110556202D01*
X178850500Y-110511257D01*
X178850500Y-109686190D01*
X178869407Y-109627999D01*
X178879496Y-109616186D01*
X179616186Y-108879496D01*
X179670703Y-108851719D01*
X179686190Y-108850500D01*
X180557953Y-108850500D01*
X180616144Y-108869407D01*
X180627950Y-108879490D01*
X180701684Y-108953224D01*
X180810513Y-109003972D01*
X180860099Y-109010500D01*
X181219900Y-109010499D01*
X181269487Y-109003972D01*
X181269488Y-109003972D01*
X181343414Y-108969499D01*
X181378316Y-108953224D01*
X181463224Y-108868316D01*
X181513972Y-108759487D01*
X181520500Y-108709901D01*
X181520499Y-108290100D01*
X181513972Y-108240513D01*
X181513972Y-108240511D01*
X181463225Y-108131686D01*
X181463224Y-108131685D01*
X181463224Y-108131684D01*
X181378316Y-108046776D01*
X181378314Y-108046775D01*
X181378313Y-108046774D01*
X181269489Y-107996029D01*
X181269488Y-107996028D01*
X181252958Y-107993852D01*
X181219901Y-107989500D01*
X181219899Y-107989500D01*
X180860104Y-107989500D01*
X180860092Y-107989501D01*
X180810513Y-107996027D01*
X180810511Y-107996027D01*
X180701686Y-108046774D01*
X180701684Y-108046775D01*
X180701684Y-108046776D01*
X180627954Y-108120505D01*
X180573440Y-108148281D01*
X180557953Y-108149500D01*
X179453856Y-108149500D01*
X179445575Y-108151719D01*
X179410440Y-108161133D01*
X179410439Y-108161132D01*
X179364715Y-108173384D01*
X179284785Y-108219532D01*
X179019503Y-108484814D01*
X178964987Y-108512591D01*
X178904555Y-108503020D01*
X178861290Y-108459755D01*
X178850500Y-108414810D01*
X178850500Y-108186189D01*
X178869407Y-108127998D01*
X178879496Y-108116185D01*
X180116185Y-106879496D01*
X180170702Y-106851719D01*
X180186189Y-106850500D01*
X183313810Y-106850500D01*
X183372001Y-106869407D01*
G37*
G04 #@! TD.AperFunction*
M02*
