G04 #@! TF.GenerationSoftware,KiCad,Pcbnew,10.0.1*
G04 #@! TF.CreationDate,2026-06-09T21:48:43-04:00*
G04 #@! TF.ProjectId,posture_tracker_v2,706f7374-7572-4655-9f74-7261636b6572,rev?*
G04 #@! TF.SameCoordinates,Original*
G04 #@! TF.FileFunction,Copper,L2,Bot*
G04 #@! TF.FilePolarity,Positive*
%FSLAX46Y46*%
G04 Gerber Fmt 4.6, Leading zero omitted, Abs format (unit mm)*
G04 Created by KiCad (PCBNEW 10.0.1) date 2026-06-09 21:48:43*
%MOMM*%
%LPD*%
G01*
G04 APERTURE LIST*
G04 Aperture macros list*
%AMRoundRect*
0 Rectangle with rounded corners*
0 $1 Rounding radius*
0 $2 $3 $4 $5 $6 $7 $8 $9 X,Y pos of 4 corners*
0 Add a 4 corners polygon primitive as box body*
4,1,4,$2,$3,$4,$5,$6,$7,$8,$9,$2,$3,0*
0 Add four circle primitives for the rounded corners*
1,1,$1+$1,$2,$3*
1,1,$1+$1,$4,$5*
1,1,$1+$1,$6,$7*
1,1,$1+$1,$8,$9*
0 Add four rect primitives between the rounded corners*
20,1,$1+$1,$2,$3,$4,$5,0*
20,1,$1+$1,$4,$5,$6,$7,0*
20,1,$1+$1,$6,$7,$8,$9,0*
20,1,$1+$1,$8,$9,$2,$3,0*%
G04 Aperture macros list end*
G04 #@! TA.AperFunction,ComponentPad*
%ADD10RoundRect,0.200000X-0.200000X-0.450000X0.200000X-0.450000X0.200000X0.450000X-0.200000X0.450000X0*%
G04 #@! TD*
G04 #@! TA.AperFunction,ComponentPad*
%ADD11O,0.800000X1.300000*%
G04 #@! TD*
G04 #@! TA.AperFunction,ComponentPad*
%ADD12RoundRect,0.250000X-0.625000X0.350000X-0.625000X-0.350000X0.625000X-0.350000X0.625000X0.350000X0*%
G04 #@! TD*
G04 #@! TA.AperFunction,ComponentPad*
%ADD13O,1.750000X1.200000*%
G04 #@! TD*
G04 #@! TA.AperFunction,ComponentPad*
%ADD14O,2.100000X1.000000*%
G04 #@! TD*
G04 #@! TA.AperFunction,ComponentPad*
%ADD15O,1.600000X1.000000*%
G04 #@! TD*
G04 #@! TA.AperFunction,ViaPad*
%ADD16C,0.800000*%
G04 #@! TD*
G04 #@! TA.AperFunction,ViaPad*
%ADD17C,0.600000*%
G04 #@! TD*
G04 #@! TA.AperFunction,Conductor*
%ADD18C,0.400000*%
G04 #@! TD*
G04 #@! TA.AperFunction,Conductor*
%ADD19C,0.200000*%
G04 #@! TD*
G04 APERTURE END LIST*
D10*
X182250000Y-131000000D03*
D11*
X183500000Y-131000000D03*
D10*
X194750000Y-131000000D03*
D11*
X196000000Y-131000000D03*
D12*
X167545000Y-122320000D03*
D13*
X167545000Y-124320000D03*
D14*
X168130000Y-107500000D03*
D15*
X163950000Y-107500000D03*
D14*
X168130000Y-116140000D03*
D15*
X163950000Y-116140000D03*
D16*
X173500000Y-114000000D03*
D17*
X179500000Y-114000000D03*
X172000000Y-130500000D03*
X205000000Y-116000000D03*
X171000000Y-110970000D03*
X202500000Y-127000000D03*
X185500000Y-121000000D03*
X174000000Y-112500000D03*
X163500000Y-110000000D03*
X182000000Y-122000000D03*
X176900000Y-119000000D03*
X206000000Y-133000000D03*
X162500000Y-133000000D03*
X175000000Y-130500000D03*
X167000000Y-128500000D03*
X177000000Y-111500000D03*
X183000000Y-108000000D03*
X177500000Y-124500000D03*
X185000000Y-116100000D03*
X182500000Y-118500000D03*
D16*
X179500000Y-110950000D03*
X186500000Y-113000000D03*
X186200000Y-119008132D03*
X186434314Y-114434314D03*
X200100000Y-118500000D03*
X176000000Y-116000000D03*
X189500000Y-110250000D03*
X166000000Y-133270000D03*
X178500000Y-122500000D03*
X189500000Y-114500000D03*
X176000000Y-107000000D03*
X194500000Y-118500000D03*
X196500000Y-118500000D03*
X176000000Y-113000000D03*
X202000000Y-122500000D03*
X195000000Y-123500000D03*
X172000000Y-116000000D03*
X169000000Y-127500000D03*
D18*
X167545000Y-118955000D02*
X167545000Y-122320000D01*
D19*
X173500000Y-114000000D02*
X173010050Y-114000000D01*
D18*
X173010050Y-114000000D02*
X172500000Y-114000000D01*
X172500000Y-114000000D02*
X167545000Y-118955000D01*
D19*
X183500000Y-117500000D02*
X183500000Y-116500000D01*
X183500000Y-116500000D02*
X184000000Y-116000000D01*
X185000000Y-116000000D02*
X185000000Y-116100000D01*
X182500000Y-118500000D02*
X183500000Y-117500000D01*
X184000000Y-116000000D02*
X185000000Y-116000000D01*
X184500000Y-111000000D02*
X186500000Y-113000000D01*
X179539340Y-111000000D02*
X184500000Y-111000000D01*
X179500000Y-110960660D02*
X179539340Y-111000000D01*
X179500000Y-110950000D02*
X179500000Y-110960660D01*
X186200000Y-119008132D02*
X186200000Y-119000000D01*
X186434314Y-114834314D02*
X186434314Y-114434314D01*
X186500000Y-118700000D02*
X186500000Y-114900000D01*
X186200000Y-119000000D02*
X186500000Y-118700000D01*
X186500000Y-114900000D02*
X186434314Y-114834314D01*
X192034315Y-127665685D02*
X179335173Y-127665685D01*
X200100000Y-119600000D02*
X192034315Y-127665685D01*
X179335173Y-127665685D02*
X176000000Y-124330512D01*
X176000000Y-124330512D02*
X176000000Y-116000000D01*
X200100000Y-118500000D02*
X200100000Y-119600000D01*
X164650000Y-131920000D02*
X164650000Y-127350000D01*
X166000000Y-112000000D02*
X167750000Y-110250000D01*
X167750000Y-110250000D02*
X189500000Y-110250000D01*
X166000000Y-133270000D02*
X164650000Y-131920000D01*
X164650000Y-127350000D02*
X166000000Y-126000000D01*
X166000000Y-126000000D02*
X166000000Y-112000000D01*
X187000000Y-115000000D02*
X187500000Y-114500000D01*
X187500000Y-114500000D02*
X189500000Y-114500000D01*
X178500000Y-122500000D02*
X178500000Y-123500000D01*
X187000000Y-124000000D02*
X187000000Y-115000000D01*
X180000000Y-125000000D02*
X186000000Y-125000000D01*
X186000000Y-125000000D02*
X187000000Y-124000000D01*
X178500000Y-123500000D02*
X180000000Y-125000000D01*
X187299265Y-107000000D02*
X176000000Y-107000000D01*
X194500000Y-118500000D02*
X195000000Y-118000000D01*
X190300000Y-110000735D02*
X190300000Y-109918629D01*
X189749265Y-109450000D02*
X187299265Y-107000000D01*
X190300000Y-109918629D02*
X189831371Y-109450000D01*
X189831371Y-109450000D02*
X189749265Y-109450000D01*
X195000000Y-118000000D02*
X195000000Y-114700735D01*
X195000000Y-114700735D02*
X190300000Y-110000735D01*
X196500000Y-118500000D02*
X196500000Y-119000000D01*
X195200000Y-120300000D02*
X190100000Y-125400000D01*
X190100000Y-125400000D02*
X179551471Y-125400000D01*
X195800000Y-119831371D02*
X195331371Y-120300000D01*
X179551471Y-125400000D02*
X177500000Y-123348529D01*
X195331371Y-120300000D02*
X195200000Y-120300000D01*
X195800000Y-119700000D02*
X195800000Y-119831371D01*
X177500000Y-123348529D02*
X177500000Y-114500000D01*
X196500000Y-119000000D02*
X195800000Y-119700000D01*
X177500000Y-114500000D02*
X176000000Y-113000000D01*
X202000000Y-124000000D02*
X201000000Y-125000000D01*
X200389950Y-117800000D02*
X199810050Y-117800000D01*
X200800000Y-118789950D02*
X200800000Y-118210050D01*
X200500000Y-119089950D02*
X200800000Y-118789950D01*
X198000000Y-125000000D02*
X196632843Y-123632843D01*
X199400000Y-118210050D02*
X199400000Y-118789950D01*
X200500000Y-119765686D02*
X200500000Y-119089950D01*
X195634314Y-123500000D02*
X195000000Y-123500000D01*
X199810050Y-117800000D02*
X199400000Y-118210050D01*
X196632843Y-123632843D02*
X200500000Y-119765686D01*
X201000000Y-125000000D02*
X198000000Y-125000000D01*
X200800000Y-118210050D02*
X200389950Y-117800000D01*
X199700000Y-119089950D02*
X199700000Y-119434314D01*
X202000000Y-122500000D02*
X202000000Y-124000000D01*
X199700000Y-119434314D02*
X195634314Y-123500000D01*
X199400000Y-118789950D02*
X199700000Y-119089950D01*
X170000000Y-126500000D02*
X170000000Y-118000000D01*
X170000000Y-118000000D02*
X172000000Y-116000000D01*
X169000000Y-127500000D02*
X170000000Y-126500000D01*
G04 #@! TA.AperFunction,Conductor*
G36*
X207863691Y-106189407D02*
G01*
X207899655Y-106238907D01*
X207904500Y-106269500D01*
X207904500Y-133570500D01*
X207885593Y-133628691D01*
X207836093Y-133664655D01*
X207805500Y-133669500D01*
X166634219Y-133669500D01*
X166576028Y-133650593D01*
X166540064Y-133601093D01*
X166540064Y-133539907D01*
X166548479Y-133521005D01*
X166559577Y-133501784D01*
X166600500Y-133349057D01*
X166600500Y-133190943D01*
X166559577Y-133038216D01*
X166480520Y-132901284D01*
X166368716Y-132789480D01*
X166231784Y-132710423D01*
X166079057Y-132669500D01*
X165920943Y-132669500D01*
X165912027Y-132671889D01*
X165900064Y-132675094D01*
X165838963Y-132671889D01*
X165804441Y-132649470D01*
X164979496Y-131824525D01*
X164951719Y-131770008D01*
X164950500Y-131754521D01*
X164950500Y-130518478D01*
X181649500Y-130518478D01*
X181649500Y-131481521D01*
X181649501Y-131481523D01*
X181664352Y-131575299D01*
X181664354Y-131575304D01*
X181721950Y-131688342D01*
X181811658Y-131778050D01*
X181924696Y-131835646D01*
X182018481Y-131850500D01*
X182481518Y-131850499D01*
X182481520Y-131850499D01*
X182481521Y-131850498D01*
X182528411Y-131843072D01*
X182575299Y-131835647D01*
X182575299Y-131835646D01*
X182575304Y-131835646D01*
X182688342Y-131778050D01*
X182778050Y-131688342D01*
X182827299Y-131591684D01*
X182870563Y-131548421D01*
X182930995Y-131538850D01*
X182985512Y-131566628D01*
X183001244Y-131587131D01*
X183003874Y-131591686D01*
X183019480Y-131618716D01*
X183131284Y-131730520D01*
X183268216Y-131809577D01*
X183420943Y-131850500D01*
X183420945Y-131850500D01*
X183579055Y-131850500D01*
X183579057Y-131850500D01*
X183731784Y-131809577D01*
X183868716Y-131730520D01*
X183980520Y-131618716D01*
X184059577Y-131481784D01*
X184100500Y-131329057D01*
X184100500Y-130670943D01*
X184059647Y-130518478D01*
X194149500Y-130518478D01*
X194149500Y-131481521D01*
X194149501Y-131481523D01*
X194164352Y-131575299D01*
X194164354Y-131575304D01*
X194221950Y-131688342D01*
X194311658Y-131778050D01*
X194424696Y-131835646D01*
X194518481Y-131850500D01*
X194981518Y-131850499D01*
X194981520Y-131850499D01*
X194981521Y-131850498D01*
X195028411Y-131843072D01*
X195075299Y-131835647D01*
X195075299Y-131835646D01*
X195075304Y-131835646D01*
X195188342Y-131778050D01*
X195278050Y-131688342D01*
X195327299Y-131591684D01*
X195370563Y-131548421D01*
X195430995Y-131538850D01*
X195485512Y-131566628D01*
X195501244Y-131587131D01*
X195503874Y-131591686D01*
X195519480Y-131618716D01*
X195631284Y-131730520D01*
X195768216Y-131809577D01*
X195920943Y-131850500D01*
X195920945Y-131850500D01*
X196079055Y-131850500D01*
X196079057Y-131850500D01*
X196231784Y-131809577D01*
X196368716Y-131730520D01*
X196480520Y-131618716D01*
X196559577Y-131481784D01*
X196600500Y-131329057D01*
X196600500Y-130670943D01*
X196559577Y-130518216D01*
X196480520Y-130381284D01*
X196368716Y-130269480D01*
X196231784Y-130190423D01*
X196079057Y-130149500D01*
X195920943Y-130149500D01*
X195768216Y-130190423D01*
X195631284Y-130269480D01*
X195519479Y-130381285D01*
X195501244Y-130412869D01*
X195455773Y-130453810D01*
X195394923Y-130460204D01*
X195341936Y-130429611D01*
X195327299Y-130408314D01*
X195313526Y-130381284D01*
X195278050Y-130311658D01*
X195188342Y-130221950D01*
X195075304Y-130164354D01*
X195075305Y-130164354D01*
X194981522Y-130149500D01*
X194518479Y-130149500D01*
X194518476Y-130149501D01*
X194424700Y-130164352D01*
X194424695Y-130164354D01*
X194311659Y-130221949D01*
X194221949Y-130311659D01*
X194164354Y-130424695D01*
X194149500Y-130518478D01*
X184059647Y-130518478D01*
X184059577Y-130518216D01*
X183980520Y-130381284D01*
X183868716Y-130269480D01*
X183731784Y-130190423D01*
X183579057Y-130149500D01*
X183420943Y-130149500D01*
X183268216Y-130190423D01*
X183131284Y-130269480D01*
X183019479Y-130381285D01*
X183001244Y-130412869D01*
X182955773Y-130453810D01*
X182894923Y-130460204D01*
X182841936Y-130429611D01*
X182827299Y-130408314D01*
X182813526Y-130381284D01*
X182778050Y-130311658D01*
X182688342Y-130221950D01*
X182575304Y-130164354D01*
X182575305Y-130164354D01*
X182481522Y-130149500D01*
X182018479Y-130149500D01*
X182018476Y-130149501D01*
X181924700Y-130164352D01*
X181924695Y-130164354D01*
X181811659Y-130221949D01*
X181721949Y-130311659D01*
X181664354Y-130424695D01*
X181649500Y-130518478D01*
X164950500Y-130518478D01*
X164950500Y-127515478D01*
X164969407Y-127457287D01*
X164979490Y-127445480D01*
X166240460Y-126184511D01*
X166280021Y-126115989D01*
X166300500Y-126039562D01*
X166300500Y-125145142D01*
X166319407Y-125086951D01*
X166368907Y-125050987D01*
X166430093Y-125050987D01*
X166469504Y-125075138D01*
X166553403Y-125159037D01*
X166693471Y-125260802D01*
X166693475Y-125260804D01*
X166847751Y-125339411D01*
X167012420Y-125392915D01*
X167183425Y-125420000D01*
X167294999Y-125420000D01*
X167295000Y-125419999D01*
X167295000Y-124600330D01*
X167314745Y-124620075D01*
X167400255Y-124669444D01*
X167495630Y-124695000D01*
X167594370Y-124695000D01*
X167689745Y-124669444D01*
X167775255Y-124620075D01*
X167795000Y-124600330D01*
X167795000Y-125419999D01*
X167795001Y-125420000D01*
X167906575Y-125420000D01*
X168077579Y-125392915D01*
X168242248Y-125339411D01*
X168396524Y-125260804D01*
X168396528Y-125260802D01*
X168536596Y-125159037D01*
X168659037Y-125036596D01*
X168760802Y-124896528D01*
X168760804Y-124896524D01*
X168839411Y-124742248D01*
X168892913Y-124577586D01*
X168894114Y-124570000D01*
X167825330Y-124570000D01*
X167845075Y-124550255D01*
X167894444Y-124464745D01*
X167920000Y-124369370D01*
X167920000Y-124270630D01*
X167894444Y-124175255D01*
X167845075Y-124089745D01*
X167825330Y-124070000D01*
X168894114Y-124070000D01*
X168892913Y-124062413D01*
X168839411Y-123897751D01*
X168760804Y-123743475D01*
X168760802Y-123743471D01*
X168659037Y-123603403D01*
X168536596Y-123480962D01*
X168396528Y-123379197D01*
X168396524Y-123379195D01*
X168240832Y-123299867D01*
X168197567Y-123256602D01*
X168187996Y-123196170D01*
X168215773Y-123141654D01*
X168253079Y-123118213D01*
X168276410Y-123110049D01*
X168382882Y-123072793D01*
X168492150Y-122992150D01*
X168572793Y-122882882D01*
X168617646Y-122754699D01*
X168620499Y-122724273D01*
X168620500Y-122724273D01*
X168620500Y-121915727D01*
X168620499Y-121915725D01*
X168617646Y-121885301D01*
X168572793Y-121757118D01*
X168492150Y-121647850D01*
X168492146Y-121647847D01*
X168492144Y-121647845D01*
X168382883Y-121567207D01*
X168254703Y-121522355D01*
X168254694Y-121522353D01*
X168224274Y-121519500D01*
X168224266Y-121519500D01*
X168044500Y-121519500D01*
X167986309Y-121500593D01*
X167950345Y-121451093D01*
X167945500Y-121420500D01*
X167945500Y-119161901D01*
X167964407Y-119103710D01*
X167974496Y-119091897D01*
X169566893Y-117499500D01*
X171231794Y-115834598D01*
X171286309Y-115806823D01*
X171346741Y-115816394D01*
X171390006Y-115859659D01*
X171399423Y-115914454D01*
X171399500Y-115914454D01*
X171399500Y-115914899D01*
X171399950Y-115917518D01*
X171399500Y-115920938D01*
X171399500Y-116079056D01*
X171405093Y-116099931D01*
X171401890Y-116161033D01*
X171379470Y-116195557D01*
X169815489Y-117759540D01*
X169815488Y-117759539D01*
X169759539Y-117815489D01*
X169719980Y-117884007D01*
X169719978Y-117884011D01*
X169699500Y-117960435D01*
X169699500Y-126334520D01*
X169680593Y-126392711D01*
X169670503Y-126404524D01*
X169195556Y-126879470D01*
X169141040Y-126907247D01*
X169099931Y-126905093D01*
X169079057Y-126899500D01*
X168920943Y-126899500D01*
X168768216Y-126940423D01*
X168631284Y-127019480D01*
X168519480Y-127131284D01*
X168440423Y-127268216D01*
X168399500Y-127420943D01*
X168399500Y-127579057D01*
X168440423Y-127731784D01*
X168519480Y-127868716D01*
X168631284Y-127980520D01*
X168768216Y-128059577D01*
X168920943Y-128100500D01*
X168920945Y-128100500D01*
X169079055Y-128100500D01*
X169079057Y-128100500D01*
X169231784Y-128059577D01*
X169368716Y-127980520D01*
X169480520Y-127868716D01*
X169559577Y-127731784D01*
X169600500Y-127579057D01*
X169600500Y-127420943D01*
X169594906Y-127400065D01*
X169598109Y-127338965D01*
X169620527Y-127304443D01*
X170240460Y-126684511D01*
X170280022Y-126615988D01*
X170300500Y-126539562D01*
X170300500Y-126460438D01*
X170300500Y-118165478D01*
X170319407Y-118107287D01*
X170329490Y-118095480D01*
X171804442Y-116620527D01*
X171858957Y-116592752D01*
X171900065Y-116594905D01*
X171920943Y-116600500D01*
X171920944Y-116600500D01*
X172079055Y-116600500D01*
X172079057Y-116600500D01*
X172231784Y-116559577D01*
X172368716Y-116480520D01*
X172480520Y-116368716D01*
X172559577Y-116231784D01*
X172600500Y-116079057D01*
X172600500Y-115920943D01*
X175399500Y-115920943D01*
X175399500Y-116079057D01*
X175440423Y-116231784D01*
X175519480Y-116368716D01*
X175631284Y-116480520D01*
X175650000Y-116491325D01*
X175690940Y-116536792D01*
X175699500Y-116577061D01*
X175699500Y-124370076D01*
X175719978Y-124446500D01*
X175719980Y-124446504D01*
X175730512Y-124464745D01*
X175759540Y-124515023D01*
X179094713Y-127850196D01*
X179094712Y-127850196D01*
X179150662Y-127906145D01*
X179219180Y-127945704D01*
X179219184Y-127945706D01*
X179295608Y-127966184D01*
X179295610Y-127966185D01*
X179295611Y-127966185D01*
X192073878Y-127966185D01*
X192073878Y-127966184D01*
X192150304Y-127945706D01*
X192218826Y-127906145D01*
X192274775Y-127850196D01*
X196279997Y-123844972D01*
X196334512Y-123817197D01*
X196394944Y-123826768D01*
X196420003Y-123844974D01*
X197759540Y-125184511D01*
X197759539Y-125184511D01*
X197815489Y-125240460D01*
X197884007Y-125280019D01*
X197884011Y-125280021D01*
X197960435Y-125300499D01*
X197960437Y-125300500D01*
X197960438Y-125300500D01*
X201039563Y-125300500D01*
X201039563Y-125300499D01*
X201115989Y-125280021D01*
X201184511Y-125240460D01*
X201240460Y-125184511D01*
X202240460Y-124184511D01*
X202280022Y-124115988D01*
X202300500Y-124039562D01*
X202300500Y-123960438D01*
X202300500Y-123077061D01*
X202319407Y-123018870D01*
X202349997Y-122991326D01*
X202368716Y-122980520D01*
X202480520Y-122868716D01*
X202559577Y-122731784D01*
X202600500Y-122579057D01*
X202600500Y-122420943D01*
X202559577Y-122268216D01*
X202480520Y-122131284D01*
X202368716Y-122019480D01*
X202231784Y-121940423D01*
X202079057Y-121899500D01*
X201920943Y-121899500D01*
X201768216Y-121940423D01*
X201631284Y-122019480D01*
X201519480Y-122131284D01*
X201440423Y-122268216D01*
X201399500Y-122420943D01*
X201399500Y-122579057D01*
X201440423Y-122731784D01*
X201519480Y-122868716D01*
X201631284Y-122980520D01*
X201650000Y-122991325D01*
X201690940Y-123036792D01*
X201699500Y-123077061D01*
X201699500Y-123834521D01*
X201680593Y-123892712D01*
X201670504Y-123904525D01*
X200904525Y-124670504D01*
X200850008Y-124698281D01*
X200834521Y-124699500D01*
X198165479Y-124699500D01*
X198107288Y-124680593D01*
X198095475Y-124670504D01*
X197127818Y-123702847D01*
X197100041Y-123648330D01*
X197109612Y-123587898D01*
X197127818Y-123562839D01*
X200740461Y-119950196D01*
X200740461Y-119950195D01*
X200742098Y-119947360D01*
X200780021Y-119881675D01*
X200800500Y-119805248D01*
X200800500Y-119255428D01*
X200819407Y-119197237D01*
X200829490Y-119185430D01*
X201040460Y-118974461D01*
X201072019Y-118919799D01*
X201080021Y-118905939D01*
X201100500Y-118829512D01*
X201100500Y-118170488D01*
X201080021Y-118094061D01*
X201040460Y-118025539D01*
X201013202Y-117998281D01*
X200984512Y-117969590D01*
X200574460Y-117559539D01*
X200505942Y-117519980D01*
X200505938Y-117519978D01*
X200429514Y-117499500D01*
X200429512Y-117499500D01*
X199770488Y-117499500D01*
X199770485Y-117499500D01*
X199694061Y-117519978D01*
X199694057Y-117519980D01*
X199625539Y-117559539D01*
X199159539Y-118025539D01*
X199119980Y-118094057D01*
X199119978Y-118094061D01*
X199099500Y-118170485D01*
X199099500Y-118829514D01*
X199119977Y-118905935D01*
X199119979Y-118905939D01*
X199127981Y-118919799D01*
X199159540Y-118974461D01*
X199370505Y-119185426D01*
X199374130Y-119192541D01*
X199380593Y-119197237D01*
X199387756Y-119219285D01*
X199398281Y-119239941D01*
X199399500Y-119255428D01*
X199399500Y-119268834D01*
X199380593Y-119327025D01*
X199370504Y-119338838D01*
X195599292Y-123110049D01*
X195544775Y-123137826D01*
X195484343Y-123128255D01*
X195459287Y-123110051D01*
X195368716Y-123019480D01*
X195231784Y-122940423D01*
X195079057Y-122899500D01*
X194920943Y-122899500D01*
X194768216Y-122940423D01*
X194631284Y-123019480D01*
X194519480Y-123131284D01*
X194440423Y-123268216D01*
X194399500Y-123420943D01*
X194399500Y-123579057D01*
X194440423Y-123731784D01*
X194519480Y-123868716D01*
X194631284Y-123980520D01*
X194768216Y-124059577D01*
X194920943Y-124100500D01*
X194920945Y-124100500D01*
X194935520Y-124100500D01*
X194993711Y-124119407D01*
X195029675Y-124168907D01*
X195029675Y-124230093D01*
X195005524Y-124269504D01*
X191938840Y-127336189D01*
X191884323Y-127363966D01*
X191868836Y-127365185D01*
X179500652Y-127365185D01*
X179442461Y-127346278D01*
X179430648Y-127336189D01*
X176329496Y-124235037D01*
X176301719Y-124180520D01*
X176300500Y-124165033D01*
X176300500Y-116577061D01*
X176319407Y-116518870D01*
X176349997Y-116491326D01*
X176368716Y-116480520D01*
X176480520Y-116368716D01*
X176559577Y-116231784D01*
X176600500Y-116079057D01*
X176600500Y-115920943D01*
X176559577Y-115768216D01*
X176480520Y-115631284D01*
X176368716Y-115519480D01*
X176231784Y-115440423D01*
X176079057Y-115399500D01*
X175920943Y-115399500D01*
X175768216Y-115440423D01*
X175631284Y-115519480D01*
X175519480Y-115631284D01*
X175440423Y-115768216D01*
X175399500Y-115920943D01*
X172600500Y-115920943D01*
X172559577Y-115768216D01*
X172480520Y-115631284D01*
X172368716Y-115519480D01*
X172231784Y-115440423D01*
X172079057Y-115399500D01*
X171920943Y-115399500D01*
X171920938Y-115399500D01*
X171917518Y-115399950D01*
X171915091Y-115399500D01*
X171914454Y-115399500D01*
X171914454Y-115399381D01*
X171857359Y-115388795D01*
X171815245Y-115344410D01*
X171807263Y-115283747D01*
X171834598Y-115231794D01*
X172636897Y-114429496D01*
X172691414Y-114401719D01*
X172706901Y-114400500D01*
X173010256Y-114400500D01*
X173068447Y-114419407D01*
X173080259Y-114429496D01*
X173111199Y-114460435D01*
X173131284Y-114480520D01*
X173268216Y-114559577D01*
X173420943Y-114600500D01*
X173420945Y-114600500D01*
X173579055Y-114600500D01*
X173579057Y-114600500D01*
X173731784Y-114559577D01*
X173868716Y-114480520D01*
X173980520Y-114368716D01*
X174059577Y-114231784D01*
X174100500Y-114079057D01*
X174100500Y-113920943D01*
X174059577Y-113768216D01*
X173980520Y-113631284D01*
X173868716Y-113519480D01*
X173731784Y-113440423D01*
X173579057Y-113399500D01*
X173420943Y-113399500D01*
X173268216Y-113440423D01*
X173198766Y-113480520D01*
X173131281Y-113519482D01*
X173080259Y-113570504D01*
X173025742Y-113598281D01*
X173010256Y-113599500D01*
X172552727Y-113599500D01*
X172447273Y-113599500D01*
X172384929Y-113616204D01*
X172345407Y-113626794D01*
X172254091Y-113679516D01*
X172254090Y-113679517D01*
X169846157Y-116087448D01*
X169791640Y-116115225D01*
X169731208Y-116105654D01*
X169687943Y-116062389D01*
X169679055Y-116036758D01*
X169641570Y-115848311D01*
X169641570Y-115848309D01*
X169566191Y-115666326D01*
X169566185Y-115666314D01*
X169456750Y-115502537D01*
X169456747Y-115502533D01*
X169317466Y-115363252D01*
X169317462Y-115363249D01*
X169153685Y-115253814D01*
X169153673Y-115253808D01*
X168971689Y-115178429D01*
X168778493Y-115140000D01*
X168380001Y-115140000D01*
X168380000Y-115140001D01*
X168380000Y-115840000D01*
X167880000Y-115840000D01*
X167880000Y-115270029D01*
X167898907Y-115211838D01*
X167929498Y-115184294D01*
X167953365Y-115170515D01*
X168060515Y-115063365D01*
X168108346Y-114980520D01*
X168136279Y-114932139D01*
X168136279Y-114932137D01*
X168136281Y-114932135D01*
X168175500Y-114785766D01*
X168175500Y-114634234D01*
X168136281Y-114487865D01*
X168136279Y-114487862D01*
X168136279Y-114487860D01*
X168060518Y-114356639D01*
X168060516Y-114356637D01*
X168060515Y-114356635D01*
X167953365Y-114249485D01*
X167953362Y-114249483D01*
X167953360Y-114249481D01*
X167822138Y-114173720D01*
X167822140Y-114173720D01*
X167733613Y-114150000D01*
X167675766Y-114134500D01*
X167524234Y-114134500D01*
X167466387Y-114150000D01*
X167377860Y-114173720D01*
X167246639Y-114249481D01*
X167139481Y-114356639D01*
X167063720Y-114487860D01*
X167056119Y-114516228D01*
X167024500Y-114634234D01*
X167024500Y-114785766D01*
X167046726Y-114868715D01*
X167063720Y-114932139D01*
X167139481Y-115063360D01*
X167139483Y-115063362D01*
X167139485Y-115063365D01*
X167159671Y-115083551D01*
X167187447Y-115138066D01*
X167177876Y-115198498D01*
X167134611Y-115241763D01*
X167127552Y-115245017D01*
X167106322Y-115253810D01*
X166942537Y-115363249D01*
X166942533Y-115363252D01*
X166803252Y-115502533D01*
X166803249Y-115502537D01*
X166693814Y-115666314D01*
X166693808Y-115666326D01*
X166618431Y-115848304D01*
X166618428Y-115848315D01*
X166610137Y-115890000D01*
X167413012Y-115890000D01*
X167395795Y-115899940D01*
X167339940Y-115955795D01*
X167300444Y-116024204D01*
X167280000Y-116100504D01*
X167280000Y-116179496D01*
X167300444Y-116255796D01*
X167339940Y-116324205D01*
X167395795Y-116380060D01*
X167413012Y-116390000D01*
X166610137Y-116390000D01*
X166618428Y-116431684D01*
X166618431Y-116431695D01*
X166693808Y-116613673D01*
X166693814Y-116613685D01*
X166803249Y-116777462D01*
X166803252Y-116777466D01*
X166942533Y-116916747D01*
X166942537Y-116916750D01*
X167106314Y-117026185D01*
X167106326Y-117026191D01*
X167288310Y-117101570D01*
X167481506Y-117139999D01*
X167481510Y-117140000D01*
X167879999Y-117140000D01*
X167880000Y-117139999D01*
X167880000Y-116440000D01*
X168380000Y-116440000D01*
X168380000Y-117139999D01*
X168380001Y-117140000D01*
X168554598Y-117140000D01*
X168612789Y-117158907D01*
X168648753Y-117208407D01*
X168648753Y-117269593D01*
X168624602Y-117309004D01*
X167224517Y-118709090D01*
X167224516Y-118709091D01*
X167171795Y-118800406D01*
X167171793Y-118800410D01*
X167171793Y-118800412D01*
X167158643Y-118849490D01*
X167158643Y-118849491D01*
X167158642Y-118849490D01*
X167144500Y-118902273D01*
X167144500Y-121420500D01*
X167125593Y-121478691D01*
X167076093Y-121514655D01*
X167045500Y-121519500D01*
X166865725Y-121519500D01*
X166835305Y-121522353D01*
X166835296Y-121522355D01*
X166707116Y-121567207D01*
X166597855Y-121647845D01*
X166597845Y-121647855D01*
X166517207Y-121757116D01*
X166492944Y-121826457D01*
X166455879Y-121875137D01*
X166397278Y-121892734D01*
X166339527Y-121872526D01*
X166304683Y-121822231D01*
X166300500Y-121793759D01*
X166300500Y-112920943D01*
X175399500Y-112920943D01*
X175399500Y-113079057D01*
X175440423Y-113231784D01*
X175519480Y-113368716D01*
X175631284Y-113480520D01*
X175768216Y-113559577D01*
X175920943Y-113600500D01*
X175920945Y-113600500D01*
X176079056Y-113600500D01*
X176079057Y-113600500D01*
X176099930Y-113594907D01*
X176161031Y-113598108D01*
X176195558Y-113620529D01*
X177170504Y-114595475D01*
X177198281Y-114649992D01*
X177199500Y-114665479D01*
X177199500Y-123388093D01*
X177219978Y-123464517D01*
X177219979Y-123464518D01*
X177250196Y-123516855D01*
X177259540Y-123533040D01*
X179311011Y-125584511D01*
X179311010Y-125584511D01*
X179366960Y-125640460D01*
X179435478Y-125680019D01*
X179435482Y-125680021D01*
X179511906Y-125700499D01*
X179511908Y-125700500D01*
X179511909Y-125700500D01*
X190139563Y-125700500D01*
X190139563Y-125700499D01*
X190215989Y-125680021D01*
X190284511Y-125640460D01*
X190340460Y-125584511D01*
X195295475Y-120629496D01*
X195349992Y-120601719D01*
X195365479Y-120600500D01*
X195370934Y-120600500D01*
X195370934Y-120600499D01*
X195447360Y-120580021D01*
X195515882Y-120540460D01*
X195543856Y-120512485D01*
X195571832Y-120484511D01*
X195806145Y-120250196D01*
X196040460Y-120015882D01*
X196078383Y-119950197D01*
X196080021Y-119947360D01*
X196100500Y-119870933D01*
X196100500Y-119852647D01*
X196103770Y-119840243D01*
X196113723Y-119824779D01*
X196119407Y-119807287D01*
X196129490Y-119795480D01*
X196740460Y-119184511D01*
X196757906Y-119154293D01*
X196780021Y-119115989D01*
X196797568Y-119050502D01*
X196799619Y-119045291D01*
X196815679Y-119025792D01*
X196829441Y-119004602D01*
X196837951Y-118998752D01*
X196838519Y-118998064D01*
X196839216Y-118997883D01*
X196842237Y-118995807D01*
X196868716Y-118980520D01*
X196980520Y-118868716D01*
X197059577Y-118731784D01*
X197100500Y-118579057D01*
X197100500Y-118420943D01*
X197059577Y-118268216D01*
X196980520Y-118131284D01*
X196868716Y-118019480D01*
X196731784Y-117940423D01*
X196579057Y-117899500D01*
X196420943Y-117899500D01*
X196268216Y-117940423D01*
X196131284Y-118019480D01*
X196019480Y-118131284D01*
X195940423Y-118268216D01*
X195899500Y-118420943D01*
X195899500Y-118579057D01*
X195940423Y-118731784D01*
X196019480Y-118868716D01*
X196042893Y-118892129D01*
X196070669Y-118946644D01*
X196061098Y-119007076D01*
X196042892Y-119032134D01*
X195615489Y-119459539D01*
X195559539Y-119515489D01*
X195519980Y-119584007D01*
X195519978Y-119584011D01*
X195499500Y-119660435D01*
X195499500Y-119665892D01*
X195480593Y-119724083D01*
X195470504Y-119735896D01*
X195235896Y-119970504D01*
X195197593Y-119994287D01*
X195182170Y-119999500D01*
X195160438Y-119999500D01*
X195084011Y-120019979D01*
X195039449Y-120045707D01*
X195030953Y-120050611D01*
X195030950Y-120050613D01*
X195015491Y-120059538D01*
X190004525Y-125070504D01*
X189950008Y-125098281D01*
X189934521Y-125099500D01*
X186564479Y-125099500D01*
X186506288Y-125080593D01*
X186470324Y-125031093D01*
X186470324Y-124969907D01*
X186494475Y-124930496D01*
X186528447Y-124896524D01*
X187240460Y-124184511D01*
X187280022Y-124115988D01*
X187300500Y-124039562D01*
X187300500Y-123960438D01*
X187300500Y-115165479D01*
X187319407Y-115107288D01*
X187329496Y-115095475D01*
X187595475Y-114829496D01*
X187649992Y-114801719D01*
X187665479Y-114800500D01*
X188922938Y-114800500D01*
X188981129Y-114819407D01*
X189008674Y-114850000D01*
X189019480Y-114868716D01*
X189131284Y-114980520D01*
X189268216Y-115059577D01*
X189420943Y-115100500D01*
X189420945Y-115100500D01*
X189579055Y-115100500D01*
X189579057Y-115100500D01*
X189731784Y-115059577D01*
X189868716Y-114980520D01*
X189980520Y-114868716D01*
X190059577Y-114731784D01*
X190100500Y-114579057D01*
X190100500Y-114420943D01*
X190059577Y-114268216D01*
X189980520Y-114131284D01*
X189868716Y-114019480D01*
X189731784Y-113940423D01*
X189579057Y-113899500D01*
X189420943Y-113899500D01*
X189268216Y-113940423D01*
X189131284Y-114019480D01*
X189019478Y-114131286D01*
X189008674Y-114150000D01*
X188963204Y-114190941D01*
X188922938Y-114199500D01*
X187539562Y-114199500D01*
X187460438Y-114199500D01*
X187413661Y-114212033D01*
X187384007Y-114219979D01*
X187315493Y-114259536D01*
X187315488Y-114259540D01*
X187195149Y-114379879D01*
X187140633Y-114407656D01*
X187080201Y-114398084D01*
X187036936Y-114354820D01*
X187029520Y-114335503D01*
X186993891Y-114202530D01*
X186914834Y-114065598D01*
X186803030Y-113953794D01*
X186666098Y-113874737D01*
X186513371Y-113833814D01*
X186355257Y-113833814D01*
X186202530Y-113874737D01*
X186065598Y-113953794D01*
X185953794Y-114065598D01*
X185874737Y-114202530D01*
X185833814Y-114355257D01*
X185833814Y-114513371D01*
X185874737Y-114666098D01*
X185953794Y-114803030D01*
X186065598Y-114914834D01*
X186065600Y-114914835D01*
X186144949Y-114960648D01*
X186181182Y-114996877D01*
X186186233Y-115005626D01*
X186199500Y-115055131D01*
X186199500Y-118310617D01*
X186180593Y-118368808D01*
X186131093Y-118404772D01*
X186126123Y-118406244D01*
X186120943Y-118407632D01*
X185968216Y-118448555D01*
X185831284Y-118527612D01*
X185719480Y-118639416D01*
X185640423Y-118776348D01*
X185599500Y-118929075D01*
X185599500Y-119087189D01*
X185640423Y-119239916D01*
X185719480Y-119376848D01*
X185831284Y-119488652D01*
X185968216Y-119567709D01*
X186120943Y-119608632D01*
X186120945Y-119608632D01*
X186279055Y-119608632D01*
X186279057Y-119608632D01*
X186431784Y-119567709D01*
X186551003Y-119498878D01*
X186610848Y-119486158D01*
X186666744Y-119511045D01*
X186697337Y-119564033D01*
X186699500Y-119584616D01*
X186699500Y-123834521D01*
X186680593Y-123892712D01*
X186670504Y-123904525D01*
X185904525Y-124670504D01*
X185850008Y-124698281D01*
X185834521Y-124699500D01*
X180165479Y-124699500D01*
X180107288Y-124680593D01*
X180095475Y-124670504D01*
X178829496Y-123404525D01*
X178801719Y-123350008D01*
X178800500Y-123334521D01*
X178800500Y-123077061D01*
X178819407Y-123018870D01*
X178849997Y-122991326D01*
X178868716Y-122980520D01*
X178980520Y-122868716D01*
X179059577Y-122731784D01*
X179100500Y-122579057D01*
X179100500Y-122420943D01*
X179059577Y-122268216D01*
X178980520Y-122131284D01*
X178868716Y-122019480D01*
X178731784Y-121940423D01*
X178579057Y-121899500D01*
X178420943Y-121899500D01*
X178268216Y-121940423D01*
X178131284Y-122019480D01*
X178019478Y-122131286D01*
X177985236Y-122190596D01*
X177939767Y-122231537D01*
X177878917Y-122237933D01*
X177825929Y-122207340D01*
X177801042Y-122151444D01*
X177800500Y-122141096D01*
X177800500Y-118434108D01*
X181999500Y-118434108D01*
X181999500Y-118565892D01*
X182003027Y-118579055D01*
X182033609Y-118693190D01*
X182099496Y-118807309D01*
X182099498Y-118807311D01*
X182099500Y-118807314D01*
X182192686Y-118900500D01*
X182192688Y-118900501D01*
X182192690Y-118900503D01*
X182306810Y-118966390D01*
X182306808Y-118966390D01*
X182306812Y-118966391D01*
X182306814Y-118966392D01*
X182434108Y-119000500D01*
X182434110Y-119000500D01*
X182565890Y-119000500D01*
X182565892Y-119000500D01*
X182693186Y-118966392D01*
X182693188Y-118966390D01*
X182693190Y-118966390D01*
X182807309Y-118900503D01*
X182807309Y-118900502D01*
X182807314Y-118900500D01*
X182900500Y-118807314D01*
X182918378Y-118776348D01*
X182966390Y-118693190D01*
X182966390Y-118693188D01*
X182966392Y-118693186D01*
X183000500Y-118565892D01*
X183000500Y-118465478D01*
X183019407Y-118407287D01*
X183029496Y-118395474D01*
X183330913Y-118094057D01*
X183740460Y-117684511D01*
X183780022Y-117615988D01*
X183800500Y-117539562D01*
X183800500Y-117460438D01*
X183800500Y-116665479D01*
X183819407Y-116607288D01*
X183829496Y-116595475D01*
X184095475Y-116329496D01*
X184149992Y-116301719D01*
X184165479Y-116300500D01*
X184480673Y-116300500D01*
X184538864Y-116319407D01*
X184566409Y-116349999D01*
X184599500Y-116407314D01*
X184692686Y-116500500D01*
X184692688Y-116500501D01*
X184692690Y-116500503D01*
X184806810Y-116566390D01*
X184806808Y-116566390D01*
X184806812Y-116566391D01*
X184806814Y-116566392D01*
X184934108Y-116600500D01*
X184934110Y-116600500D01*
X185065890Y-116600500D01*
X185065892Y-116600500D01*
X185193186Y-116566392D01*
X185193188Y-116566390D01*
X185193190Y-116566390D01*
X185307309Y-116500503D01*
X185307309Y-116500502D01*
X185307314Y-116500500D01*
X185400500Y-116407314D01*
X185433591Y-116349999D01*
X185466390Y-116293190D01*
X185466390Y-116293188D01*
X185466392Y-116293186D01*
X185500500Y-116165892D01*
X185500500Y-116034108D01*
X185466392Y-115906814D01*
X185466390Y-115906811D01*
X185466390Y-115906809D01*
X185400503Y-115792690D01*
X185400501Y-115792688D01*
X185400500Y-115792686D01*
X185307314Y-115699500D01*
X185307311Y-115699498D01*
X185307309Y-115699496D01*
X185193189Y-115633609D01*
X185193191Y-115633609D01*
X185143799Y-115620375D01*
X185065892Y-115599500D01*
X184934108Y-115599500D01*
X184806814Y-115633608D01*
X184806813Y-115633608D01*
X184806811Y-115633609D01*
X184758750Y-115661357D01*
X184715658Y-115686236D01*
X184666160Y-115699500D01*
X184039562Y-115699500D01*
X183960438Y-115699500D01*
X183913661Y-115712033D01*
X183884007Y-115719979D01*
X183815493Y-115759536D01*
X183315489Y-116259540D01*
X183315488Y-116259539D01*
X183259539Y-116315489D01*
X183219980Y-116384007D01*
X183219978Y-116384011D01*
X183199500Y-116460435D01*
X183199500Y-117334520D01*
X183180593Y-117392711D01*
X183170504Y-117404524D01*
X182604524Y-117970504D01*
X182550007Y-117998281D01*
X182534520Y-117999500D01*
X182434108Y-117999500D01*
X182359541Y-118019480D01*
X182306809Y-118033609D01*
X182192690Y-118099496D01*
X182099496Y-118192690D01*
X182033609Y-118306809D01*
X182016997Y-118368808D01*
X181999500Y-118434108D01*
X177800500Y-118434108D01*
X177800500Y-114460437D01*
X177800499Y-114460435D01*
X177789505Y-114419407D01*
X177780021Y-114384011D01*
X177777635Y-114379879D01*
X177740460Y-114315489D01*
X177684511Y-114259539D01*
X177684511Y-114259540D01*
X176620529Y-113195558D01*
X176592752Y-113141041D01*
X176594907Y-113099930D01*
X176600499Y-113079059D01*
X176600500Y-113079056D01*
X176600500Y-112920944D01*
X176583891Y-112858958D01*
X176559577Y-112768216D01*
X176480520Y-112631284D01*
X176368716Y-112519480D01*
X176231784Y-112440423D01*
X176079057Y-112399500D01*
X175920943Y-112399500D01*
X175768216Y-112440423D01*
X175631284Y-112519480D01*
X175519480Y-112631284D01*
X175440423Y-112768216D01*
X175399500Y-112920943D01*
X166300500Y-112920943D01*
X166300500Y-112165479D01*
X166319407Y-112107288D01*
X166329496Y-112095475D01*
X167845475Y-110579496D01*
X167899992Y-110551719D01*
X167915479Y-110550500D01*
X178865781Y-110550500D01*
X178923972Y-110569407D01*
X178959936Y-110618907D01*
X178959936Y-110680093D01*
X178951520Y-110698994D01*
X178940423Y-110718216D01*
X178899500Y-110870943D01*
X178899500Y-111029057D01*
X178940423Y-111181784D01*
X179019480Y-111318716D01*
X179131284Y-111430520D01*
X179268216Y-111509577D01*
X179420943Y-111550500D01*
X179420945Y-111550500D01*
X179579055Y-111550500D01*
X179579057Y-111550500D01*
X179731784Y-111509577D01*
X179868716Y-111430520D01*
X179969741Y-111329494D01*
X180024256Y-111301719D01*
X180039743Y-111300500D01*
X184334521Y-111300500D01*
X184392712Y-111319407D01*
X184404525Y-111329496D01*
X185879470Y-112804441D01*
X185907247Y-112858958D01*
X185905093Y-112900064D01*
X185899500Y-112920943D01*
X185899500Y-113079057D01*
X185940423Y-113231784D01*
X186019480Y-113368716D01*
X186131284Y-113480520D01*
X186268216Y-113559577D01*
X186420943Y-113600500D01*
X186420945Y-113600500D01*
X186579055Y-113600500D01*
X186579057Y-113600500D01*
X186731784Y-113559577D01*
X186868716Y-113480520D01*
X186980520Y-113368716D01*
X187059577Y-113231784D01*
X187100500Y-113079057D01*
X187100500Y-112920943D01*
X187059577Y-112768216D01*
X186980520Y-112631284D01*
X186868716Y-112519480D01*
X186731784Y-112440423D01*
X186579057Y-112399500D01*
X186420943Y-112399500D01*
X186412027Y-112401889D01*
X186400064Y-112405094D01*
X186338963Y-112401889D01*
X186304441Y-112379470D01*
X185684510Y-111759539D01*
X184684511Y-110759540D01*
X184684508Y-110759538D01*
X184642416Y-110735236D01*
X184601475Y-110689766D01*
X184595079Y-110628916D01*
X184625672Y-110575928D01*
X184681568Y-110551042D01*
X184691916Y-110550500D01*
X188922938Y-110550500D01*
X188981129Y-110569407D01*
X189008674Y-110600000D01*
X189019480Y-110618716D01*
X189131284Y-110730520D01*
X189268216Y-110809577D01*
X189420943Y-110850500D01*
X189420945Y-110850500D01*
X189579055Y-110850500D01*
X189579057Y-110850500D01*
X189731784Y-110809577D01*
X189868716Y-110730520D01*
X189980520Y-110618716D01*
X190059577Y-110481784D01*
X190077855Y-110413568D01*
X190111176Y-110362257D01*
X190168297Y-110340330D01*
X190227398Y-110356165D01*
X190243484Y-110369190D01*
X194670504Y-114796210D01*
X194698281Y-114850727D01*
X194699500Y-114866214D01*
X194699500Y-117802753D01*
X194680593Y-117860944D01*
X194631093Y-117896908D01*
X194585784Y-117898098D01*
X194585489Y-117900347D01*
X194579057Y-117899500D01*
X194420943Y-117899500D01*
X194268216Y-117940423D01*
X194131284Y-118019480D01*
X194019480Y-118131284D01*
X193940423Y-118268216D01*
X193899500Y-118420943D01*
X193899500Y-118579057D01*
X193940423Y-118731784D01*
X194019480Y-118868716D01*
X194131284Y-118980520D01*
X194268216Y-119059577D01*
X194420943Y-119100500D01*
X194420945Y-119100500D01*
X194579055Y-119100500D01*
X194579057Y-119100500D01*
X194731784Y-119059577D01*
X194868716Y-118980520D01*
X194980520Y-118868716D01*
X195059577Y-118731784D01*
X195100500Y-118579057D01*
X195100500Y-118420943D01*
X195094906Y-118400065D01*
X195098109Y-118338965D01*
X195120530Y-118304440D01*
X195240460Y-118184511D01*
X195280020Y-118115992D01*
X195280020Y-118115990D01*
X195280022Y-118115988D01*
X195300500Y-118039562D01*
X195300500Y-117960438D01*
X195300500Y-114661173D01*
X195288393Y-114615989D01*
X195288393Y-114615988D01*
X195288393Y-114615987D01*
X195280021Y-114584745D01*
X195280020Y-114584743D01*
X195240463Y-114516228D01*
X195240462Y-114516227D01*
X195240461Y-114516226D01*
X195240460Y-114516224D01*
X190618230Y-109893994D01*
X190592608Y-109849615D01*
X190580021Y-109802640D01*
X190580019Y-109802637D01*
X190580019Y-109802635D01*
X190540460Y-109734118D01*
X190484512Y-109678169D01*
X190015881Y-109209539D01*
X189947363Y-109169980D01*
X189947358Y-109169978D01*
X189900383Y-109157390D01*
X189856004Y-109131768D01*
X188697909Y-107973673D01*
X187483776Y-106759540D01*
X187483773Y-106759538D01*
X187415257Y-106719980D01*
X187415253Y-106719978D01*
X187338829Y-106699500D01*
X187338827Y-106699500D01*
X176577062Y-106699500D01*
X176518871Y-106680593D01*
X176491326Y-106650000D01*
X176480521Y-106631286D01*
X176480520Y-106631284D01*
X176368716Y-106519480D01*
X176231784Y-106440423D01*
X176079057Y-106399500D01*
X175920943Y-106399500D01*
X175768216Y-106440423D01*
X175631284Y-106519480D01*
X175519480Y-106631284D01*
X175440423Y-106768216D01*
X175399500Y-106920943D01*
X175399500Y-107079057D01*
X175440423Y-107231784D01*
X175519480Y-107368716D01*
X175631284Y-107480520D01*
X175768216Y-107559577D01*
X175920943Y-107600500D01*
X175920945Y-107600500D01*
X176079055Y-107600500D01*
X176079057Y-107600500D01*
X176231784Y-107559577D01*
X176368716Y-107480520D01*
X176480520Y-107368716D01*
X176491326Y-107350000D01*
X176536796Y-107309059D01*
X176577062Y-107300500D01*
X187133786Y-107300500D01*
X187191977Y-107319407D01*
X187203790Y-107329496D01*
X189380809Y-109506515D01*
X189408586Y-109561032D01*
X189399015Y-109621464D01*
X189355750Y-109664729D01*
X189336430Y-109672144D01*
X189313949Y-109678169D01*
X189268216Y-109690423D01*
X189131284Y-109769480D01*
X189019478Y-109881286D01*
X189008674Y-109900000D01*
X188963204Y-109940941D01*
X188922938Y-109949500D01*
X167789562Y-109949500D01*
X167710438Y-109949500D01*
X167663661Y-109962033D01*
X167634007Y-109969979D01*
X167565493Y-110009536D01*
X165815489Y-111759540D01*
X165815488Y-111759539D01*
X165759539Y-111815489D01*
X165719980Y-111884007D01*
X165719978Y-111884011D01*
X165699500Y-111960435D01*
X165699500Y-125834521D01*
X165680593Y-125892712D01*
X165670504Y-125904525D01*
X164465489Y-127109540D01*
X164465488Y-127109539D01*
X164409539Y-127165489D01*
X164369980Y-127234007D01*
X164369978Y-127234011D01*
X164349500Y-127310435D01*
X164349500Y-131959564D01*
X164369978Y-132035988D01*
X164369980Y-132035992D01*
X164409538Y-132104508D01*
X164409540Y-132104511D01*
X164954499Y-132649470D01*
X165379470Y-133074441D01*
X165407247Y-133128958D01*
X165405093Y-133170064D01*
X165399500Y-133190943D01*
X165399500Y-133349057D01*
X165440423Y-133501784D01*
X165451518Y-133521002D01*
X165464239Y-133580849D01*
X165439352Y-133636744D01*
X165386364Y-133667337D01*
X165365781Y-133669500D01*
X161144500Y-133669500D01*
X161086309Y-133650593D01*
X161050345Y-133601093D01*
X161045500Y-133570500D01*
X161045500Y-115890000D01*
X162680137Y-115890000D01*
X163483012Y-115890000D01*
X163465795Y-115899940D01*
X163409940Y-115955795D01*
X163370444Y-116024204D01*
X163350000Y-116100504D01*
X163350000Y-116179496D01*
X163370444Y-116255796D01*
X163409940Y-116324205D01*
X163465795Y-116380060D01*
X163483012Y-116390000D01*
X162680137Y-116390000D01*
X162688428Y-116431684D01*
X162688431Y-116431695D01*
X162763808Y-116613673D01*
X162763814Y-116613685D01*
X162873249Y-116777462D01*
X162873252Y-116777466D01*
X163012533Y-116916747D01*
X163012537Y-116916750D01*
X163176314Y-117026185D01*
X163176326Y-117026191D01*
X163358310Y-117101570D01*
X163551506Y-117139999D01*
X163551510Y-117140000D01*
X163699999Y-117140000D01*
X163700000Y-117139999D01*
X163700000Y-116440000D01*
X164200000Y-116440000D01*
X164200000Y-117139999D01*
X164200001Y-117140000D01*
X164348490Y-117140000D01*
X164348493Y-117139999D01*
X164541688Y-117101570D01*
X164541690Y-117101570D01*
X164723673Y-117026191D01*
X164723685Y-117026185D01*
X164887462Y-116916750D01*
X164887466Y-116916747D01*
X165026747Y-116777466D01*
X165026750Y-116777462D01*
X165136185Y-116613685D01*
X165136191Y-116613673D01*
X165211568Y-116431695D01*
X165211571Y-116431684D01*
X165219863Y-116390000D01*
X164416988Y-116390000D01*
X164434205Y-116380060D01*
X164490060Y-116324205D01*
X164529556Y-116255796D01*
X164550000Y-116179496D01*
X164550000Y-116100504D01*
X164529556Y-116024204D01*
X164490060Y-115955795D01*
X164434205Y-115899940D01*
X164416988Y-115890000D01*
X165219862Y-115890000D01*
X165211571Y-115848315D01*
X165211568Y-115848304D01*
X165136191Y-115666326D01*
X165136185Y-115666314D01*
X165026750Y-115502537D01*
X165026747Y-115502533D01*
X164887466Y-115363252D01*
X164887462Y-115363249D01*
X164723685Y-115253814D01*
X164723673Y-115253808D01*
X164541689Y-115178429D01*
X164348493Y-115140000D01*
X164200001Y-115140000D01*
X164200000Y-115140001D01*
X164200000Y-115840000D01*
X163700000Y-115840000D01*
X163700000Y-115140001D01*
X163699999Y-115140000D01*
X163551506Y-115140000D01*
X163358311Y-115178429D01*
X163358309Y-115178429D01*
X163176326Y-115253808D01*
X163176314Y-115253814D01*
X163012537Y-115363249D01*
X163012533Y-115363252D01*
X162873252Y-115502533D01*
X162873249Y-115502537D01*
X162763814Y-115666314D01*
X162763808Y-115666326D01*
X162688431Y-115848304D01*
X162688428Y-115848315D01*
X162680137Y-115890000D01*
X161045500Y-115890000D01*
X161045500Y-107250000D01*
X162680137Y-107250000D01*
X163483012Y-107250000D01*
X163465795Y-107259940D01*
X163409940Y-107315795D01*
X163370444Y-107384204D01*
X163350000Y-107460504D01*
X163350000Y-107539496D01*
X163370444Y-107615796D01*
X163409940Y-107684205D01*
X163465795Y-107740060D01*
X163483012Y-107750000D01*
X162680137Y-107750000D01*
X162688428Y-107791684D01*
X162688431Y-107791695D01*
X162763808Y-107973673D01*
X162763814Y-107973685D01*
X162873249Y-108137462D01*
X162873252Y-108137466D01*
X163012533Y-108276747D01*
X163012537Y-108276750D01*
X163176314Y-108386185D01*
X163176326Y-108386191D01*
X163358310Y-108461570D01*
X163551506Y-108499999D01*
X163551510Y-108500000D01*
X163699999Y-108500000D01*
X163700000Y-108499999D01*
X163700000Y-107800000D01*
X164200000Y-107800000D01*
X164200000Y-108499999D01*
X164200001Y-108500000D01*
X164348490Y-108500000D01*
X164348493Y-108499999D01*
X164541688Y-108461570D01*
X164541690Y-108461570D01*
X164723673Y-108386191D01*
X164723685Y-108386185D01*
X164887462Y-108276750D01*
X164887466Y-108276747D01*
X165026747Y-108137466D01*
X165026750Y-108137462D01*
X165136185Y-107973685D01*
X165136191Y-107973673D01*
X165211568Y-107791695D01*
X165211571Y-107791684D01*
X165219863Y-107750000D01*
X164416988Y-107750000D01*
X164434205Y-107740060D01*
X164490060Y-107684205D01*
X164529556Y-107615796D01*
X164550000Y-107539496D01*
X164550000Y-107460504D01*
X164529556Y-107384204D01*
X164490060Y-107315795D01*
X164434205Y-107259940D01*
X164416988Y-107250000D01*
X165219862Y-107250000D01*
X166610137Y-107250000D01*
X167413012Y-107250000D01*
X167395795Y-107259940D01*
X167339940Y-107315795D01*
X167300444Y-107384204D01*
X167280000Y-107460504D01*
X167280000Y-107539496D01*
X167300444Y-107615796D01*
X167339940Y-107684205D01*
X167395795Y-107740060D01*
X167413012Y-107750000D01*
X166610137Y-107750000D01*
X166618428Y-107791684D01*
X166618431Y-107791695D01*
X166693808Y-107973673D01*
X166693814Y-107973685D01*
X166803249Y-108137462D01*
X166803252Y-108137466D01*
X166942533Y-108276747D01*
X166942537Y-108276750D01*
X167106314Y-108386185D01*
X167106324Y-108386190D01*
X167127549Y-108394981D01*
X167174076Y-108434716D01*
X167188361Y-108494211D01*
X167164948Y-108550739D01*
X167159671Y-108556448D01*
X167139486Y-108576633D01*
X167139481Y-108576639D01*
X167063720Y-108707860D01*
X167063719Y-108707865D01*
X167024500Y-108854234D01*
X167024500Y-109005766D01*
X167058262Y-109131768D01*
X167063720Y-109152139D01*
X167139481Y-109283360D01*
X167139483Y-109283362D01*
X167139485Y-109283365D01*
X167246635Y-109390515D01*
X167246637Y-109390516D01*
X167246639Y-109390518D01*
X167377861Y-109466279D01*
X167377859Y-109466279D01*
X167377863Y-109466280D01*
X167377865Y-109466281D01*
X167524234Y-109505500D01*
X167524236Y-109505500D01*
X167675764Y-109505500D01*
X167675766Y-109505500D01*
X167822135Y-109466281D01*
X167822137Y-109466279D01*
X167822139Y-109466279D01*
X167953360Y-109390518D01*
X167953360Y-109390517D01*
X167953365Y-109390515D01*
X168060515Y-109283365D01*
X168125979Y-109169979D01*
X168136279Y-109152139D01*
X168136279Y-109152137D01*
X168136281Y-109152135D01*
X168175500Y-109005766D01*
X168175500Y-108854234D01*
X168136281Y-108707865D01*
X168136279Y-108707862D01*
X168136279Y-108707860D01*
X168060518Y-108576639D01*
X168060516Y-108576637D01*
X168060515Y-108576635D01*
X167953365Y-108469485D01*
X167953362Y-108469483D01*
X167953360Y-108469481D01*
X167929498Y-108455704D01*
X167888558Y-108410234D01*
X167880000Y-108369969D01*
X167880000Y-107800000D01*
X168380000Y-107800000D01*
X168380000Y-108499999D01*
X168380001Y-108500000D01*
X168778490Y-108500000D01*
X168778493Y-108499999D01*
X168971688Y-108461570D01*
X168971690Y-108461570D01*
X169153673Y-108386191D01*
X169153685Y-108386185D01*
X169317462Y-108276750D01*
X169317466Y-108276747D01*
X169456747Y-108137466D01*
X169456750Y-108137462D01*
X169566185Y-107973685D01*
X169566191Y-107973673D01*
X169641568Y-107791695D01*
X169641571Y-107791684D01*
X169649863Y-107750000D01*
X168846988Y-107750000D01*
X168864205Y-107740060D01*
X168920060Y-107684205D01*
X168959556Y-107615796D01*
X168980000Y-107539496D01*
X168980000Y-107460504D01*
X168959556Y-107384204D01*
X168920060Y-107315795D01*
X168864205Y-107259940D01*
X168846988Y-107250000D01*
X169649862Y-107250000D01*
X169641571Y-107208315D01*
X169641568Y-107208304D01*
X169566191Y-107026326D01*
X169566185Y-107026314D01*
X169456750Y-106862537D01*
X169456747Y-106862533D01*
X169317466Y-106723252D01*
X169317462Y-106723249D01*
X169153685Y-106613814D01*
X169153673Y-106613808D01*
X168971689Y-106538429D01*
X168778493Y-106500000D01*
X168380001Y-106500000D01*
X168380000Y-106500001D01*
X168380000Y-107200000D01*
X167880000Y-107200000D01*
X167880000Y-106500001D01*
X167879999Y-106500000D01*
X167481506Y-106500000D01*
X167288311Y-106538429D01*
X167288309Y-106538429D01*
X167106326Y-106613808D01*
X167106314Y-106613814D01*
X166942537Y-106723249D01*
X166942533Y-106723252D01*
X166803252Y-106862533D01*
X166803249Y-106862537D01*
X166693814Y-107026314D01*
X166693808Y-107026326D01*
X166618431Y-107208304D01*
X166618428Y-107208315D01*
X166610137Y-107250000D01*
X165219862Y-107250000D01*
X165211571Y-107208315D01*
X165211568Y-107208304D01*
X165136191Y-107026326D01*
X165136185Y-107026314D01*
X165026750Y-106862537D01*
X165026747Y-106862533D01*
X164887466Y-106723252D01*
X164887462Y-106723249D01*
X164723685Y-106613814D01*
X164723673Y-106613808D01*
X164541689Y-106538429D01*
X164348493Y-106500000D01*
X164200001Y-106500000D01*
X164200000Y-106500001D01*
X164200000Y-107200000D01*
X163700000Y-107200000D01*
X163700000Y-106500001D01*
X163699999Y-106500000D01*
X163551506Y-106500000D01*
X163358311Y-106538429D01*
X163358309Y-106538429D01*
X163176326Y-106613808D01*
X163176314Y-106613814D01*
X163012537Y-106723249D01*
X163012533Y-106723252D01*
X162873252Y-106862533D01*
X162873249Y-106862537D01*
X162763814Y-107026314D01*
X162763808Y-107026326D01*
X162688431Y-107208304D01*
X162688428Y-107208315D01*
X162680137Y-107250000D01*
X161045500Y-107250000D01*
X161045500Y-106269500D01*
X161064407Y-106211309D01*
X161113907Y-106175345D01*
X161144500Y-106170500D01*
X207805500Y-106170500D01*
X207863691Y-106189407D01*
G37*
G04 #@! TD.AperFunction*
M02*
