G04 #@! TF.GenerationSoftware,KiCad,Pcbnew,10.0.1*
G04 #@! TF.CreationDate,2026-06-09T21:48:43-04:00*
G04 #@! TF.ProjectId,posture_tracker_v2,706f7374-7572-4655-9f74-7261636b6572,rev?*
G04 #@! TF.SameCoordinates,Original*
G04 #@! TF.FileFunction,Soldermask,Top*
G04 #@! TF.FilePolarity,Negative*
%FSLAX46Y46*%
G04 Gerber Fmt 4.6, Leading zero omitted, Abs format (unit mm)*
G04 Created by KiCad (PCBNEW 10.0.1) date 2026-06-09 21:48:43*
%MOMM*%
%LPD*%
G01*
G04 APERTURE LIST*
G04 Aperture macros list*
%AMRoundRect*
0 Rectangle with rounded corners*
0 $1 Rounding radius*
0 $2 $3 $4 $5 $6 $7 $8 $9 X,Y pos of 4 corners*
0 Add a 4 corners polygon primitive as box body*
4,1,4,$2,$3,$4,$5,$6,$7,$8,$9,$2,$3,0*
0 Add four circle primitives for the rounded corners*
1,1,$1+$1,$2,$3*
1,1,$1+$1,$4,$5*
1,1,$1+$1,$6,$7*
1,1,$1+$1,$8,$9*
0 Add four rect primitives between the rounded corners*
20,1,$1+$1,$2,$3,$4,$5,0*
20,1,$1+$1,$4,$5,$6,$7,0*
20,1,$1+$1,$6,$7,$8,$9,0*
20,1,$1+$1,$8,$9,$2,$3,0*%
%AMOutline5P*
0 Free polygon, 5 corners , with rotation*
0 The origin of the aperture is its center*
0 number of corners: always 5*
0 $1 to $10 corner X, Y*
0 $11 Rotation angle, in degrees counterclockwise*
0 create outline with 5 corners*
4,1,5,$1,$2,$3,$4,$5,$6,$7,$8,$9,$10,$1,$2,$11*%
%AMOutline6P*
0 Free polygon, 6 corners , with rotation*
0 The origin of the aperture is its center*
0 number of corners: always 6*
0 $1 to $12 corner X, Y*
0 $13 Rotation angle, in degrees counterclockwise*
0 create outline with 6 corners*
4,1,6,$1,$2,$3,$4,$5,$6,$7,$8,$9,$10,$11,$12,$1,$2,$13*%
%AMOutline7P*
0 Free polygon, 7 corners , with rotation*
0 The origin of the aperture is its center*
0 number of corners: always 7*
0 $1 to $14 corner X, Y*
0 $15 Rotation angle, in degrees counterclockwise*
0 create outline with 7 corners*
4,1,7,$1,$2,$3,$4,$5,$6,$7,$8,$9,$10,$11,$12,$13,$14,$1,$2,$15*%
%AMOutline8P*
0 Free polygon, 8 corners , with rotation*
0 The origin of the aperture is its center*
0 number of corners: always 8*
0 $1 to $16 corner X, Y*
0 $17 Rotation angle, in degrees counterclockwise*
0 create outline with 8 corners*
4,1,8,$1,$2,$3,$4,$5,$6,$7,$8,$9,$10,$11,$12,$13,$14,$15,$16,$1,$2,$17*%
G04 Aperture macros list end*
%ADD10RoundRect,0.250000X0.250000X0.475000X-0.250000X0.475000X-0.250000X-0.475000X0.250000X-0.475000X0*%
%ADD11RoundRect,0.075000X0.350000X0.075000X-0.350000X0.075000X-0.350000X-0.075000X0.350000X-0.075000X0*%
%ADD12RoundRect,0.075000X-0.075000X0.350000X-0.075000X-0.350000X0.075000X-0.350000X0.075000X0.350000X0*%
%ADD13RoundRect,0.135000X0.135000X0.185000X-0.135000X0.185000X-0.135000X-0.185000X0.135000X-0.185000X0*%
%ADD14RoundRect,0.135000X-0.185000X0.135000X-0.185000X-0.135000X0.185000X-0.135000X0.185000X0.135000X0*%
%ADD15RoundRect,0.140000X-0.140000X-0.170000X0.140000X-0.170000X0.140000X0.170000X-0.140000X0.170000X0*%
%ADD16RoundRect,0.140000X-0.170000X0.140000X-0.170000X-0.140000X0.170000X-0.140000X0.170000X0.140000X0*%
%ADD17RoundRect,0.140000X0.140000X0.170000X-0.140000X0.170000X-0.140000X-0.170000X0.140000X-0.170000X0*%
%ADD18RoundRect,0.250000X-0.250000X-0.475000X0.250000X-0.475000X0.250000X0.475000X-0.250000X0.475000X0*%
%ADD19RoundRect,0.243750X-0.243750X-0.456250X0.243750X-0.456250X0.243750X0.456250X-0.243750X0.456250X0*%
%ADD20RoundRect,0.200000X-0.200000X-0.450000X0.200000X-0.450000X0.200000X0.450000X-0.200000X0.450000X0*%
%ADD21O,0.800000X1.300000*%
%ADD22R,0.800000X0.400000*%
%ADD23R,0.400000X0.800000*%
%ADD24Outline5P,-0.600000X0.204000X-0.204000X0.600000X0.600000X0.600000X0.600000X-0.600000X-0.600000X-0.600000X0.000000*%
%ADD25R,1.200000X1.200000*%
%ADD26R,0.800000X0.800000*%
%ADD27RoundRect,0.135000X-0.135000X-0.185000X0.135000X-0.185000X0.135000X0.185000X-0.135000X0.185000X0*%
%ADD28RoundRect,0.250000X-0.475000X0.250000X-0.475000X-0.250000X0.475000X-0.250000X0.475000X0.250000X0*%
%ADD29RoundRect,0.140000X0.170000X-0.140000X0.170000X0.140000X-0.170000X0.140000X-0.170000X-0.140000X0*%
%ADD30RoundRect,0.062500X-0.062500X0.350000X-0.062500X-0.350000X0.062500X-0.350000X0.062500X0.350000X0*%
%ADD31RoundRect,0.062500X-0.350000X0.062500X-0.350000X-0.062500X0.350000X-0.062500X0.350000X0.062500X0*%
%ADD32R,1.230000X1.230000*%
%ADD33RoundRect,0.243750X-0.456250X0.243750X-0.456250X-0.243750X0.456250X-0.243750X0.456250X0.243750X0*%
%ADD34RoundRect,0.147500X-0.172500X0.147500X-0.172500X-0.147500X0.172500X-0.147500X0.172500X0.147500X0*%
%ADD35RoundRect,0.135000X0.185000X-0.135000X0.185000X0.135000X-0.185000X0.135000X-0.185000X-0.135000X0*%
%ADD36RoundRect,0.102000X-0.325000X0.525000X-0.325000X-0.525000X0.325000X-0.525000X0.325000X0.525000X0*%
%ADD37RoundRect,0.250000X0.475000X-0.250000X0.475000X0.250000X-0.475000X0.250000X-0.475000X-0.250000X0*%
%ADD38RoundRect,0.150000X-0.512500X-0.150000X0.512500X-0.150000X0.512500X0.150000X-0.512500X0.150000X0*%
%ADD39RoundRect,0.250000X-0.625000X0.350000X-0.625000X-0.350000X0.625000X-0.350000X0.625000X0.350000X0*%
%ADD40O,1.750000X1.200000*%
%ADD41RoundRect,0.075000X-0.650000X-0.075000X0.650000X-0.075000X0.650000X0.075000X-0.650000X0.075000X0*%
%ADD42C,0.650000*%
%ADD43RoundRect,0.150000X-0.575000X0.150000X-0.575000X-0.150000X0.575000X-0.150000X0.575000X0.150000X0*%
%ADD44RoundRect,0.075000X-0.650000X0.075000X-0.650000X-0.075000X0.650000X-0.075000X0.650000X0.075000X0*%
%ADD45O,2.100000X1.000000*%
%ADD46O,1.600000X1.000000*%
%ADD47RoundRect,0.102000X0.525000X0.325000X-0.525000X0.325000X-0.525000X-0.325000X0.525000X-0.325000X0*%
G04 APERTURE END LIST*
D10*
X168545000Y-118320000D03*
X166645000Y-118320000D03*
D11*
X185200000Y-113700000D03*
X185200000Y-113200000D03*
X185200000Y-112700000D03*
X185200000Y-112200000D03*
X185200000Y-111700000D03*
X185200000Y-111200000D03*
D12*
X184500000Y-110500000D03*
X184000000Y-110500000D03*
X183500000Y-110500000D03*
X183000000Y-110500000D03*
X182500000Y-110500000D03*
X182000000Y-110500000D03*
D11*
X181300000Y-111200000D03*
X181300000Y-111700000D03*
X181300000Y-112200000D03*
X181300000Y-112700000D03*
X181300000Y-113200000D03*
X181300000Y-113700000D03*
D12*
X182000000Y-114400000D03*
X182500000Y-114400000D03*
X183000000Y-114400000D03*
X183500000Y-114400000D03*
X184000000Y-114400000D03*
X184500000Y-114400000D03*
D13*
X185500000Y-117000000D03*
X184480000Y-117000000D03*
D14*
X175000000Y-114000000D03*
X175000000Y-115020000D03*
D15*
X204040000Y-125500000D03*
X205000000Y-125500000D03*
D16*
X185500000Y-122020000D03*
X185500000Y-122980000D03*
D17*
X166000000Y-128000000D03*
X165040000Y-128000000D03*
D15*
X180040000Y-123000000D03*
X181000000Y-123000000D03*
D18*
X189600000Y-129000000D03*
X191500000Y-129000000D03*
D19*
X162170000Y-118320000D03*
X164045000Y-118320000D03*
D20*
X182250000Y-131000000D03*
D21*
X183500000Y-131000000D03*
D14*
X206500000Y-113500000D03*
X206500000Y-114520000D03*
D22*
X188000000Y-107700000D03*
X188000000Y-108550000D03*
X188000000Y-109400000D03*
X188000000Y-110250000D03*
X188000000Y-111100000D03*
X188000000Y-111950000D03*
X188000000Y-112800000D03*
X188000000Y-113650000D03*
X188000000Y-114500000D03*
X188000000Y-115350000D03*
X188000000Y-116200000D03*
X188000000Y-117050000D03*
X188000000Y-117900000D03*
X188000000Y-118750000D03*
X188000000Y-119600000D03*
D23*
X189050000Y-120650000D03*
X189900000Y-120650000D03*
X190750000Y-120650000D03*
X191600000Y-120650000D03*
X192450000Y-120650000D03*
X193300000Y-120650000D03*
X194150000Y-120650000D03*
X195000000Y-120650000D03*
X195850000Y-120650000D03*
X196700000Y-120650000D03*
X197550000Y-120650000D03*
X198400000Y-120650000D03*
X199250000Y-120650000D03*
X200100000Y-120650000D03*
X200950000Y-120650000D03*
D22*
X202000000Y-119600000D03*
X202000000Y-118750000D03*
X202000000Y-117900000D03*
X202000000Y-117050000D03*
X202000000Y-116200000D03*
X202000000Y-115350000D03*
X202000000Y-114500000D03*
X202000000Y-113650000D03*
X202000000Y-112800000D03*
X202000000Y-111950000D03*
X202000000Y-111100000D03*
X202000000Y-110250000D03*
X202000000Y-109400000D03*
X202000000Y-108550000D03*
X202000000Y-107700000D03*
D23*
X200950000Y-106650000D03*
X200100000Y-106650000D03*
X199250000Y-106650000D03*
X198400000Y-106650000D03*
X197550000Y-106650000D03*
X196700000Y-106650000D03*
X195850000Y-106650000D03*
X195000000Y-106650000D03*
X194150000Y-106650000D03*
X193300000Y-106650000D03*
X192450000Y-106650000D03*
X191600000Y-106650000D03*
X190750000Y-106650000D03*
X189900000Y-106650000D03*
X189050000Y-106650000D03*
D24*
X193350000Y-112000000D03*
D25*
X193350000Y-113650000D03*
X193350000Y-115300000D03*
X195000000Y-112000000D03*
X195000000Y-113650000D03*
X195000000Y-115300000D03*
X196650000Y-112000000D03*
X196650000Y-113650000D03*
X196650000Y-115300000D03*
D26*
X188000000Y-106650000D03*
X188000000Y-120650000D03*
X202000000Y-120650000D03*
X202000000Y-106650000D03*
D14*
X172000000Y-114000000D03*
X172000000Y-115020000D03*
D20*
X194750000Y-131000000D03*
D21*
X196000000Y-131000000D03*
D27*
X206480000Y-125500000D03*
X207500000Y-125500000D03*
X181180000Y-117000000D03*
X182200000Y-117000000D03*
D16*
X182500000Y-119500000D03*
X182500000Y-120460000D03*
D10*
X202000000Y-129000000D03*
X200100000Y-129000000D03*
D27*
X194480000Y-122500000D03*
X195500000Y-122500000D03*
D28*
X174637500Y-127000000D03*
X174637500Y-128900000D03*
D27*
X171480000Y-132000000D03*
X172500000Y-132000000D03*
D29*
X204500000Y-114460000D03*
X204500000Y-113500000D03*
D30*
X199940000Y-123872500D03*
X199440000Y-123872500D03*
X198940000Y-123872500D03*
X198440000Y-123872500D03*
D31*
X197752500Y-124560000D03*
X197752500Y-125060000D03*
X197752500Y-125560000D03*
X197752500Y-126060000D03*
D30*
X198440000Y-126747500D03*
X198940000Y-126747500D03*
X199440000Y-126747500D03*
X199940000Y-126747500D03*
D31*
X200627500Y-126060000D03*
X200627500Y-125560000D03*
X200627500Y-125060000D03*
X200627500Y-124560000D03*
D32*
X199190000Y-125310000D03*
D13*
X206000000Y-121000000D03*
X204980000Y-121000000D03*
D17*
X177500000Y-123000000D03*
X176540000Y-123000000D03*
D33*
X168500000Y-130062500D03*
X168500000Y-131937500D03*
D34*
X199000000Y-131000000D03*
X199000000Y-131970000D03*
D35*
X178500000Y-126000000D03*
X178500000Y-124980000D03*
D36*
X206575000Y-107425000D03*
X206575000Y-111575000D03*
X204425000Y-107425000D03*
X204425000Y-111575000D03*
D15*
X186500000Y-124000000D03*
X187460000Y-124000000D03*
D37*
X181000000Y-120450000D03*
X181000000Y-118550000D03*
D14*
X176500000Y-116980000D03*
X176500000Y-118000000D03*
D19*
X204562500Y-123000000D03*
X206437500Y-123000000D03*
D13*
X162510000Y-128000000D03*
X161490000Y-128000000D03*
D27*
X171980000Y-112500000D03*
X173000000Y-112500000D03*
D15*
X181040000Y-108500000D03*
X182000000Y-108500000D03*
X173862500Y-120500000D03*
X174822500Y-120500000D03*
D34*
X191500000Y-131015000D03*
X191500000Y-131985000D03*
D38*
X172225000Y-117050000D03*
X172225000Y-118000000D03*
X172225000Y-118950000D03*
X174500000Y-118950000D03*
X174500000Y-117050000D03*
D39*
X167545000Y-122320000D03*
D40*
X167545000Y-124320000D03*
D17*
X196000000Y-127000000D03*
X195040000Y-127000000D03*
D41*
X180850000Y-125000000D03*
X180850000Y-125500000D03*
X180850000Y-126000000D03*
X180850000Y-126500000D03*
X180850000Y-127000000D03*
X185150000Y-127000000D03*
X185150000Y-126500000D03*
X185150000Y-126000000D03*
X185150000Y-125500000D03*
X185150000Y-125000000D03*
D29*
X177500000Y-115000000D03*
X177500000Y-114040000D03*
D10*
X192500000Y-124500000D03*
X190600000Y-124500000D03*
D27*
X171980000Y-107000000D03*
X173000000Y-107000000D03*
D42*
X167600000Y-108930000D03*
X167600000Y-114710000D03*
D43*
X169045000Y-108570000D03*
X169045000Y-109370000D03*
D44*
X169045000Y-110570000D03*
X169045000Y-111570000D03*
X169045000Y-112070000D03*
X169045000Y-113070000D03*
D43*
X169045000Y-114270000D03*
X169045000Y-115070000D03*
X169045000Y-115070000D03*
X169045000Y-114270000D03*
D44*
X169045000Y-113570000D03*
X169045000Y-112570000D03*
X169045000Y-111070000D03*
X169045000Y-110070000D03*
D43*
X169045000Y-109370000D03*
X169045000Y-108570000D03*
D45*
X168130000Y-107500000D03*
D46*
X163950000Y-107500000D03*
D45*
X168130000Y-116140000D03*
D46*
X163950000Y-116140000D03*
D36*
X206575000Y-127425000D03*
X206575000Y-131575000D03*
X204425000Y-127425000D03*
X204425000Y-131575000D03*
D47*
X166075000Y-132075000D03*
X161925000Y-132075000D03*
X166075000Y-129925000D03*
X161925000Y-129925000D03*
D38*
X172362500Y-109000000D03*
X172362500Y-109950000D03*
X172362500Y-110900000D03*
X174637500Y-110900000D03*
X174637500Y-109950000D03*
X174637500Y-109000000D03*
D28*
X172137500Y-127000000D03*
X172137500Y-128900000D03*
D38*
X172362500Y-123050000D03*
X172362500Y-124000000D03*
X172362500Y-124950000D03*
X174637500Y-124950000D03*
X174637500Y-123050000D03*
M02*
