M48
; DRILL file KiCad 10.0.1 date 2026-06-09T21:49:06
; FORMAT={-:-/ absolute / metric / decimal}
; #@! TF.CreationDate,2026-06-09T21:49:06-04:00
; #@! TF.GenerationSoftware,Kicad,Pcbnew,10.0.1
; #@! TF.FileFunction,Plated,1,2,PTH
FMAT,2
METRIC
; #@! TA.AperFunction,Plated,PTH,ViaDrill
T1C0.300
; #@! TA.AperFunction,Plated,PTH,ViaDrill
T2C0.400
; #@! TA.AperFunction,Plated,PTH,ComponentDrill
T3C0.500
; #@! TA.AperFunction,Plated,PTH,ComponentDrill
T4C0.600
; #@! TA.AperFunction,Plated,PTH,ComponentDrill
T5C0.750
%
G90
G05
T1
X162.5Y-133.0
X163.5Y-110.0
X167.0Y-128.5
X171.0Y-110.97
X172.0Y-130.5
X174.0Y-112.5
X175.0Y-130.5
X176.9Y-119.0
X177.0Y-111.5
X177.5Y-124.5
X179.5Y-114.0
X182.0Y-122.0
X182.5Y-118.5
X183.0Y-108.0
X185.0Y-116.1
X185.5Y-121.0
X202.5Y-127.0
X205.0Y-116.0
X206.0Y-133.0
T2
X166.0Y-133.27
X169.0Y-127.5
X172.0Y-116.0
X173.5Y-114.0
X176.0Y-107.0
X176.0Y-113.0
X176.0Y-116.0
X178.5Y-122.5
X179.5Y-110.95
X186.2Y-119.008
X186.434Y-114.434
X186.5Y-113.0
X189.5Y-110.25
X189.5Y-114.5
X194.5Y-118.5
X195.0Y-123.5
X196.5Y-118.5
X200.1Y-118.5
X202.0Y-122.5
T3
X182.25Y-131.0
X183.5Y-131.0
X194.75Y-131.0
X196.0Y-131.0
T5
X167.545Y-122.32
X167.545Y-124.32
T4
G00X164.25Y-107.5
M15
G01X163.65Y-107.5
M16
G05
G00X164.25Y-116.14
M15
G01X163.65Y-116.14
M16
G05
G00X168.68Y-107.5
M15
G01X167.58Y-107.5
M16
G05
G00X168.68Y-116.14
M15
G01X167.58Y-116.14
M16
G05
M30
