G04 #@! TF.GenerationSoftware,KiCad,Pcbnew,10.0.1*
G04 #@! TF.CreationDate,2026-06-09T21:48:43-04:00*
G04 #@! TF.ProjectId,posture_tracker_v2,706f7374-7572-4655-9f74-7261636b6572,rev?*
G04 #@! TF.SameCoordinates,Original*
G04 #@! TF.FileFunction,Other,User*
%FSLAX46Y46*%
G04 Gerber Fmt 4.6, Leading zero omitted, Abs format (unit mm)*
G04 Created by KiCad (PCBNEW 10.0.1) date 2026-06-09 21:48:43*
%MOMM*%
%LPD*%
G01*
G04 APERTURE LIST*
%ADD10C,0.050000*%
G04 APERTURE END LIST*
D10*
X165895000Y-117340000D02*
X169295000Y-117340000D01*
X169295000Y-119300000D01*
X165895000Y-119300000D01*
X165895000Y-117340000D01*
X180600000Y-115100000D02*
X180600000Y-109800000D01*
X185900000Y-109800000D02*
X180600000Y-109800000D01*
X185900000Y-115100000D02*
X180600000Y-115100000D01*
X185900000Y-115100000D02*
X185900000Y-109800000D01*
X184060000Y-116530000D02*
X185920000Y-116530000D01*
X185920000Y-117470000D01*
X184060000Y-117470000D01*
X184060000Y-116530000D01*
X174530000Y-113580000D02*
X175470000Y-113580000D01*
X175470000Y-115440000D01*
X174530000Y-115440000D01*
X174530000Y-113580000D01*
X203610000Y-125040000D02*
X205430000Y-125040000D01*
X205430000Y-125960000D01*
X203610000Y-125960000D01*
X203610000Y-125040000D01*
X185040000Y-121590000D02*
X185960000Y-121590000D01*
X185960000Y-123410000D01*
X185040000Y-123410000D01*
X185040000Y-121590000D01*
X164610000Y-127540000D02*
X166430000Y-127540000D01*
X166430000Y-128460000D01*
X164610000Y-128460000D01*
X164610000Y-127540000D01*
X179610000Y-122540000D02*
X181430000Y-122540000D01*
X181430000Y-123460000D01*
X179610000Y-123460000D01*
X179610000Y-122540000D01*
X188850000Y-128020000D02*
X192250000Y-128020000D01*
X192250000Y-129980000D01*
X188850000Y-129980000D01*
X188850000Y-128020000D01*
X161427500Y-117370000D02*
X164787500Y-117370000D01*
X164787500Y-119270000D01*
X161427500Y-119270000D01*
X161427500Y-117370000D01*
X180250000Y-128440000D02*
X185500000Y-128440000D01*
X185500000Y-132650000D01*
X180250000Y-132650000D01*
X180250000Y-128440000D01*
X206030000Y-113080000D02*
X206970000Y-113080000D01*
X206970000Y-114940000D01*
X206030000Y-114940000D01*
X206030000Y-113080000D01*
X172300000Y-86350000D02*
X217700000Y-86350000D01*
X172300000Y-105850000D02*
X172300000Y-86350000D01*
X187050000Y-105850000D02*
X172300000Y-105850000D01*
X187050000Y-121600000D02*
X187050000Y-105850000D01*
X202950000Y-105850000D02*
X202950000Y-121600000D01*
X202950000Y-105850000D02*
X217700000Y-105850000D01*
X202950000Y-121600000D02*
X187050000Y-121600000D01*
X217700000Y-105850000D02*
X217700000Y-86350000D01*
X171530000Y-113580000D02*
X172470000Y-113580000D01*
X172470000Y-115440000D01*
X171530000Y-115440000D01*
X171530000Y-113580000D01*
X192750000Y-128440000D02*
X198000000Y-128440000D01*
X198000000Y-132650000D01*
X192750000Y-132650000D01*
X192750000Y-128440000D01*
X206060000Y-125030000D02*
X207920000Y-125030000D01*
X207920000Y-125970000D01*
X206060000Y-125970000D01*
X206060000Y-125030000D01*
X180760000Y-116530000D02*
X182620000Y-116530000D01*
X182620000Y-117470000D01*
X180760000Y-117470000D01*
X180760000Y-116530000D01*
X182040000Y-119070000D02*
X182960000Y-119070000D01*
X182960000Y-120890000D01*
X182040000Y-120890000D01*
X182040000Y-119070000D01*
X199350000Y-128020000D02*
X202750000Y-128020000D01*
X202750000Y-129980000D01*
X199350000Y-129980000D01*
X199350000Y-128020000D01*
X194060000Y-122030000D02*
X195920000Y-122030000D01*
X195920000Y-122970000D01*
X194060000Y-122970000D01*
X194060000Y-122030000D01*
X173657500Y-126250000D02*
X175617500Y-126250000D01*
X175617500Y-129650000D01*
X173657500Y-129650000D01*
X173657500Y-126250000D01*
X171060000Y-131530000D02*
X172920000Y-131530000D01*
X172920000Y-132470000D01*
X171060000Y-132470000D01*
X171060000Y-131530000D01*
X204040000Y-113070000D02*
X204960000Y-113070000D01*
X204960000Y-114890000D01*
X204040000Y-114890000D01*
X204040000Y-113070000D01*
X197090000Y-124180000D02*
X197440000Y-124180000D01*
X197090000Y-126440000D02*
X197090000Y-124180000D01*
X197440000Y-123560000D02*
X198060000Y-123560000D01*
X197440000Y-124180000D02*
X197440000Y-123560000D01*
X197440000Y-126440000D02*
X197090000Y-126440000D01*
X197440000Y-127060000D02*
X197440000Y-126440000D01*
X198060000Y-123210000D02*
X200320000Y-123210000D01*
X198060000Y-123560000D02*
X198060000Y-123210000D01*
X198060000Y-127060000D02*
X197440000Y-127060000D01*
X198060000Y-127410000D02*
X198060000Y-127060000D01*
X200320000Y-123210000D02*
X200320000Y-123560000D01*
X200320000Y-123560000D02*
X200940000Y-123560000D01*
X200320000Y-127060000D02*
X200320000Y-127410000D01*
X200320000Y-127410000D02*
X198060000Y-127410000D01*
X200940000Y-123560000D02*
X200940000Y-124180000D01*
X200940000Y-124180000D02*
X201290000Y-124180000D01*
X200940000Y-126440000D02*
X200940000Y-127060000D01*
X200940000Y-127060000D02*
X200320000Y-127060000D01*
X201290000Y-124180000D02*
X201290000Y-126440000D01*
X201290000Y-126440000D02*
X200940000Y-126440000D01*
X204560000Y-120530000D02*
X206420000Y-120530000D01*
X206420000Y-121470000D01*
X204560000Y-121470000D01*
X204560000Y-120530000D01*
X176110000Y-122540000D02*
X177930000Y-122540000D01*
X177930000Y-123460000D01*
X176110000Y-123460000D01*
X176110000Y-122540000D01*
X167550000Y-129320000D02*
X169450000Y-129320000D01*
X169450000Y-132680000D01*
X167550000Y-132680000D01*
X167550000Y-129320000D01*
X198530000Y-130555000D02*
X199470000Y-130555000D01*
X199470000Y-132415000D01*
X198530000Y-132415000D01*
X198530000Y-130555000D01*
X178030000Y-124560000D02*
X178970000Y-124560000D01*
X178970000Y-126420000D01*
X178030000Y-126420000D01*
X178030000Y-124560000D01*
X203650000Y-106650000D02*
X203650000Y-112350000D01*
X203650000Y-112350000D02*
X207350000Y-112350000D01*
X207350000Y-106650000D02*
X203650000Y-106650000D01*
X207350000Y-112350000D02*
X207350000Y-106650000D01*
X186070000Y-123540000D02*
X187890000Y-123540000D01*
X187890000Y-124460000D01*
X186070000Y-124460000D01*
X186070000Y-123540000D01*
X180020000Y-117800000D02*
X181980000Y-117800000D01*
X181980000Y-121200000D01*
X180020000Y-121200000D01*
X180020000Y-117800000D01*
X176030000Y-116560000D02*
X176970000Y-116560000D01*
X176970000Y-118420000D01*
X176030000Y-118420000D01*
X176030000Y-116560000D01*
X203820000Y-122050000D02*
X207180000Y-122050000D01*
X207180000Y-123950000D01*
X203820000Y-123950000D01*
X203820000Y-122050000D01*
X161070000Y-127530000D02*
X162930000Y-127530000D01*
X162930000Y-128470000D01*
X161070000Y-128470000D01*
X161070000Y-127530000D01*
X171560000Y-112030000D02*
X173420000Y-112030000D01*
X173420000Y-112970000D01*
X171560000Y-112970000D01*
X171560000Y-112030000D01*
X180610000Y-108040000D02*
X182430000Y-108040000D01*
X182430000Y-108960000D01*
X180610000Y-108960000D01*
X180610000Y-108040000D01*
X173432500Y-120040000D02*
X175252500Y-120040000D01*
X175252500Y-120960000D01*
X173432500Y-120960000D01*
X173432500Y-120040000D01*
X191030000Y-130570000D02*
X191970000Y-130570000D01*
X191970000Y-132430000D01*
X191030000Y-132430000D01*
X191030000Y-130570000D01*
X171312500Y-116500000D02*
X172312500Y-116500000D01*
X171312500Y-119500000D02*
X171312500Y-116500000D01*
X172312500Y-116300000D02*
X174412500Y-116300000D01*
X172312500Y-116500000D02*
X172312500Y-116300000D01*
X172312500Y-119500000D02*
X171312500Y-119500000D01*
X172312500Y-119700000D02*
X172312500Y-119500000D01*
X174412500Y-116300000D02*
X174412500Y-116500000D01*
X174412500Y-116500000D02*
X175412500Y-116500000D01*
X174412500Y-117610000D02*
X174412500Y-118390000D01*
X174412500Y-118390000D02*
X175412500Y-118390000D01*
X174412500Y-119500000D02*
X174412500Y-119700000D01*
X174412500Y-119700000D02*
X172312500Y-119700000D01*
X175412500Y-116500000D02*
X175412500Y-117610000D01*
X175412500Y-117610000D02*
X174412500Y-117610000D01*
X175412500Y-118390000D02*
X175412500Y-119500000D01*
X175412500Y-119500000D02*
X174412500Y-119500000D01*
X160795000Y-119870000D02*
X169395000Y-119870000D01*
X169395000Y-126770000D01*
X160795000Y-126770000D01*
X160795000Y-119870000D01*
X194610000Y-126540000D02*
X196430000Y-126540000D01*
X196430000Y-127460000D01*
X194610000Y-127460000D01*
X194610000Y-126540000D01*
X179870000Y-124600000D02*
X181250000Y-124600000D01*
X179870000Y-127400000D02*
X179870000Y-124600000D01*
X181250000Y-124250000D02*
X184750000Y-124250000D01*
X181250000Y-124600000D02*
X181250000Y-124250000D01*
X181250000Y-127400000D02*
X179870000Y-127400000D01*
X181250000Y-127750000D02*
X181250000Y-127400000D01*
X184750000Y-124250000D02*
X184750000Y-124600000D01*
X184750000Y-124600000D02*
X186130000Y-124600000D01*
X184750000Y-127400000D02*
X184750000Y-127750000D01*
X184750000Y-127750000D02*
X181250000Y-127750000D01*
X186130000Y-124600000D02*
X186130000Y-127400000D01*
X186130000Y-127400000D02*
X184750000Y-127400000D01*
X177040000Y-113610000D02*
X177960000Y-113610000D01*
X177960000Y-115430000D01*
X177040000Y-115430000D01*
X177040000Y-113610000D01*
X189850000Y-123520000D02*
X193250000Y-123520000D01*
X193250000Y-125480000D01*
X189850000Y-125480000D01*
X189850000Y-123520000D01*
X171560000Y-106530000D02*
X173420000Y-106530000D01*
X173420000Y-107470000D01*
X171560000Y-107470000D01*
X171560000Y-106530000D01*
X160850000Y-106500000D02*
X160850000Y-117140000D01*
X170270000Y-106500000D02*
X160850000Y-106500000D01*
X170270000Y-106500000D02*
X170270000Y-117140000D01*
X170270000Y-117140000D02*
X160850000Y-117140000D01*
X203650000Y-126650000D02*
X203650000Y-132350000D01*
X203650000Y-132350000D02*
X207350000Y-132350000D01*
X207350000Y-126650000D02*
X203650000Y-126650000D01*
X207350000Y-132350000D02*
X207350000Y-126650000D01*
X161150000Y-129150000D02*
X161150000Y-132850000D01*
X161150000Y-132850000D02*
X166850000Y-132850000D01*
X166850000Y-129150000D02*
X161150000Y-129150000D01*
X166850000Y-132850000D02*
X166850000Y-129150000D01*
X171450000Y-108450000D02*
X172450000Y-108450000D01*
X171450000Y-111450000D02*
X171450000Y-108450000D01*
X172450000Y-108250000D02*
X174550000Y-108250000D01*
X172450000Y-108450000D02*
X172450000Y-108250000D01*
X172450000Y-111450000D02*
X171450000Y-111450000D01*
X172450000Y-111650000D02*
X172450000Y-111450000D01*
X174550000Y-108250000D02*
X174550000Y-108450000D01*
X174550000Y-108450000D02*
X175550000Y-108450000D01*
X174550000Y-111450000D02*
X174550000Y-111650000D01*
X174550000Y-111650000D02*
X172450000Y-111650000D01*
X175550000Y-108450000D02*
X175550000Y-111450000D01*
X175550000Y-111450000D02*
X174550000Y-111450000D01*
X171157500Y-126250000D02*
X173117500Y-126250000D01*
X173117500Y-129650000D01*
X171157500Y-129650000D01*
X171157500Y-126250000D01*
X171450000Y-122500000D02*
X172450000Y-122500000D01*
X171450000Y-125500000D02*
X171450000Y-122500000D01*
X172450000Y-122300000D02*
X174550000Y-122300000D01*
X172450000Y-122500000D02*
X172450000Y-122300000D01*
X172450000Y-125500000D02*
X171450000Y-125500000D01*
X172450000Y-125700000D02*
X172450000Y-125500000D01*
X174550000Y-122300000D02*
X174550000Y-122500000D01*
X174550000Y-122500000D02*
X175550000Y-122500000D01*
X174550000Y-123610000D02*
X174550000Y-124390000D01*
X174550000Y-124390000D02*
X175550000Y-124390000D01*
X174550000Y-125500000D02*
X174550000Y-125700000D01*
X174550000Y-125700000D02*
X172450000Y-125700000D01*
X175550000Y-122500000D02*
X175550000Y-123610000D01*
X175550000Y-123610000D02*
X174550000Y-123610000D01*
X175550000Y-124390000D02*
X175550000Y-125500000D01*
X175550000Y-125500000D02*
X174550000Y-125500000D01*
M02*
